<?xml version="1.0" encoding="utf-8"?>
<!-- Generator: Adobe Illustrator 26.2.1, SVG Export Plug-In . SVG Version: 6.00 Build 0)  -->
<svg version="1.1" id="Capa_1" xmlns="http://www.w3.org/2000/svg" xmlns:xlink="http://www.w3.org/1999/xlink" x="0px" y="0px"
	 viewBox="0 0 481 444" style="enable-background:new 0 0 481 444;" xml:space="preserve">
<style type="text/css">
	.st0{enable-background:new    ;}
	.st1{fill:#3C5E73;}
	.st2{fill:#CE5C49;}
	.st3{fill:#6F9FB9;}
</style>
<g class="st0">
	<path class="st1" d="M170.09,203.88h-13.88V190v-13.88v-13.88h-13.88h-13.88h-13.88h-13.88H86.81H72.92v13.88V190v13.88H59.04
		H45.16V190v-13.88v-13.88h13.88v-13.88v-13.88V120.6h13.88v-13.88V92.83V78.95h13.88V65.07V51.19h13.88V37.31h13.88h13.88v13.88
		h13.88v13.88v13.88h13.88v13.88v13.88v13.88h13.88v13.88v13.88v13.88h13.88v13.88V190v13.88H170.09z M128.45,134.48h13.88V120.6
		h-13.88v-13.88V92.83V78.95h-13.88h-13.88v13.88v13.88v13.88H86.81v13.88h13.88h13.88H128.45z"/>
	<path class="st1" d="M225.61,203.88h-13.88V190v-13.88h13.88h13.88V190v13.88H225.61z"/>
	<path class="st1" d="M336.66,203.88h-13.88H308.9h-13.88h-13.88h-13.88V190v-13.88h13.88h13.88v-13.88v-13.88v-13.88V120.6v-13.88
		V92.83V78.95V65.07h-13.88h-13.88V51.19V37.31h13.88h13.88h13.88h13.88h13.88h13.88v13.88v13.88h-13.88h-13.88v13.88v13.88v13.88
		v13.88v13.88v13.88v13.88v13.88h13.88h13.88V190v13.88H336.66z"/>
</g>
<g class="st0">
	<path class="st2" d="M380.98,202.93h-3.57v-3.57h-3.57v-3.57h-3.57v-3.57v-3.57v-3.57h-3.57v-3.57v-3.57v-3.57h-3.57v-3.57v-3.57
		v-3.57v-3.57h3.57h3.57v3.57v3.57v3.57h3.57v3.57v3.57v3.57h3.57v3.57v3.57v3.57h3.57h3.57v-3.57v-3.57v-3.57h3.57v-3.57v-3.57
		v-3.57h3.57v-3.57v-3.57v-3.57h3.57h3.57v3.57v3.57v3.57v3.57h-3.57v3.57v3.57v3.57h-3.57v3.57v3.57v3.57h-3.57v3.57h-3.57v3.57
		H380.98z"/>
	<path class="st2" d="M430.91,202.93h-3.57h-3.57h-3.57h-3.57h-3.57v-3.57h-3.57v-3.57h-3.57v-3.57v-3.57h3.57h3.57v3.57h3.57v3.57
		h3.57h3.57h3.57h3.57v-3.57h3.57v-3.57h-3.57v-3.57h-3.57h-3.57h-3.57h-3.57h-3.57v-3.57h-3.57v-3.57h-3.57v-3.57v-3.57v-3.57h3.57
		v-3.57h3.57v-3.57h3.57h3.57h3.57h3.57h3.57h3.57v3.57h3.57v3.57h3.57v3.57v3.57h-3.57h-3.57v-3.57h-3.57v-3.57h-3.57h-3.57h-3.57
		h-3.57v3.57h-3.57v3.57h3.57v3.57h3.57h3.57h3.57h3.57h3.57v3.57h3.57v3.57h3.57v3.57v3.57v3.57h-3.57v3.57h-3.57v3.57H430.91z"/>
</g>
<g class="st0">
	<path class="st1" d="M98.19,292.95h-5.63v-5.63v-5.63v-5.63v-5.63v-5.63h-5.63h-5.63h-5.63h-5.63h-5.63h-5.63v5.63v5.63v5.63v5.63
		v5.63h-5.63h-5.63v-5.63v-5.63v-5.63v-5.63v-5.63v-5.63v-5.63v-5.63v-5.63v-5.63v-5.63v-5.63h5.63h5.63v5.63v5.63v5.63v5.63v5.63
		h5.63h5.63h5.63h5.63h5.63h5.63v-5.63v-5.63v-5.63v-5.63v-5.63h5.63h5.63v5.63v5.63v5.63v5.63v5.63v5.63v5.63v5.63v5.63v5.63v5.63
		v5.63H98.19z"/>
	<path class="st1" d="M154.53,292.95h-5.63h-5.63h-5.63H132h-5.63v-5.63h-5.63v-5.63h-5.63v-5.63v-5.63v-5.63v-5.63v-5.63v-5.63
		v-5.63v-5.63v-5.63v-5.63h5.63h5.63v5.63v5.63v5.63v5.63v5.63v5.63v5.63v5.63v5.63H132v5.63h5.63h5.63h5.63h5.63v-5.63h5.63v-5.63
		v-5.63v-5.63v-5.63v-5.63v-5.63v-5.63v-5.63v-5.63h5.63h5.63v5.63v5.63v5.63v5.63v5.63v5.63v5.63v5.63v5.63v5.63h-5.63v5.63h-5.63
		v5.63H154.53z"/>
	<path class="st1" d="M233.41,292.95h-5.63v-5.63v-5.63v-5.63v-5.63v-5.63v-5.63v-5.63v-5.63h-5.63v5.63h-5.63v5.63v5.63h-5.63
		h-5.63v-5.63v-5.63h-5.63v-5.63h-5.63v5.63v5.63v5.63v5.63v5.63v5.63v5.63v5.63h-5.63h-5.63v-5.63v-5.63v-5.63v-5.63v-5.63v-5.63
		v-5.63v-5.63v-5.63v-5.63v-5.63v-5.63h5.63h5.63v5.63h5.63v5.63h5.63v5.63h5.63h5.63v-5.63h5.63v-5.63h5.63v-5.63h5.63h5.63v5.63
		v5.63v5.63v5.63v5.63v5.63v5.63v5.63v5.63v5.63v5.63v5.63H233.41z"/>
	<path class="st1" d="M301.02,292.95h-5.63v-5.63v-5.63v-5.63h-5.63h-5.63h-5.63h-5.63h-5.63h-5.63v5.63v5.63v5.63h-5.63h-5.63
		v-5.63v-5.63v-5.63h5.63v-5.63v-5.63v-5.63h5.63v-5.63v-5.63v-5.63h5.63v-5.63v-5.63h5.63v-5.63h5.63h5.63v5.63h5.63v5.63v5.63
		h5.63v5.63v5.63v5.63h5.63v5.63v5.63v5.63h5.63v5.63v5.63v5.63H301.02z M284.12,264.78h5.63v-5.63h-5.63v-5.63v-5.63v-5.63h-5.63
		h-5.63v5.63v5.63v5.63h-5.63v5.63h5.63h5.63H284.12z"/>
	<path class="st1" d="M368.63,292.95H363v-5.63h-5.63v-5.63h-5.63v-5.63h-5.63v-5.63v-5.63h-5.63v-5.63h-5.63v-5.63v-5.63h-5.63
		v5.63v5.63v5.63v5.63v5.63v5.63v5.63v5.63h-5.63h-5.63v-5.63v-5.63v-5.63v-5.63v-5.63v-5.63v-5.63v-5.63v-5.63v-5.63v-5.63v-5.63
		h5.63h5.63v5.63h5.63v5.63h5.63v5.63h5.63v5.63v5.63h5.63v5.63h5.63v5.63v5.63H363v-5.63v-5.63v-5.63v-5.63v-5.63v-5.63v-5.63
		v-5.63h5.63h5.63v5.63v5.63v5.63v5.63v5.63v5.63v5.63v5.63v5.63v5.63v5.63v5.63H368.63z"/>
	<path class="st1" d="M424.98,292.95h-5.63h-5.63h-5.63h-5.63h-5.63v-5.63h-5.63v-5.63h-5.63v-5.63v-5.63h5.63h5.63v5.63h5.63v5.63
		h5.63h5.63h5.63h5.63v-5.63h5.63v-5.63h-5.63v-5.63h-5.63h-5.63h-5.63h-5.63h-5.63v-5.63h-5.63v-5.63h-5.63v-5.63v-5.63v-5.63h5.63
		v-5.63h5.63v-5.63h5.63h5.63h5.63h5.63h5.63h5.63v5.63h5.63v5.63h5.63v5.63v5.63h-5.63h-5.63v-5.63h-5.63v-5.63h-5.63h-5.63h-5.63
		h-5.63v5.63h-5.63v5.63h5.63v5.63h5.63h5.63h5.63h5.63h5.63v5.63h5.63v5.63h5.63v5.63v5.63v5.63h-5.63v5.63h-5.63v5.63H424.98z"/>
</g>
<g class="st0">
	<path class="st3" d="M146.83,351.52h-2.05v-2.05v-2.04h-2.05h-2.05h-2.05h-2.05h-2.05h-2.05v2.04v2.05h-2.05h-2.05v-2.05v-2.04
		v-2.05h2.05v-2.05v-2.05h2.05v-2.04v-2.05h2.05v-2.05h2.05v-2.05h-2.05v-2.05v-2.04h2.05h2.05v-2.05h2.05h2.05v2.05v2.04h-2.05
		h-2.05v2.05h2.05v2.05h2.05v2.05h2.05v2.05v2.04h2.05v2.05v2.05h2.05v2.05v2.04v2.05H146.83z M140.69,343.34h2.05v-2.05h-2.05
		v-2.04h-2.05h-2.05v2.04h-2.05v2.05h2.05h2.05H140.69z"/>
	<path class="st3" d="M163.21,351.52h-2.05h-2.05h-2.05h-2.05h-2.05v-2.05v-2.04h2.05h2.05v-2.05v-2.05v-2.05v-2.04v-2.05v-2.05
		v-2.05v-2.05h-2.05h-2.05v-2.04v-2.05h2.05h2.05h2.05h2.05v2.05v2.04v2.05v2.05v2.05v2.05v2.04v2.05v2.05v2.05h2.05h2.05v2.04v2.05
		H163.21z"/>
	<path class="st3" d="M181.62,351.52h-2.05h-2.05h-2.05v-2.05h-2.05v-2.04v-2.05h-2.05v-2.05v-2.05h-2.05v-2.04v-2.05v-2.05h2.05
		h2.05v2.05v2.05h2.05v2.04v2.05h2.05v2.05v2.05h2.05h2.05v-2.05v-2.05h2.05v-2.05v-2.04h2.05v-2.05v-2.05h2.05h2.05v2.05v2.05v2.04
		h-2.05v2.05v2.05h-2.05v2.05v2.04h-2.05v2.05H181.62z"/>
	<path class="st3" d="M212.32,351.52h-2.05v-2.05h-2.05v2.05h-2.05h-2.05h-2.05h-2.05h-2.05h-2.05v-2.05h-2.05v-2.04v-2.05v-2.05
		h2.05v-2.05h2.05h2.05h2.05h2.05h2.05h2.05h2.05v-2.04h-2.05h-2.05h-2.05h-2.05h-2.05h-2.05h-2.05v-2.05v-2.05h2.05h2.05h2.05h2.05
		h2.05h2.05h2.05h2.05v2.05h2.05v2.05v2.04v2.05v2.05v2.05v2.04v2.05H212.32z M208.23,347.43h2.05v-2.05h-2.05h-2.05h-2.05h-2.05
		h-2.05h-2.05v2.05h2.05h2.05h2.05h2.05H208.23z"/>
	<path class="st3" d="M220.51,351.52h-2.05v-2.05v-2.04v-2.05v-2.05v-2.05v-2.04v-2.05v-2.05h2.05h2.05v2.05v2.05h2.05v-2.05h2.05
		v-2.05h2.05h2.05h2.05h2.05v2.05h2.05v2.05h2.05v2.04v2.05h-2.05h-2.05v-2.05h-2.05v-2.04h-2.05h-2.05v2.04h-2.05v2.05h-2.05v2.05
		h-2.05v2.05v2.04v2.05H220.51z"/>
	<path class="st3" d="M257.34,351.52h-2.05h-2.05h-2.05h-2.05h-2.05v-2.05h-2.05v-2.04h-2.05v-2.05v-2.05v-2.05v-2.04h2.05v-2.05
		h2.05v-2.05h2.05h2.05h2.05h2.05h2.05h2.05v2.05h2.05v2.05h2.05v2.04v2.05v2.05v2.05h-2.05v2.04h-2.05v2.05H257.34z M255.29,347.43
		h2.05v-2.05h2.05v-2.05v-2.05h-2.05v-2.04h-2.05h-2.05h-2.05h-2.05v2.04h-2.05v2.05v2.05h2.05v2.05h2.05h2.05H255.29z"/>
	<path class="st3" d="M292.13,351.52h-2.05h-2.05h-2.05h-2.05h-2.05h-2.05v-2.05v-2.04v-2.05v-2.05v-2.05v-2.04v-2.05v-2.05v-2.05
		v-2.05v-2.04v-2.05h2.05h2.05h2.05h2.05h2.05h2.05h2.05v2.05h2.05v2.04h2.05v2.05h2.05v2.05v2.05v2.05v2.04v2.05v2.05h-2.05v2.05
		h-2.05v2.04h-2.05v2.05H292.13z M290.08,347.43h2.05v-2.05h2.05v-2.05h2.05v-2.05v-2.04v-2.05v-2.05h-2.05v-2.05h-2.05v-2.05h-2.05
		h-2.05h-2.05h-2.05v2.05v2.05v2.05v2.05v2.04v2.05v2.05v2.05h2.05h2.05H290.08z"/>
	<path class="st3" d="M314.64,351.52h-2.05h-2.05h-2.05h-2.05h-2.05v-2.05v-2.04h2.05h2.05v-2.05v-2.05v-2.05v-2.04h-2.05h-2.05
		v-2.05v-2.05h2.05h2.05h2.05h2.05v2.05v2.05v2.04v2.05v2.05v2.05h2.05h2.05v2.04v2.05H314.64z M308.5,333.1h-2.05v-2.05v-2.04h2.05
		h2.05v-2.05h2.05h2.05v2.05v2.04h-2.05h-2.05v2.05H308.5z"/>
	<path class="st3" d="M339.2,351.52h-2.05v-2.05h-2.05v2.05h-2.05h-2.05h-2.05h-2.05h-2.05h-2.05v-2.05h-2.05v-2.04v-2.05v-2.05
		h2.05v-2.05h2.05h2.05h2.05h2.05h2.05h2.05h2.05v-2.04h-2.05h-2.05h-2.05h-2.05h-2.05h-2.05h-2.05v-2.05v-2.05h2.05h2.05h2.05h2.05
		h2.05h2.05h2.05h2.05v2.05h2.05v2.05v2.04v2.05v2.05v2.05v2.04v2.05H339.2z M335.11,347.43h2.05v-2.05h-2.05h-2.05h-2.05h-2.05
		h-2.05h-2.05v2.05h2.05h2.05h2.05h2.05H335.11z"/>
	<path class="st3" d="M363.76,351.52h-2.05h-2.05h-2.05h-2.05h-2.05h-2.05h-2.05h-2.05h-2.05v-2.05v-2.04h2.05v-2.05h2.05v-2.05
		h2.05h2.05v-2.05h2.05h2.05v-2.04h-2.05h-2.05h-2.05h-2.05h-2.05h-2.05v-2.05v-2.05h2.05h2.05h2.05h2.05h2.05h2.05h2.05h2.05h2.05
		h2.05v2.05v2.05h-2.05v2.04h-2.05v2.05h-2.05h-2.05v2.05h-2.05h-2.05v2.05h2.05h2.05h2.05h2.05h2.05h2.05v2.04v2.05H363.76z"/>
</g>
<g class="st0">
	<path class="st3" d="M54.75,390.81H52.7h-2.05h-2.05v-2.05h-2.05v-2.05h-2.05v-2.05v-2.04h2.05h2.05v2.04h2.05v2.05h2.05h2.05
		v-2.05h2.05v-2.04v-2.05v-2.05v-2.05v-2.05v-2.04v-2.05h-2.05H52.7v-2.05v-2.05h2.05h2.05h2.05h2.05h2.05h2.05v2.05v2.05h-2.05
		h-2.05v2.05v2.04v2.05v2.05v2.05v2.05v2.04v2.05h-2.05v2.05h-2.05v2.05H54.75z"/>
	<path class="st3" d="M87.49,390.81h-2.05v-2.05H83.4v2.05h-2.05h-2.05h-2.05h-2.05h-2.05v-2.05h-2.05v-2.05h-2.05v-2.05v-2.04
		v-2.05v-2.05v-2.05v-2.05h2.05h2.05v2.05v2.05v2.05v2.05v2.04h2.05v2.05h2.05h2.05h2.05v-2.05h2.05v-2.04h2.05v-2.05v-2.05v-2.05
		v-2.05h2.05h2.05v2.05v2.05v2.05v2.05v2.04v2.05v2.05v2.05H87.49z"/>
	<path class="st3" d="M112.05,390.81H110v-2.05h-2.05v2.05h-2.05h-2.05h-2.05h-2.05h-2.05h-2.05v-2.05h-2.05v-2.05v-2.05v-2.04h2.05
		v-2.05h2.05h2.05h2.05h2.05h2.05h2.05H110v-2.05h-2.05h-2.05h-2.05h-2.05h-2.05h-2.05h-2.05v-2.05v-2.05h2.05h2.05h2.05h2.05h2.05
		h2.05H110h2.05v2.05h2.05v2.05v2.05v2.05v2.04v2.05v2.05v2.05H112.05z M107.96,386.72H110v-2.05h-2.05h-2.05h-2.05h-2.05h-2.05
		h-2.05v2.05h2.05h2.05h2.05h2.05H107.96z"/>
	<path class="st3" d="M136.61,390.81h-2.05v-2.05v-2.05v-2.05v-2.04v-2.05h-2.05v-2.05h-2.05h-2.05h-2.05h-2.05v2.05h-2.05v2.05
		v2.04v2.05v2.05v2.05h-2.05h-2.05v-2.05v-2.05v-2.05v-2.04v-2.05v-2.05v-2.05v-2.05h2.05h2.05v2.05h2.05v-2.05h2.05h2.05h2.05h2.05
		h2.05v2.05h2.05v2.05h2.05v2.05v2.05v2.04v2.05v2.05v2.05H136.61z"/>
	<path class="st3" d="M171.4,390.81h-2.05h-2.05h-2.05h-2.05h-2.05v-2.05h-2.05v-2.05h-2.05v-2.05h-2.05v-2.04v-2.05v-2.05v-2.05
		v-2.05v-2.04h2.05v-2.05h2.05v-2.05h2.05v-2.05h2.05h2.05h2.05h2.05h2.05h2.05v2.05h2.05v2.05v2.05h-2.05h-2.05v-2.05h-2.05h-2.05
		h-2.05h-2.05v2.05h-2.05v2.04h-2.05v2.05v2.05v2.05v2.05h2.05v2.04h2.05v2.05h2.05h2.05h2.05h2.05v-2.05h2.05h2.05v2.05v2.05h-2.05
		v2.05H171.4z"/>
	<path class="st3" d="M198,390.81h-2.05v-2.05h-2.05v2.05h-2.05h-2.05h-2.05h-2.05h-2.05h-2.05v-2.05h-2.05v-2.05v-2.05v-2.04h2.05
		v-2.05h2.05h2.05h2.05h2.05h2.05h2.05h2.05v-2.05h-2.05h-2.05h-2.05h-2.05h-2.05h-2.05h-2.05v-2.05v-2.05h2.05h2.05h2.05h2.05h2.05
		h2.05h2.05H198v2.05h2.05v2.05v2.05v2.05v2.04v2.05v2.05v2.05H198z M193.91,386.72h2.05v-2.05h-2.05h-2.05h-2.05h-2.05h-2.05h-2.05
		v2.05h2.05h2.05h2.05h2.05H193.91z"/>
	<path class="st3" d="M206.18,390.81h-2.05v-2.05v-2.05v-2.05v-2.04v-2.05v-2.05v-2.05v-2.05h2.05h2.05v2.05v2.05h2.05v-2.05h2.05
		v-2.05h2.05h2.05h2.05h2.05v2.05h2.05v2.05h2.05v2.05v2.05h-2.05h-2.05v-2.05h-2.05v-2.05h-2.05h-2.05v2.05h-2.05v2.05h-2.05v2.04
		h-2.05v2.05v2.05v2.05H206.18z"/>
	<path class="st3" d="M238.93,390.81h-2.05h-2.05h-2.05h-2.05h-2.05v-2.05v-2.05h2.05h2.05v-2.05v-2.04v-2.05v-2.05v-2.05v-2.05
		v-2.04v-2.05h-2.05h-2.05v-2.05v-2.05h2.05h2.05h2.05h2.05v2.05v2.05v2.05v2.04v2.05v2.05v2.05v2.05v2.04v2.05h2.05h2.05v2.05v2.05
		H238.93z"/>
	<path class="st3" d="M259.39,390.81h-2.05h-2.05h-2.05h-2.05h-2.05v-2.05h-2.05v-2.05h-2.05v-2.05v-2.04v-2.05v-2.05h2.05v-2.05
		h2.05v-2.05h2.05h2.05h2.05h2.05h2.05h2.05v2.05h2.05v2.05h2.05v2.05v2.05v2.04v2.05h-2.05v2.05h-2.05v2.05H259.39z M257.35,386.72
		h2.05v-2.05h2.05v-2.04v-2.05h-2.05v-2.05h-2.05h-2.05h-2.05h-2.05v2.05h-2.05v2.05v2.04h2.05v2.05h2.05h2.05H257.35z"/>
	<path class="st3" d="M286,390.81h-2.05h-2.05h-2.05h-2.05h-2.05h-2.05h-2.05h-2.05v-2.05v-2.05h2.05h2.05h2.05h2.05h2.05h2.05h2.05
		H286v-2.05h-2.05h-2.05h-2.05h-2.05h-2.05h-2.05h-2.05v-2.04h-2.05v-2.05v-2.05v-2.05h2.05v-2.05h2.05h2.05h2.05h2.05h2.05h2.05
		H286h2.05v2.05v2.05H286h-2.05h-2.05h-2.05h-2.05h-2.05h-2.05v2.05h2.05h2.05h2.05h2.05h2.05H286h2.05v2.05h2.05v2.04v2.05v2.05
		h-2.05v2.05H286z"/>
	<path class="st3" d="M316.69,390.81h-2.05v-2.05h-2.05v-2.05h-2.05v-2.05v-2.04v-2.05h-2.05v-2.05v-2.05v-2.05h-2.05v-2.04v-2.05
		v-2.05v-2.05h2.05h2.05v2.05v2.05v2.05h2.05v2.04v2.05v2.05h2.05v2.05v2.05v2.04h2.05h2.05v-2.04v-2.05v-2.05h2.05v-2.05v-2.05
		v-2.04h2.05v-2.05v-2.05v-2.05h2.05h2.05v2.05v2.05v2.05v2.04h-2.05v2.05v2.05v2.05h-2.05v2.05v2.04v2.05h-2.05v2.05h-2.05v2.05
		H316.69z"/>
	<path class="st3" d="M349.44,390.81h-2.05v-2.05h-2.05v2.05h-2.05h-2.05h-2.05h-2.05h-2.05h-2.05v-2.05h-2.05v-2.05v-2.05v-2.04
		h2.05v-2.05h2.05h2.05h2.05h2.05h2.05h2.05h2.05v-2.05h-2.05h-2.05h-2.05h-2.05h-2.05h-2.05h-2.05v-2.05v-2.05h2.05h2.05h2.05h2.05
		h2.05h2.05h2.05h2.05v2.05h2.05v2.05v2.05v2.05v2.04v2.05v2.05v2.05H349.44z M345.34,386.72h2.05v-2.05h-2.05h-2.05h-2.05h-2.05
		h-2.05h-2.05v2.05h2.05h2.05h2.05h2.05H345.34z"/>
	<path class="st3" d="M357.62,390.81h-2.05v-2.05v-2.05v-2.05v-2.04v-2.05v-2.05v-2.05v-2.05h2.05h2.05v2.05v2.05h2.05v-2.05h2.05
		v-2.05h2.05h2.05h2.05h2.05v2.05h2.05v2.05h2.05v2.05v2.05h-2.05h-2.05v-2.05h-2.05v-2.05h-2.05h-2.05v2.05h-2.05v2.05h-2.05v2.04
		h-2.05v2.05v2.05v2.05H357.62z"/>
	<path class="st3" d="M396.5,390.81h-2.05h-2.05h-2.05h-2.05h-2.05h-2.05h-2.05v-2.05h-2.05v-2.05v-2.05v-2.04v-2.05v-2.05h2.05
		v-2.05h2.05v-2.05h2.05h2.05h2.05h2.05h2.05h2.05h2.05v2.05h2.05v2.05v2.05v2.05h-2.05v2.04h-2.05h-2.05h-2.05h-2.05h-2.05h-2.05
		h-2.05v2.05h2.05h2.05h2.05h2.05h2.05h2.05h2.05h2.05v2.05h-2.05v2.05H396.5z M394.46,380.58h2.05v-2.05h-2.05h-2.05h-2.05h-2.05
		h-2.05v2.05h2.05h2.05h2.05H394.46z"/>
	<path class="st3" d="M414.92,390.81h-2.05h-2.05h-2.05h-2.05h-2.05v-2.05v-2.05h2.05h2.05v-2.05v-2.04v-2.05v-2.05v-2.05v-2.05
		v-2.04v-2.05h-2.05h-2.05v-2.05v-2.05h2.05h2.05h2.05h2.05v2.05v2.05v2.05v2.04v2.05v2.05v2.05v2.05v2.04v2.05h2.05h2.05v2.05v2.05
		H414.92z"/>
	<path class="st3" d="M439.48,390.81h-2.05v-2.05h-2.05v2.05h-2.05h-2.05h-2.05h-2.05h-2.05h-2.05v-2.05h-2.05v-2.05v-2.05v-2.04
		h2.05v-2.05h2.05h2.05h2.05h2.05h2.05h2.05h2.05v-2.05h-2.05h-2.05h-2.05h-2.05h-2.05h-2.05h-2.05v-2.05v-2.05h2.05h2.05h2.05h2.05
		h2.05h2.05h2.05h2.05v2.05h2.05v2.05v2.05v2.05v2.04v2.05v2.05v2.05H439.48z M435.39,386.72h2.05v-2.05h-2.05h-2.05h-2.05h-2.05
		h-2.05h-2.05v2.05h2.05h2.05h2.05h2.05H435.39z"/>
	<path class="st3" d="M447.67,390.81h-2.05v-2.05v-2.05h2.05h2.05v2.05v2.05H447.67z"/>
</g>
</svg>
