<?xml version="1.0" encoding="utf-8"?>
<!-- Generator: Adobe Illustrator 26.2.1, SVG Export Plug-In . SVG Version: 6.00 Build 0)  -->
<svg version="1.1" id="robot" xmlns="http://www.w3.org/2000/svg" xmlns:xlink="http://www.w3.org/1999/xlink" x="0px" y="0px"
	 viewBox="0 0 130.61 219.9" style="enable-background:new 0 0 130.61 219.9;" xml:space="preserve">
<style type="text/css">
	.st0{fill-rule:evenodd;clip-rule:evenodd;fill:#1B211F;}
	.st1{fill-rule:evenodd;clip-rule:evenodd;fill:#2D3330;}
	.st2{fill-rule:evenodd;clip-rule:evenodd;fill:#444F49;}
	.st3{fill-rule:evenodd;clip-rule:evenodd;fill:#242B28;}
	.st4{fill-rule:evenodd;clip-rule:evenodd;fill:#2F3833;}
	.st5{fill-rule:evenodd;clip-rule:evenodd;fill:#131716;}
	.st6{fill-rule:evenodd;clip-rule:evenodd;fill:#3A9C9C;}
	.st7{fill-rule:evenodd;clip-rule:evenodd;fill:#2C7E82;}
	.st8{fill-rule:evenodd;clip-rule:evenodd;fill:#44BDBD;}
	.st9{fill-rule:evenodd;clip-rule:evenodd;fill:#232A27;}
	.st10{fill-rule:evenodd;clip-rule:evenodd;fill:#266363;}
	.st11{fill-rule:evenodd;clip-rule:evenodd;fill:#133B3B;}
	.st12{fill-rule:evenodd;clip-rule:evenodd;fill:#328282;}
	.st13{fill-rule:evenodd;clip-rule:evenodd;fill:#3D4034;}
	.st14{fill-rule:evenodd;clip-rule:evenodd;fill:#336666;}
	.st15{fill-rule:evenodd;clip-rule:evenodd;fill:url(#SVGID_1_);}
	.st16{fill-rule:evenodd;clip-rule:evenodd;fill:#00CCFF;}
	.st17{fill:#00CCFF;}
	.st18{fill-rule:evenodd;clip-rule:evenodd;fill:#277878;}
	.st19{fill-rule:evenodd;clip-rule:evenodd;fill:#1B494F;}
	.st20{fill-rule:evenodd;clip-rule:evenodd;fill:url(#SVGID_00000039106782362125793250000017031831347373164185_);}
	.st21{fill-rule:evenodd;clip-rule:evenodd;fill:#123236;}
	.st22{fill-rule:evenodd;clip-rule:evenodd;fill:#1C0B1B;}
	.st23{fill-rule:evenodd;clip-rule:evenodd;fill:#75652B;}
	.st24{fill-rule:evenodd;clip-rule:evenodd;fill:url(#SVGID_00000024724391973312201630000008242947594438525838_);}
	.st25{fill-rule:evenodd;clip-rule:evenodd;fill:#EBE2BB;}
	.st26{fill-rule:evenodd;clip-rule:evenodd;fill:#380D13;}
	.st27{fill-rule:evenodd;clip-rule:evenodd;fill:#611C1C;}
	.st28{fill-rule:evenodd;clip-rule:evenodd;fill:#370F31;}
	.st29{fill-rule:evenodd;clip-rule:evenodd;fill:#260D24;}
	.st30{fill-rule:evenodd;clip-rule:evenodd;fill:#F19B78;}
	.st31{fill-rule:evenodd;clip-rule:evenodd;fill:#E67056;}
	.st32{fill-rule:evenodd;clip-rule:evenodd;fill:#FFB294;}
	.st33{fill-rule:evenodd;clip-rule:evenodd;fill:url(#SVGID_00000043436723055507850810000008933432075671847298_);}
	.st34{fill-rule:evenodd;clip-rule:evenodd;fill:#BA3B1C;}
	.st35{fill-rule:evenodd;clip-rule:evenodd;fill:#F6CA96;}
	.st36{fill-rule:evenodd;clip-rule:evenodd;fill:#3B180F;}
	.st37{fill-rule:evenodd;clip-rule:evenodd;fill:#E66F55;}
	.st38{fill-rule:evenodd;clip-rule:evenodd;fill:#991E0E;}
	.st39{fill-rule:evenodd;clip-rule:evenodd;fill:#FFB496;}
	.st40{fill-rule:evenodd;clip-rule:evenodd;fill:#59211F;}
	.st41{fill-rule:evenodd;clip-rule:evenodd;fill:#F07464;}
	.st42{fill-rule:evenodd;clip-rule:evenodd;fill:#BD3E28;}
	.st43{fill-rule:evenodd;clip-rule:evenodd;fill:#A83200;}
	.st44{fill-rule:evenodd;clip-rule:evenodd;fill:#FF9587;}
	.st45{fill-rule:evenodd;clip-rule:evenodd;fill:#E65745;}
	.st46{fill-rule:evenodd;clip-rule:evenodd;fill:#D84B3C;}
	.st47{fill-rule:evenodd;clip-rule:evenodd;fill:#B83228;}
	.st48{fill-rule:evenodd;clip-rule:evenodd;fill:#FFFFF5;}
	.st49{fill-rule:evenodd;clip-rule:evenodd;fill:#FFFFCC;}
	.st50{fill-rule:evenodd;clip-rule:evenodd;fill:#D9D9C5;}
	.st51{fill-rule:evenodd;clip-rule:evenodd;fill:#0A0706;}
	.st52{fill-rule:evenodd;clip-rule:evenodd;fill:#8F7B35;}
	.st53{fill-rule:evenodd;clip-rule:evenodd;fill:#361433;}
	.st54{fill-rule:evenodd;clip-rule:evenodd;fill:#170916;}
	.st55{fill-rule:evenodd;clip-rule:evenodd;fill:#120711;}
	.st56{fill-rule:evenodd;clip-rule:evenodd;fill:#471817;}
	.st57{fill-rule:evenodd;clip-rule:evenodd;fill:#6E2F23;}
	.st58{fill-rule:evenodd;clip-rule:evenodd;fill:#E6654F;}
	.st59{fill-rule:evenodd;clip-rule:evenodd;fill:#FFC3A3;}
	.st60{fill-rule:evenodd;clip-rule:evenodd;fill:#E65D49;}
	.st61{fill-rule:evenodd;clip-rule:evenodd;fill:#FFDCC9;}
	.st62{fill-rule:evenodd;clip-rule:evenodd;fill:#5C4E1E;}
	.st63{fill-rule:evenodd;clip-rule:evenodd;fill:#4D1C49;}
	.st64{fill-rule:evenodd;clip-rule:evenodd;fill:url(#SVGID_00000068667798645548361240000015024768427665251730_);}
	.st65{fill-rule:evenodd;clip-rule:evenodd;fill:url(#SVGID_00000152952304499506081550000000676078521438482567_);}
	.st66{fill-rule:evenodd;clip-rule:evenodd;fill:url(#SVGID_00000150059940468239112070000011759475437637307282_);}
	.st67{fill-rule:evenodd;clip-rule:evenodd;fill:url(#SVGID_00000040561722199237424980000002593225444213157052_);}
	.st68{fill-rule:evenodd;clip-rule:evenodd;fill:none;stroke:#565656;stroke-width:7;stroke-linecap:round;stroke-miterlimit:10;}
	.st69{fill-rule:evenodd;clip-rule:evenodd;fill:url(#SVGID_00000075124009564126568290000017153091733936674432_);}
	.st70{fill-rule:evenodd;clip-rule:evenodd;fill:#D13C30;}
	.st71{fill-rule:evenodd;clip-rule:evenodd;fill:url(#SVGID_00000032606545810685971170000015815512538507535264_);}
	.st72{fill-rule:evenodd;clip-rule:evenodd;fill:url(#SVGID_00000034769256554282875760000013884570781514419084_);}
	.st73{fill-rule:evenodd;clip-rule:evenodd;fill:url(#SVGID_00000154393074387448149320000001410606747498920108_);}
	.st74{fill-rule:evenodd;clip-rule:evenodd;fill:url(#SVGID_00000178919895606694431030000010156263950856424833_);}
	.st75{fill-rule:evenodd;clip-rule:evenodd;fill:url(#SVGID_00000079462927147270767600000014516495238706785689_);}
	.st76{fill-rule:evenodd;clip-rule:evenodd;fill:url(#SVGID_00000124144877723936516510000016194646928079125152_);}
	.st77{fill-rule:evenodd;clip-rule:evenodd;fill:url(#SVGID_00000056428578037304018210000015304477032164583812_);}
</style>
<g>
	<path class="st68" d="M65.5,195.34c-6.67-31.92-12.7-87.05,11.59-144.39c4.68-11.05,18.02-25.9,24.77-31.04"/>
	<g>
		<path class="st30" d="M106.35,128.34c-1.38-5.9-47.12-9.19-63.65-11.55c-13.08-1.87-3.57,27.02-13.73,57.42
			c-1.18,3.52,7.89,20.4,7.89,20.4l53.67,1.64C90.53,196.25,111.45,128.58,106.35,128.34z"/>
		<path class="st31" d="M86.52,135.27l-12.84,44.95l-41.54-5.06l1.85,13.14l58.84,6.7c0,0,14.41-61.42,13.29-59.29
			C104.99,137.84,86.52,135.27,86.52,135.27z"/>
		<path class="st32" d="M105.25,137.99c-2.07-1.38-17.24-5.44-20.65,6.31c-3.41,11.75-11.52,38.4-11.52,38.4s10.39-42.39,8.85-45.91
			c-1.54-3.53-6.88-5.86-11.35-7.03c-4.47-1.17-17.51-3.27-17.51-3.27s51.67,6.17,52.86,6.92
			C107.12,134.17,105.25,137.99,105.25,137.99z"/>
		<linearGradient id="SVGID_1_" gradientUnits="userSpaceOnUse" x1="108.7238" y1="167.3274" x2="36.4521" y2="195.0699">
			<stop  offset="0" style="stop-color:#B92C21"/>
			<stop  offset="0.39" style="stop-color:#B92C21"/>
			<stop  offset="0.5" style="stop-color:#EC5C48"/>
			<stop  offset="1" style="stop-color:#EA7B5F"/>
		</linearGradient>
		<path class="st15" d="M79.08,180.52c-5.31,2.06-46.94-5.36-46.94-5.36l1.85,13.14l58.78,6.69l0.06,0.01l0.05-0.48l8.2-35.13
			l-11.9-3.84l-1.48,8.93C86.46,171.89,84.39,178.47,79.08,180.52z"/>
		<path class="st34" d="M64.13,135.22c-2.73,0.53-5.48,5.09-6.13,10.19c-0.65,5.09,1.03,8.79,3.76,8.26
			c2.73-0.53,5.48-5.09,6.13-10.19C68.54,138.39,66.86,134.69,64.13,135.22z"/>
		<path class="st35" d="M64.08,135.56c-2.63,0.51-5.25,4.66-5.84,9.25c-0.59,4.6,1.07,7.91,3.7,7.39c2.63-0.51,5.25-4.66,5.83-9.25
			C68.37,138.36,66.71,135.05,64.08,135.56z"/>
		<path class="st36" d="M62.13,143.17c1.09,0.81,1.37,2.83,0.64,4.52c-0.73,1.69-2.21,2.41-3.29,1.6c-1.09-0.81-1.37-2.83-0.64-4.52
			C59.57,143.08,61.05,142.36,62.13,143.17z"/>
		<path class="st35" d="M62.11,146.89c-0.14,0.26-0.06,0.65,0.17,0.86c0.24,0.21,0.54,0.17,0.69-0.09c0.14-0.26,0.06-0.65-0.17-0.86
			C62.56,146.58,62.25,146.62,62.11,146.89z"/>
		<path class="st37" d="M59.57,138.74c0.7-4.85,3.79-5.33,6.37-3.96c2.58,1.37,2.19,10.92,1.63,10.84L59.57,138.74z"/>
		<path class="st38" d="M61.83,137.32c-2.43,3.02-0.52,5.79,5.74,8.3C63.19,140.45,61.28,137.68,61.83,137.32z"/>
		<path class="st39" d="M64.96,134.32l-1.47,6.14l-2.28-0.98l1.4-4.65C62.61,134.84,63.82,134.18,64.96,134.32z"/>
		<path class="st40" d="M62.04,134.15c0,0,1.67-2.61,3.6-1.6c1.93,1.02,3.87,4.28,5.04,4.14c1.17-0.14,1.78-0.64,1.78-0.64
			C67.95,143.12,62.48,134,62.04,134.15z"/>
		<path class="st34" d="M49.59,131.64c-2.73,0.53-5.48,5.09-6.13,10.19c-0.65,5.09,1.03,8.79,3.76,8.26
			c2.73-0.53,5.48-5.09,6.13-10.19C54.01,134.8,52.32,131.1,49.59,131.64z"/>
		<path class="st35" d="M49.55,131.97c-2.63,0.51-5.25,4.66-5.84,9.25c-0.59,4.6,1.07,7.9,3.7,7.39c2.63-0.51,5.24-4.66,5.84-9.25
			C53.83,134.77,52.18,131.46,49.55,131.97z"/>
		<g>
			<path class="st41" d="M57.83,161.03l-14.79-1.92c0,0-3.17-0.6-3.36-2.68c-0.19-2.08,12.97-18.02,12.97-18.02l5.62,0.7
				l-1.56,16.07c0,0,3.3,0.52,3.83,1.9c0.53,1.38-0.31,3.98-0.31,3.98L57.83,161.03z"/>
			<path class="st42" d="M44.17,158.54c0,0-4.11-0.87-3.4-2.43c1.68-3.69,10.3-14.42,12.88-17.57l-1.01-0.13c0,0-1.48,1.8-3.45,4.26
				c-0.07,0.09-0.15,0.19-0.22,0.28c-1.77,2.22-3.88,4.93-5.64,7.36c-0.52,0.71-1,1.39-1.44,2.03c-1.36,1.98-2.26,3.53-2.21,4.09
				c0.19,2.08,3.36,2.68,3.36,2.68l14.79,1.92l2.4,0.03c0,0,0.04-0.13,0.1-0.34l-1.37-0.27L44.17,158.54z"/>
			<path class="st43" d="M50.89,158.67c0,0,1.83-1,3.51-0.57c1.69,0.43,2.08,1.51,2.08,1.51L50.89,158.67z"/>
			<path class="st44" d="M54.59,141.65c0,0,1.99,0.11,1.77,1.46c-0.22,1.35-5.88,10.06-7.25,10.75c-1.36,0.7-3.18-0.53-3.18-0.53
				L54.59,141.65L54.59,141.65z M44.52,155.8c0.33,0.11,0.51,0.45,0.41,0.76c-0.1,0.31-0.45,0.48-0.78,0.37
				c-0.33-0.11-0.51-0.44-0.41-0.76C43.84,155.86,44.19,155.69,44.52,155.8L44.52,155.8z M51.01,157.62
				c-0.05,0.35-1.15,0.4-2.47,0.12c-1.32-0.28-2.34-0.79-2.3-1.14c0.05-0.35,1.15-0.4,2.47-0.12
				C50.03,156.76,51.06,157.28,51.01,157.62z"/>
		</g>
		<path class="st36" d="M47.6,139.58c1.08,0.81,1.37,2.83,0.64,4.52c-0.73,1.69-2.21,2.41-3.29,1.6c-1.09-0.81-1.37-2.83-0.64-4.52
			C45.04,139.49,46.51,138.78,47.6,139.58z"/>
		<path class="st35" d="M47.58,143.3c-0.14,0.26-0.06,0.65,0.17,0.86c0.24,0.21,0.54,0.17,0.69-0.09c0.14-0.26,0.06-0.65-0.17-0.86
			C48.02,143,47.72,143.04,47.58,143.3z"/>
		<path class="st37" d="M44.05,138.97c1.18-5.93,5-9.5,7.35-7.77c2.05,1.51,1.67,3.11,1.81,4.54L44.05,138.97z"/>
		<path class="st38" d="M43.75,138.56c2.17,3.22,5.38,2.21,9.62-3.03C47.58,137.84,44.26,138.94,43.75,138.56z"/>
		<path class="st39" d="M50.42,130.73l-1.47,6.14l-2.28-0.98l1.4-4.65C48.08,131.25,49.29,130.59,50.42,130.73z"/>
		<path class="st40" d="M52.21,133.14c0,0,0.73-3.52-0.99-3.47c-1.72,0.06-4.87,2.4-5.44,1.66c-0.57-0.74-0.58-1.56-0.58-1.56
			C43.23,139.29,52.07,132.76,52.21,133.14z"/>
		<path class="st40" d="M76.9,147.5c0.78,2.37,2.34,4.1,2.34,4.1l-0.67,1.99c0.8,0.96,1.57,1.53,1.57,1.53l5.04,1.03
			c0.74-3.15,1.92-6.83,3.59-8.11c3.14-2.39,8.76-1.91,10.04,0.27c0.75,1.28-0.22,6.4-1.14,10.39l3.41,0.7c0,0,6.83-19.52,8.17-29.8
			c0.65-4.95-8.29-3.87-10.48-6.18c-2.35-2.48,1.35-5.92-1.79-9.19c-8.09-8.44-48.37-7.29-55.59-3.7
			C22.39,119.98,88.15,130.5,89.54,130c3.33-1.19,3.32,6.73-0.38,8.47c-3.49,1.65-8.21-1.38-11.22,2.32
			C77.5,143.32,77.1,145.79,76.9,147.5z"/>
		<path class="st45" d="M87.69,164.48l2.96-17.86c0,0,4.41-3.12,7.3,0.14c2.89,3.26,1.51,10.17-1.23,14.6
			C93.99,165.8,91.02,166.44,87.69,164.48z"/>
		<path class="st46" d="M91.16,162.1c0,0,1.14-2.27,2.25-2.57c1.11-0.3,1.82,0.75,2.63-0.13c0.81-0.88,1.89-9.28,1.89-9.28
			s-1.51-2.62-2.2-2.41c-0.69,0.21-6.13,5.2-6.13,5.2l-1.35,8.18L91.16,162.1z"/>
		<path class="st44" d="M96.67,145.6c-1.07-0.53-2.14-0.37-2.39,0.36c-0.25,0.74,0.41,1.76,1.48,2.3c1.07,0.53,2.14,0.37,2.39-0.36
			C98.4,147.16,97.74,146.13,96.67,145.6z"/>
		<path class="st47" d="M97.93,150.13c0,0-0.42-2.22-1.92-2.94c-1.5-0.72-6.04,3.51-6.04,3.51l-0.37,2.22l2.95-2.47
			c0.36,2.2,0.5,7.8-1.03,9.58c2.59-2.83,2.47-6.93,1.72-10.32l2.02-1.2c0.24,3.56,0.4,5.87-0.89,9.44c2.3-3.73,1.91-5.29,1.65-9.58
			L97.93,150.13z"/>
		<path class="st48" d="M49.74,163c0,0,14.35-1.73,17.18,1.35c2.35,2.56,1.97,5.91,0.88,7.69c-1.02,1.67-9.57-0.89-10.29-0.86
			c-0.72,0.04-1.23-3.81-1.23-3.81l-4.64-0.47L49.74,163z"/>
		<path class="st38" d="M66.92,164.35c0,0-1.75,2.79-1.89,2.97c-0.14,0.18-3.41,0.39-4.11,0.18c-0.7-0.21-1.16-0.98-1.16-0.98
			l-0.63,1.24l-2.85-0.39l12.44,1.83C68.72,169.2,68.93,166.23,66.92,164.35z"/>
		<path class="st56" d="M82.4,108.96c6.57,5.65,11.41,11.83,2.36,12.56c-10.57,0.86-30.46-2.46-44.14-5.12
			c-0.62-0.12-1.23-0.24-1.82-0.36c0.2,0.23,0.43,0.45,0.68,0.67c8.47,7.32,48.97,13.67,50.06,13.28c0.69-0.24,1.23-0.1,1.63,0.29
			c0.82-0.8,1.57-1.47,2.05-1.75c0.92-0.54,6.32-1.63,11.01-2.5c0.56-0.1,1.12-0.21,1.65-0.3c-2.59-0.81-5.9-1.05-7.12-2.34
			c-2.35-2.48,1.35-5.92-1.79-9.19C94.5,111.64,89.02,109.96,82.4,108.96z"/>
		<path class="st57" d="M104.23,126.05c-4.69,0.87-10.09,1.96-11.01,2.5c-0.48,0.28-1.23,0.94-2.05,1.75c0.25,0.24,0.44,0.59,0.58,1
			c0.41,1.22,0.31,3.03-0.33,4.57c-0.04,0.1-0.08,0.19-0.12,0.29c0.37-0.05,0.79-0.11,1.23-0.17c3.59-0.49,9.43-1.31,13.75-1.99
			c0.23-0.04,0.46-0.07,0.68-0.11c0.56-0.09,1.09-0.18,1.57-0.26c0.3-1.44,0.53-2.8,0.69-4.03c0.29-2.19-1.31-3.2-3.36-3.85
			L104.23,126.05z"/>
	</g>
	<path class="st68" d="M28.51,190.6c0,0,34.7,10.66,65.58,2.68"/>
</g>
</svg>
