<?xml version="1.0" encoding="utf-8"?>
<!-- Generator: Adobe Illustrator 26.2.1, SVG Export Plug-In . SVG Version: 6.00 Build 0)  -->
<svg version="1.1" id="robot" xmlns="http://www.w3.org/2000/svg" xmlns:xlink="http://www.w3.org/1999/xlink" x="0px" y="0px"
	 viewBox="0 0 130.66 96.05" style="enable-background:new 0 0 130.66 96.05;" xml:space="preserve">
<style type="text/css">
	.st0{fill-rule:evenodd;clip-rule:evenodd;fill:#1B211F;}
	.st1{fill-rule:evenodd;clip-rule:evenodd;fill:#2D3330;}
	.st2{fill-rule:evenodd;clip-rule:evenodd;fill:#444F49;}
	.st3{fill-rule:evenodd;clip-rule:evenodd;fill:#242B28;}
	.st4{fill-rule:evenodd;clip-rule:evenodd;fill:#2F3833;}
	.st5{fill-rule:evenodd;clip-rule:evenodd;fill:#131716;}
	.st6{fill-rule:evenodd;clip-rule:evenodd;fill:#3A9C9C;}
	.st7{fill-rule:evenodd;clip-rule:evenodd;fill:#2C7E82;}
	.st8{fill-rule:evenodd;clip-rule:evenodd;fill:#44BDBD;}
	.st9{fill-rule:evenodd;clip-rule:evenodd;fill:#232A27;}
	.st10{fill-rule:evenodd;clip-rule:evenodd;fill:#266363;}
	.st11{fill-rule:evenodd;clip-rule:evenodd;fill:#133B3B;}
	.st12{fill-rule:evenodd;clip-rule:evenodd;fill:#328282;}
	.st13{fill-rule:evenodd;clip-rule:evenodd;fill:#3D4034;}
	.st14{fill-rule:evenodd;clip-rule:evenodd;fill:#336666;}
	.st15{fill-rule:evenodd;clip-rule:evenodd;fill:url(#SVGID_1_);}
	.st16{fill-rule:evenodd;clip-rule:evenodd;fill:#00CCFF;}
	.st17{fill:#00CCFF;}
	.st18{fill-rule:evenodd;clip-rule:evenodd;fill:#277878;}
	.st19{fill-rule:evenodd;clip-rule:evenodd;fill:#1B494F;}
	.st20{fill-rule:evenodd;clip-rule:evenodd;fill:url(#SVGID_00000072991488627353633080000007836976674329752996_);}
	.st21{fill-rule:evenodd;clip-rule:evenodd;fill:#123236;}
	.st22{fill-rule:evenodd;clip-rule:evenodd;fill:#1C0B1B;}
	.st23{fill-rule:evenodd;clip-rule:evenodd;fill:#75652B;}
	.st24{fill-rule:evenodd;clip-rule:evenodd;fill:url(#SVGID_00000145778700996867639490000018256144019650367371_);}
	.st25{fill-rule:evenodd;clip-rule:evenodd;fill:#EBE2BB;}
	.st26{fill-rule:evenodd;clip-rule:evenodd;fill:#380D13;}
	.st27{fill-rule:evenodd;clip-rule:evenodd;fill:#611C1C;}
	.st28{fill-rule:evenodd;clip-rule:evenodd;fill:#370F31;}
	.st29{fill-rule:evenodd;clip-rule:evenodd;fill:#260D24;}
	.st30{fill-rule:evenodd;clip-rule:evenodd;fill:#F19B78;}
	.st31{fill-rule:evenodd;clip-rule:evenodd;fill:#E67056;}
	.st32{fill-rule:evenodd;clip-rule:evenodd;fill:#FFB294;}
	.st33{fill-rule:evenodd;clip-rule:evenodd;fill:url(#SVGID_00000049214236744171439140000001898481613901237125_);}
	.st34{fill-rule:evenodd;clip-rule:evenodd;fill:#BA3B1C;}
	.st35{fill-rule:evenodd;clip-rule:evenodd;fill:#F6CA96;}
	.st36{fill-rule:evenodd;clip-rule:evenodd;fill:#3B180F;}
	.st37{fill-rule:evenodd;clip-rule:evenodd;fill:#E66F55;}
	.st38{fill-rule:evenodd;clip-rule:evenodd;fill:#991E0E;}
	.st39{fill-rule:evenodd;clip-rule:evenodd;fill:#FFB496;}
	.st40{fill-rule:evenodd;clip-rule:evenodd;fill:#59211F;}
	.st41{fill-rule:evenodd;clip-rule:evenodd;fill:#F07464;}
	.st42{fill-rule:evenodd;clip-rule:evenodd;fill:#BD3E28;}
	.st43{fill-rule:evenodd;clip-rule:evenodd;fill:#A83200;}
	.st44{fill-rule:evenodd;clip-rule:evenodd;fill:#FF9587;}
	.st45{fill-rule:evenodd;clip-rule:evenodd;fill:#E65745;}
	.st46{fill-rule:evenodd;clip-rule:evenodd;fill:#D84B3C;}
	.st47{fill-rule:evenodd;clip-rule:evenodd;fill:#B83228;}
	.st48{fill-rule:evenodd;clip-rule:evenodd;fill:#FFFFF5;}
	.st49{fill-rule:evenodd;clip-rule:evenodd;fill:#FFFFCC;}
	.st50{fill-rule:evenodd;clip-rule:evenodd;fill:#D9D9C5;}
	.st51{fill-rule:evenodd;clip-rule:evenodd;fill:#0A0706;}
	.st52{fill-rule:evenodd;clip-rule:evenodd;fill:#8F7B35;}
	.st53{fill-rule:evenodd;clip-rule:evenodd;fill:#361433;}
	.st54{fill-rule:evenodd;clip-rule:evenodd;fill:#170916;}
	.st55{fill-rule:evenodd;clip-rule:evenodd;fill:#120711;}
	.st56{fill-rule:evenodd;clip-rule:evenodd;fill:#471817;}
	.st57{fill-rule:evenodd;clip-rule:evenodd;fill:#6E2F23;}
	.st58{fill-rule:evenodd;clip-rule:evenodd;fill:#E6654F;}
	.st59{fill-rule:evenodd;clip-rule:evenodd;fill:#FFC3A3;}
	.st60{fill-rule:evenodd;clip-rule:evenodd;fill:#E65D49;}
	.st61{fill-rule:evenodd;clip-rule:evenodd;fill:#FFDCC9;}
	.st62{fill-rule:evenodd;clip-rule:evenodd;fill:#5C4E1E;}
	.st63{fill-rule:evenodd;clip-rule:evenodd;fill:#4D1C49;}
	.st64{fill-rule:evenodd;clip-rule:evenodd;fill:url(#SVGID_00000080920830974088045250000017774671967940736170_);}
	.st65{fill-rule:evenodd;clip-rule:evenodd;fill:url(#SVGID_00000090989152747845392280000010921095283164406149_);}
	.st66{fill-rule:evenodd;clip-rule:evenodd;fill:url(#SVGID_00000036213870638664099990000012757638177088175531_);}
	.st67{fill-rule:evenodd;clip-rule:evenodd;fill:url(#SVGID_00000048463179487626731560000017333162820204097166_);}
	.st68{fill-rule:evenodd;clip-rule:evenodd;fill:none;stroke:#565656;stroke-width:7;stroke-linecap:round;stroke-miterlimit:10;}
	.st69{fill-rule:evenodd;clip-rule:evenodd;fill:url(#SVGID_00000084506648942647578750000002741775258656486847_);}
	.st70{fill-rule:evenodd;clip-rule:evenodd;fill:#D13C30;}
	.st71{fill-rule:evenodd;clip-rule:evenodd;fill:url(#SVGID_00000127727325666086695360000012912055344236538530_);}
	.st72{fill-rule:evenodd;clip-rule:evenodd;fill:url(#SVGID_00000068658184437685561010000012632432475224987324_);}
	.st73{fill-rule:evenodd;clip-rule:evenodd;fill:url(#SVGID_00000132056674518338979430000015829866953452459434_);}
	.st74{fill-rule:evenodd;clip-rule:evenodd;fill:url(#SVGID_00000062159664095708559570000010901270471100297611_);}
	.st75{fill-rule:evenodd;clip-rule:evenodd;fill:url(#SVGID_00000067947165244633230670000017937063390925297544_);}
	.st76{fill-rule:evenodd;clip-rule:evenodd;fill:url(#SVGID_00000139282030794096263690000008983838786565327767_);}
	.st77{fill-rule:evenodd;clip-rule:evenodd;fill:url(#SVGID_00000062190628194207954200000016769772853730147458_);}
</style>
<g>
	<path class="st29" d="M93.29,81.78L43.05,69.33c0,0-30.91-23.07-29.44-33.27c1.47-10.2,10.3-21.71,10.3-21.71l9.15-5.91l60.77,4.67
		l19.48,7.79C113.55,20.99,115.78,17.31,93.29,81.78z"/>
	<polygon class="st49" points="45.03,48.54 93.26,18.96 94.4,7.26 32.6,1.89 33.53,14.99 	"/>
	<path class="st50" d="M34.8,13.81c-1.35,0.09,8.1,8.94,8.1,8.94l4-17.18l10.52,1.17l4.02,16.69l31.82-4.46l-33.17,8.68l-2.53-4.89
		l2.84,16.36L46.37,50.29L40.7,35.9l5.4-13.66l-3.71,3.88L34.8,13.81z"/>
	<polygon class="st51" points="44.94,15.75 46.9,5.56 57.42,6.73 59.68,16.73 54.35,20.84 57.38,41.52 45.65,50.89 41.14,37.2 
		49.09,19.92 46.17,15.83 	"/>
	<polygon class="st54" points="26.53,17.1 21.97,31 28.59,35.77 22.53,35.78 40.24,54.89 34.09,62.13 86.62,44.21 81.56,39.15 
		92.8,41.96 99.74,15.47 96.18,44.77 89.05,43.2 93.27,47.21 36.17,63.87 31.92,60.25 36.35,55.01 19.06,33.93 24.19,34.3 
		19.06,30.13 	"/>
	<polygon class="st53" points="91.64,39.27 99.74,15.47 92.8,41.96 81.56,39.15 86.62,44.21 34.09,62.13 82.36,43.48 77.64,37.24 	
		"/>
	<polygon class="st53" points="29.98,10.44 24.18,30.16 30.92,36.57 25.56,35.77 40.24,54.89 22.53,35.78 26.39,34.18 21.97,31 	"/>
	<path class="st55" d="M53.92,66.9l-0.84,4.92l-9.97-2.72l4.07,4.07l7.43,4.29l12.55,3.36c0,0,9.95,2.29,9.95,4.3
		c0,2.01,5.86,10.1,5.86,10.1s-1.86-11.03-0.53-10.67c1.32,0.36,2.99-4.72,2.99-4.72l-26-7.06L53.92,66.9z"/>
</g>
</svg>
