<?xml version="1.0" encoding="utf-8"?>
<!-- Generator: Adobe Illustrator 26.2.1, SVG Export Plug-In . SVG Version: 6.00 Build 0)  -->
<svg version="1.1" id="robot" xmlns="http://www.w3.org/2000/svg" xmlns:xlink="http://www.w3.org/1999/xlink" x="0px" y="0px"
	 viewBox="0 0 38.01 114.98" style="enable-background:new 0 0 38.01 114.98;" xml:space="preserve">
<style type="text/css">
	.st0{fill-rule:evenodd;clip-rule:evenodd;fill:#1B211F;}
	.st1{fill-rule:evenodd;clip-rule:evenodd;fill:#2D3330;}
	.st2{fill-rule:evenodd;clip-rule:evenodd;fill:#444F49;}
	.st3{fill-rule:evenodd;clip-rule:evenodd;fill:#242B28;}
	.st4{fill-rule:evenodd;clip-rule:evenodd;fill:#2F3833;}
	.st5{fill-rule:evenodd;clip-rule:evenodd;fill:#131716;}
	.st6{fill-rule:evenodd;clip-rule:evenodd;fill:#3A9C9C;}
	.st7{fill-rule:evenodd;clip-rule:evenodd;fill:#2C7E82;}
	.st8{fill-rule:evenodd;clip-rule:evenodd;fill:#44BDBD;}
	.st9{fill-rule:evenodd;clip-rule:evenodd;fill:#232A27;}
	.st10{fill-rule:evenodd;clip-rule:evenodd;fill:#266363;}
	.st11{fill-rule:evenodd;clip-rule:evenodd;fill:#133B3B;}
	.st12{fill-rule:evenodd;clip-rule:evenodd;fill:#328282;}
	.st13{fill-rule:evenodd;clip-rule:evenodd;fill:#3D4034;}
	.st14{fill-rule:evenodd;clip-rule:evenodd;fill:#336666;}
	.st15{fill-rule:evenodd;clip-rule:evenodd;fill:url(#SVGID_1_);}
	.st16{fill-rule:evenodd;clip-rule:evenodd;fill:#00CCFF;}
	.st17{fill:#00CCFF;}
	.st18{fill-rule:evenodd;clip-rule:evenodd;fill:#277878;}
	.st19{fill-rule:evenodd;clip-rule:evenodd;fill:#1B494F;}
	.st20{fill-rule:evenodd;clip-rule:evenodd;fill:url(#SVGID_00000034091735843042794460000007124919016531202730_);}
	.st21{fill-rule:evenodd;clip-rule:evenodd;fill:#123236;}
	.st22{fill-rule:evenodd;clip-rule:evenodd;fill:#1C0B1B;}
	.st23{fill-rule:evenodd;clip-rule:evenodd;fill:#75652B;}
	.st24{fill-rule:evenodd;clip-rule:evenodd;fill:url(#SVGID_00000119085036245317381200000013801907095433606805_);}
	.st25{fill-rule:evenodd;clip-rule:evenodd;fill:#EBE2BB;}
	.st26{fill-rule:evenodd;clip-rule:evenodd;fill:#380D13;}
	.st27{fill-rule:evenodd;clip-rule:evenodd;fill:#611C1C;}
	.st28{fill-rule:evenodd;clip-rule:evenodd;fill:#370F31;}
	.st29{fill-rule:evenodd;clip-rule:evenodd;fill:#260D24;}
	.st30{fill-rule:evenodd;clip-rule:evenodd;fill:#F19B78;}
	.st31{fill-rule:evenodd;clip-rule:evenodd;fill:#E67056;}
	.st32{fill-rule:evenodd;clip-rule:evenodd;fill:#FFB294;}
	.st33{fill-rule:evenodd;clip-rule:evenodd;fill:url(#SVGID_00000181057648474527521740000006843913089107584166_);}
	.st34{fill-rule:evenodd;clip-rule:evenodd;fill:#BA3B1C;}
	.st35{fill-rule:evenodd;clip-rule:evenodd;fill:#F6CA96;}
	.st36{fill-rule:evenodd;clip-rule:evenodd;fill:#3B180F;}
	.st37{fill-rule:evenodd;clip-rule:evenodd;fill:#E66F55;}
	.st38{fill-rule:evenodd;clip-rule:evenodd;fill:#991E0E;}
	.st39{fill-rule:evenodd;clip-rule:evenodd;fill:#FFB496;}
	.st40{fill-rule:evenodd;clip-rule:evenodd;fill:#59211F;}
	.st41{fill-rule:evenodd;clip-rule:evenodd;fill:#F07464;}
	.st42{fill-rule:evenodd;clip-rule:evenodd;fill:#BD3E28;}
	.st43{fill-rule:evenodd;clip-rule:evenodd;fill:#A83200;}
	.st44{fill-rule:evenodd;clip-rule:evenodd;fill:#FF9587;}
	.st45{fill-rule:evenodd;clip-rule:evenodd;fill:#E65745;}
	.st46{fill-rule:evenodd;clip-rule:evenodd;fill:#D84B3C;}
	.st47{fill-rule:evenodd;clip-rule:evenodd;fill:#B83228;}
	.st48{fill-rule:evenodd;clip-rule:evenodd;fill:#FFFFF5;}
	.st49{fill-rule:evenodd;clip-rule:evenodd;fill:#FFFFCC;}
	.st50{fill-rule:evenodd;clip-rule:evenodd;fill:#D9D9C5;}
	.st51{fill-rule:evenodd;clip-rule:evenodd;fill:#0A0706;}
	.st52{fill-rule:evenodd;clip-rule:evenodd;fill:#8F7B35;}
	.st53{fill-rule:evenodd;clip-rule:evenodd;fill:#361433;}
	.st54{fill-rule:evenodd;clip-rule:evenodd;fill:#170916;}
	.st55{fill-rule:evenodd;clip-rule:evenodd;fill:#120711;}
	.st56{fill-rule:evenodd;clip-rule:evenodd;fill:#471817;}
	.st57{fill-rule:evenodd;clip-rule:evenodd;fill:#6E2F23;}
	.st58{fill-rule:evenodd;clip-rule:evenodd;fill:#E6654F;}
	.st59{fill-rule:evenodd;clip-rule:evenodd;fill:#FFC3A3;}
	.st60{fill-rule:evenodd;clip-rule:evenodd;fill:#E65D49;}
	.st61{fill-rule:evenodd;clip-rule:evenodd;fill:#FFDCC9;}
	.st62{fill-rule:evenodd;clip-rule:evenodd;fill:#5C4E1E;}
	.st63{fill-rule:evenodd;clip-rule:evenodd;fill:#4D1C49;}
	.st64{fill-rule:evenodd;clip-rule:evenodd;fill:url(#SVGID_00000044148047638294050170000006954563628112084927_);}
	.st65{fill-rule:evenodd;clip-rule:evenodd;fill:url(#SVGID_00000096737861220630400620000007521166945919423665_);}
	.st66{fill-rule:evenodd;clip-rule:evenodd;fill:url(#SVGID_00000061467024615743685450000004538216552220562597_);}
	.st67{fill-rule:evenodd;clip-rule:evenodd;fill:url(#SVGID_00000073692785138031600600000016216350140027585192_);}
	.st68{fill-rule:evenodd;clip-rule:evenodd;fill:none;stroke:#565656;stroke-width:7;stroke-linecap:round;stroke-miterlimit:10;}
	.st69{fill-rule:evenodd;clip-rule:evenodd;fill:url(#SVGID_00000141451119856719423980000017210350346205038505_);}
	.st70{fill-rule:evenodd;clip-rule:evenodd;fill:#D13C30;}
	.st71{fill-rule:evenodd;clip-rule:evenodd;fill:url(#SVGID_00000113335389057045875160000001495566495165079457_);}
	.st72{fill-rule:evenodd;clip-rule:evenodd;fill:url(#SVGID_00000119084057760798030710000000077090642884545935_);}
	.st73{fill-rule:evenodd;clip-rule:evenodd;fill:url(#SVGID_00000140705984884757306170000012728308032996676245_);}
	.st74{fill-rule:evenodd;clip-rule:evenodd;fill:url(#SVGID_00000114779815537829088330000015894116329697919625_);}
	.st75{fill-rule:evenodd;clip-rule:evenodd;fill:url(#SVGID_00000142173016178833743420000017642403009160216242_);}
	.st76{fill-rule:evenodd;clip-rule:evenodd;fill:url(#SVGID_00000062189469198422699460000008025437873419838374_);}
	.st77{fill-rule:evenodd;clip-rule:evenodd;fill:url(#SVGID_00000063631334397196756160000016629949544259379340_);}
</style>
<g>
	<path class="st53" d="M13.17,50.32c0,0-2.28,2.41-1.39,4.57c0.89,2.15,5.37,0.58,5.37,0.58l-4.72,26.47l10.32,2.87l8.19-45.39
		l0.94-15.66L29.04,4.19L13.17,50.32"/>
	<path class="st63" d="M12.15,50.46c0,0-0.13,1.07-0.48,2.55c-0.14,0.6-0.15,1.25,0.11,1.88c0.89,2.15,5.37,0.58,5.37,0.58
		l-0.87,4.9l-3.67,20.58l0.33,1.14l0.5,0.14l-0.26-1.28l3.68-0.3c0.5-4.44,1.39-12.22,2.2-19.32c0.88-7.66,1.68-14.53,1.84-15.54
		l2.89-26.37"/>
	<path class="st30" d="M14.93,82.96c0,0-4.92,1.13-5.77,4.59C8.3,91,8.65,96.55,6.69,98.3c-1.97,1.75-5.02,1.94-5.02,1.94
		c2.21,9.9,8.62,3.24,11.26-1.28c0,0,1.08-1.66,2.25,0.35c1.16,2.01-2.67,7.78-1.25,10.4c1.42,2.63,4.19,2.8,5.46,0.11
		c0.24-0.51,0.56-3.48,1.57-2.5c1.47,1.42-0.92-0.38,0.65,0.81c1.57,1.18,6.44-0.23,5.83-4.31c-1.7-11.32-0.38,1.37,3.5-1.4
		c1.84-1.31,5.69-2.07,1.73-5.84c-4.86-4.62-7.77-12.16-9.46-12.8l-3.9-1.48L14.93,82.96z"/>
	<path class="st60" d="M14.94,82.76c0,0-4.71,1.08-5.53,4.39c-0.81,3.31,0.3,8.62-1.58,10.3c-1.88,1.68-5.03,2.74-5.03,2.74
		c2.12,9.48,7.69,2.23,10.22-2.1c0,0,1.04-1.59,2.15,0.34c1.11,1.93-2.56,7.44-1.2,9.96c1.36,2.52,4.01,2.68,5.23,0.1
		c0.23-0.49,0.53-3.33,1.5-2.39c1.41,1.36-0.89-0.36,0.62,0.77c1.51,1.13,6.16-0.22,5.58-4.13c-1.62-10.84-0.37,1.31,3.35-1.34
		c1.76-1.25,5.45-1.99,1.65-5.6c-4.65-4.43-7.44-11.64-9.06-12.25l-3.73-1.42L14.94,82.76z"/>
	<path class="st32" d="M7.97,100.63l-3.36,1.85l-1.36-2.46c0.72-0.27,2.15-0.87,3.43-1.71l1.1,2.01L7.97,100.63z"/>
	<path class="st30" d="M26.9,91.04c0.23,0.89,0.51,1.73,0.97,2.43c-0.4,0.55-1.01,1.19-1.81,1.43c-1.52,0.47-1.36,0.22-2.59,1.2
		c-0.78,0.63-1.38,0.23-2.07,0.02c-0.39-0.12-0.81-0.17-1.3,0.06c-1.37,0.63-1.75,1.98-2.85,1.35c-1.09-0.63-1.21-2.19-2.47-2.37
		c-0.21-0.03-0.41-0.06-0.6-0.09c-0.32-0.05-0.61-0.11-0.87-0.23c-0.5-0.23-0.91-0.67-1.25-1.62c-0.42-1.21-0.49-5.01-0.5-7.26
		c0-0.53,0-0.97,0.01-1.27c0-0.28,0.01-0.45,0.01-0.45l0.64-0.18l0.07-0.02l2.1-0.59l4.38-1.24l0.34-0.1l3.73,1.42
		c0.65,0.25,1.17,0.58,1.6,0.97c0.67,0.62,1.1,1.41,1.42,2.27C26.35,88.13,26.55,89.65,26.9,91.04z"/>
	<path class="st61" d="M18.67,97.74c-0.12,0.82-0.53,1.44-0.92,1.39c-0.39-0.06-0.61-0.77-0.49-1.59c0.12-0.82,0.53-1.44,0.92-1.39
		C18.57,96.21,18.79,96.92,18.67,97.74z"/>
	<polygon class="st49" points="12.52,81.41 23.18,82.03 23.18,83.78 11.93,84.37 	"/>
</g>
</svg>
