<?xml version="1.0" encoding="utf-8"?>
<!-- Generator: Adobe Illustrator 26.2.1, SVG Export Plug-In . SVG Version: 6.00 Build 0)  -->
<svg version="1.1" id="robot" xmlns="http://www.w3.org/2000/svg" xmlns:xlink="http://www.w3.org/1999/xlink" x="0px" y="0px"
	 viewBox="0 0 36.69 112.43" style="enable-background:new 0 0 36.69 112.43;" xml:space="preserve">
<style type="text/css">
	.st0{fill-rule:evenodd;clip-rule:evenodd;fill:#1B211F;}
	.st1{fill-rule:evenodd;clip-rule:evenodd;fill:#2D3330;}
	.st2{fill-rule:evenodd;clip-rule:evenodd;fill:#444F49;}
	.st3{fill-rule:evenodd;clip-rule:evenodd;fill:#242B28;}
	.st4{fill-rule:evenodd;clip-rule:evenodd;fill:#2F3833;}
	.st5{fill-rule:evenodd;clip-rule:evenodd;fill:#131716;}
	.st6{fill-rule:evenodd;clip-rule:evenodd;fill:#3A9C9C;}
	.st7{fill-rule:evenodd;clip-rule:evenodd;fill:#2C7E82;}
	.st8{fill-rule:evenodd;clip-rule:evenodd;fill:#44BDBD;}
	.st9{fill-rule:evenodd;clip-rule:evenodd;fill:#232A27;}
	.st10{fill-rule:evenodd;clip-rule:evenodd;fill:#266363;}
	.st11{fill-rule:evenodd;clip-rule:evenodd;fill:#133B3B;}
	.st12{fill-rule:evenodd;clip-rule:evenodd;fill:#328282;}
	.st13{fill-rule:evenodd;clip-rule:evenodd;fill:#3D4034;}
	.st14{fill-rule:evenodd;clip-rule:evenodd;fill:#336666;}
	.st15{fill-rule:evenodd;clip-rule:evenodd;fill:url(#SVGID_1_);}
	.st16{fill-rule:evenodd;clip-rule:evenodd;fill:#00CCFF;}
	.st17{fill:#00CCFF;}
	.st18{fill-rule:evenodd;clip-rule:evenodd;fill:#277878;}
	.st19{fill-rule:evenodd;clip-rule:evenodd;fill:#1B494F;}
	.st20{fill-rule:evenodd;clip-rule:evenodd;fill:url(#SVGID_00000018208618112718824640000003719983381478058883_);}
	.st21{fill-rule:evenodd;clip-rule:evenodd;fill:#123236;}
	.st22{fill-rule:evenodd;clip-rule:evenodd;fill:#1C0B1B;}
	.st23{fill-rule:evenodd;clip-rule:evenodd;fill:#75652B;}
	.st24{fill-rule:evenodd;clip-rule:evenodd;fill:url(#SVGID_00000170989491774221296710000005054514125240382644_);}
	.st25{fill-rule:evenodd;clip-rule:evenodd;fill:#EBE2BB;}
	.st26{fill-rule:evenodd;clip-rule:evenodd;fill:#380D13;}
	.st27{fill-rule:evenodd;clip-rule:evenodd;fill:#611C1C;}
	.st28{fill-rule:evenodd;clip-rule:evenodd;fill:#370F31;}
	.st29{fill-rule:evenodd;clip-rule:evenodd;fill:#260D24;}
	.st30{fill-rule:evenodd;clip-rule:evenodd;fill:#F19B78;}
	.st31{fill-rule:evenodd;clip-rule:evenodd;fill:#E67056;}
	.st32{fill-rule:evenodd;clip-rule:evenodd;fill:#FFB294;}
	.st33{fill-rule:evenodd;clip-rule:evenodd;fill:url(#SVGID_00000100363484634232857260000006196339658386497164_);}
	.st34{fill-rule:evenodd;clip-rule:evenodd;fill:#BA3B1C;}
	.st35{fill-rule:evenodd;clip-rule:evenodd;fill:#F6CA96;}
	.st36{fill-rule:evenodd;clip-rule:evenodd;fill:#3B180F;}
	.st37{fill-rule:evenodd;clip-rule:evenodd;fill:#E66F55;}
	.st38{fill-rule:evenodd;clip-rule:evenodd;fill:#991E0E;}
	.st39{fill-rule:evenodd;clip-rule:evenodd;fill:#FFB496;}
	.st40{fill-rule:evenodd;clip-rule:evenodd;fill:#59211F;}
	.st41{fill-rule:evenodd;clip-rule:evenodd;fill:#F07464;}
	.st42{fill-rule:evenodd;clip-rule:evenodd;fill:#BD3E28;}
	.st43{fill-rule:evenodd;clip-rule:evenodd;fill:#A83200;}
	.st44{fill-rule:evenodd;clip-rule:evenodd;fill:#FF9587;}
	.st45{fill-rule:evenodd;clip-rule:evenodd;fill:#E65745;}
	.st46{fill-rule:evenodd;clip-rule:evenodd;fill:#D84B3C;}
	.st47{fill-rule:evenodd;clip-rule:evenodd;fill:#B83228;}
	.st48{fill-rule:evenodd;clip-rule:evenodd;fill:#FFFFF5;}
	.st49{fill-rule:evenodd;clip-rule:evenodd;fill:#FFFFCC;}
	.st50{fill-rule:evenodd;clip-rule:evenodd;fill:#D9D9C5;}
	.st51{fill-rule:evenodd;clip-rule:evenodd;fill:#0A0706;}
	.st52{fill-rule:evenodd;clip-rule:evenodd;fill:#8F7B35;}
	.st53{fill-rule:evenodd;clip-rule:evenodd;fill:#361433;}
	.st54{fill-rule:evenodd;clip-rule:evenodd;fill:#170916;}
	.st55{fill-rule:evenodd;clip-rule:evenodd;fill:#120711;}
	.st56{fill-rule:evenodd;clip-rule:evenodd;fill:#471817;}
	.st57{fill-rule:evenodd;clip-rule:evenodd;fill:#6E2F23;}
	.st58{fill-rule:evenodd;clip-rule:evenodd;fill:#E6654F;}
	.st59{fill-rule:evenodd;clip-rule:evenodd;fill:#FFC3A3;}
	.st60{fill-rule:evenodd;clip-rule:evenodd;fill:#E65D49;}
	.st61{fill-rule:evenodd;clip-rule:evenodd;fill:#FFDCC9;}
	.st62{fill-rule:evenodd;clip-rule:evenodd;fill:#5C4E1E;}
	.st63{fill-rule:evenodd;clip-rule:evenodd;fill:#4D1C49;}
	.st64{fill-rule:evenodd;clip-rule:evenodd;fill:url(#SVGID_00000134248389926860030910000001267121105232022922_);}
	.st65{fill-rule:evenodd;clip-rule:evenodd;fill:url(#SVGID_00000180340613365655343730000008970195516356421514_);}
	.st66{fill-rule:evenodd;clip-rule:evenodd;fill:url(#SVGID_00000026861808354264510490000016671145887884027821_);}
	.st67{fill-rule:evenodd;clip-rule:evenodd;fill:url(#SVGID_00000134244169010962513920000013735729461748182920_);}
	.st68{fill-rule:evenodd;clip-rule:evenodd;fill:none;stroke:#565656;stroke-width:7;stroke-linecap:round;stroke-miterlimit:10;}
	.st69{fill-rule:evenodd;clip-rule:evenodd;fill:url(#SVGID_00000105411927937921872960000000508683753867744953_);}
	.st70{fill-rule:evenodd;clip-rule:evenodd;fill:#D13C30;}
	.st71{fill-rule:evenodd;clip-rule:evenodd;fill:url(#SVGID_00000050651565265367007120000012927777783048637347_);}
	.st72{fill-rule:evenodd;clip-rule:evenodd;fill:url(#SVGID_00000093168072479707259140000012874495673127473567_);}
	.st73{fill-rule:evenodd;clip-rule:evenodd;fill:url(#SVGID_00000132787798914771135900000016788871821135840135_);}
	.st74{fill-rule:evenodd;clip-rule:evenodd;fill:url(#SVGID_00000033343870230706610830000017602466916954666899_);}
	.st75{fill-rule:evenodd;clip-rule:evenodd;fill:url(#SVGID_00000085971457452176900830000009306413558382013319_);}
	.st76{fill-rule:evenodd;clip-rule:evenodd;fill:url(#SVGID_00000026874314809855464630000014504843266830946232_);}
	.st77{fill-rule:evenodd;clip-rule:evenodd;fill:url(#SVGID_00000135652674548000830020000015406830025994931329_);}
</style>
<g>
	<path class="st22" d="M32.17,49.43c0,0,1.78,2.81,0.49,4.75c-1.29,1.94-5.38-0.46-5.38-0.46L26.82,80.6l-10.68,0.83l0.7-46.12
		l2.09-15.55l9.31-17.84L32.17,49.43"/>
	<path class="st63" d="M33.15,49.77c0,0-0.08,1.08-0.02,2.59c0.02,0.62-0.09,1.26-0.47,1.82c-1.29,1.94-5.38-0.46-5.38-0.46
		l-0.09,4.97l-0.36,20.9l-0.54,1.05l-0.52,0.04l0.5-1.21l-3.56-1c0.36-4.45,0.99-12.26,1.55-19.38c0.61-7.69,1.14-14.58,1.18-15.61
		l2.24-26.43"/>
	<path class="st30" d="M24.17,81.12c0,0,4.61,2.06,4.78,5.61c0.17,3.55-1.24,8.94,0.35,11.04c1.59,2.1,4.56,2.87,4.56,2.87
		c-4.08,9.29-9.08,1.52-10.8-3.42c0,0-0.74-1.84-2.27-0.09c-1.53,1.75,1.13,8.14-0.77,10.45c-1.9,2.31-4.65,1.94-5.38-0.95
		c-0.14-0.55,0.12-3.52-1.06-2.75c-1.72,1.11,0.98-0.19-0.79,0.67c-1.77,0.86-6.27-1.46-4.89-5.35c3.84-10.79,0.11,1.41-3.16-2.04
		c-1.55-1.64-5.19-3.13-0.57-6.07c5.66-3.6,9.96-10.43,11.75-10.74l4.11-0.7L24.17,81.12z"/>
	<path class="st60" d="M24.2,80.92c0,0,4.42,1.97,4.58,5.37c0.16,3.4-1.95,8.4-0.43,10.41c1.52,2.01,4.41,3.66,4.41,3.66
		c-3.9,8.89-7.98,0.71-9.62-4.03c0,0-0.71-1.76-2.17-0.08c-1.46,1.68,1.08,7.8-0.74,10c-1.82,2.21-4.45,1.86-5.15-0.91
		c-0.13-0.53,0.12-3.37-1.01-2.63c-1.64,1.07,0.94-0.18-0.76,0.64c-1.7,0.82-6.01-1.4-4.68-5.12c3.68-10.33,0.11,1.35-3.03-1.96
		c-1.49-1.57-4.96-3-0.54-5.81c5.42-3.45,9.54-9.99,11.25-10.28l3.94-0.67L24.2,80.92z"/>
	<path class="st30" d="M10.87,86.75c-0.39,0.83-0.83,1.59-1.42,2.2c0.29,0.62,0.76,1.36,1.5,1.75c1.4,0.76,1.29,0.48,2.31,1.68
		c0.65,0.77,1.31,0.49,2.03,0.42c0.4-0.04,0.82-0.01,1.27,0.31c1.23,0.88,1.34,2.28,2.53,1.87c1.19-0.4,1.61-1.92,2.88-1.85
		c0.21,0.01,0.41,0.02,0.61,0.03c0.32,0.01,0.62,0.01,0.9-0.06c0.54-0.13,1.02-0.48,1.54-1.35c0.65-1.1,1.45-4.82,1.88-7.03
		c0.1-0.52,0.18-0.95,0.24-1.24c0.05-0.28,0.08-0.44,0.08-0.44l-0.59-0.3l-0.06-0.03l-1.94-0.98l-4.06-2.06l-0.32-0.16l-3.94,0.67
		c-0.68,0.12-1.26,0.34-1.75,0.65c-0.78,0.48-1.35,1.17-1.83,1.95C11.97,84,11.48,85.45,10.87,86.75z"/>
	<path class="st61" d="M17.66,94.92c-0.04,0.83,0.25,1.52,0.64,1.54c0.39,0.02,0.74-0.64,0.78-1.47c0.04-0.83-0.25-1.52-0.64-1.54
		C18.05,93.43,17.7,94.09,17.66,94.92z"/>
	<polygon class="st49" points="26.83,80.07 16.25,78.62 15.91,80.35 26.84,83.08 	"/>
</g>
</svg>
