<?xml version="1.0" encoding="utf-8"?>
<!-- Generator: Adobe Illustrator 26.2.1, SVG Export Plug-In . SVG Version: 6.00 Build 0)  -->
<svg version="1.1" id="robot" xmlns="http://www.w3.org/2000/svg" xmlns:xlink="http://www.w3.org/1999/xlink" x="0px" y="0px"
	 viewBox="0 0 57.41 128.12" style="enable-background:new 0 0 57.41 128.12;" xml:space="preserve">
<style type="text/css">
	.st0{fill-rule:evenodd;clip-rule:evenodd;fill:#1B211F;}
	.st1{fill-rule:evenodd;clip-rule:evenodd;fill:#2D3330;}
	.st2{fill-rule:evenodd;clip-rule:evenodd;fill:#444F49;}
	.st3{fill-rule:evenodd;clip-rule:evenodd;fill:#242B28;}
	.st4{fill-rule:evenodd;clip-rule:evenodd;fill:#2F3833;}
	.st5{fill-rule:evenodd;clip-rule:evenodd;fill:#131716;}
	.st6{fill-rule:evenodd;clip-rule:evenodd;fill:#3A9C9C;}
	.st7{fill-rule:evenodd;clip-rule:evenodd;fill:#2C7E82;}
	.st8{fill-rule:evenodd;clip-rule:evenodd;fill:#44BDBD;}
	.st9{fill-rule:evenodd;clip-rule:evenodd;fill:#232A27;}
	.st10{fill-rule:evenodd;clip-rule:evenodd;fill:#266363;}
	.st11{fill-rule:evenodd;clip-rule:evenodd;fill:#133B3B;}
	.st12{fill-rule:evenodd;clip-rule:evenodd;fill:#328282;}
	.st13{fill-rule:evenodd;clip-rule:evenodd;fill:#3D4034;}
	.st14{fill-rule:evenodd;clip-rule:evenodd;fill:#336666;}
	.st15{fill-rule:evenodd;clip-rule:evenodd;fill:url(#SVGID_1_);}
	.st16{fill-rule:evenodd;clip-rule:evenodd;fill:#00CCFF;}
	.st17{fill:#00CCFF;}
	.st18{fill-rule:evenodd;clip-rule:evenodd;fill:#277878;}
	.st19{fill-rule:evenodd;clip-rule:evenodd;fill:#1B494F;}
	.st20{fill-rule:evenodd;clip-rule:evenodd;fill:url(#SVGID_00000005231534174333946840000016549800529256116110_);}
	.st21{fill-rule:evenodd;clip-rule:evenodd;fill:#123236;}
	.st22{fill-rule:evenodd;clip-rule:evenodd;fill:#1C0B1B;}
	.st23{fill-rule:evenodd;clip-rule:evenodd;fill:#75652B;}
	.st24{fill-rule:evenodd;clip-rule:evenodd;fill:url(#SVGID_00000048488737621390932400000012467092319250286771_);}
	.st25{fill-rule:evenodd;clip-rule:evenodd;fill:#EBE2BB;}
	.st26{fill-rule:evenodd;clip-rule:evenodd;fill:#380D13;}
	.st27{fill-rule:evenodd;clip-rule:evenodd;fill:#611C1C;}
	.st28{fill-rule:evenodd;clip-rule:evenodd;fill:#370F31;}
	.st29{fill-rule:evenodd;clip-rule:evenodd;fill:#260D24;}
	.st30{fill-rule:evenodd;clip-rule:evenodd;fill:#F19B78;}
	.st31{fill-rule:evenodd;clip-rule:evenodd;fill:#E67056;}
	.st32{fill-rule:evenodd;clip-rule:evenodd;fill:#FFB294;}
	.st33{fill-rule:evenodd;clip-rule:evenodd;fill:url(#SVGID_00000005981674434256533310000017576099555286876813_);}
	.st34{fill-rule:evenodd;clip-rule:evenodd;fill:#BA3B1C;}
	.st35{fill-rule:evenodd;clip-rule:evenodd;fill:#F6CA96;}
	.st36{fill-rule:evenodd;clip-rule:evenodd;fill:#3B180F;}
	.st37{fill-rule:evenodd;clip-rule:evenodd;fill:#E66F55;}
	.st38{fill-rule:evenodd;clip-rule:evenodd;fill:#991E0E;}
	.st39{fill-rule:evenodd;clip-rule:evenodd;fill:#FFB496;}
	.st40{fill-rule:evenodd;clip-rule:evenodd;fill:#59211F;}
	.st41{fill-rule:evenodd;clip-rule:evenodd;fill:#F07464;}
	.st42{fill-rule:evenodd;clip-rule:evenodd;fill:#BD3E28;}
	.st43{fill-rule:evenodd;clip-rule:evenodd;fill:#A83200;}
	.st44{fill-rule:evenodd;clip-rule:evenodd;fill:#FF9587;}
	.st45{fill-rule:evenodd;clip-rule:evenodd;fill:#E65745;}
	.st46{fill-rule:evenodd;clip-rule:evenodd;fill:#D84B3C;}
	.st47{fill-rule:evenodd;clip-rule:evenodd;fill:#B83228;}
	.st48{fill-rule:evenodd;clip-rule:evenodd;fill:#FFFFF5;}
	.st49{fill-rule:evenodd;clip-rule:evenodd;fill:#FFFFCC;}
	.st50{fill-rule:evenodd;clip-rule:evenodd;fill:#D9D9C5;}
	.st51{fill-rule:evenodd;clip-rule:evenodd;fill:#0A0706;}
	.st52{fill-rule:evenodd;clip-rule:evenodd;fill:#8F7B35;}
	.st53{fill-rule:evenodd;clip-rule:evenodd;fill:#361433;}
	.st54{fill-rule:evenodd;clip-rule:evenodd;fill:#170916;}
	.st55{fill-rule:evenodd;clip-rule:evenodd;fill:#120711;}
	.st56{fill-rule:evenodd;clip-rule:evenodd;fill:#471817;}
	.st57{fill-rule:evenodd;clip-rule:evenodd;fill:#6E2F23;}
	.st58{fill-rule:evenodd;clip-rule:evenodd;fill:#E6654F;}
	.st59{fill-rule:evenodd;clip-rule:evenodd;fill:#FFC3A3;}
	.st60{fill-rule:evenodd;clip-rule:evenodd;fill:#E65D49;}
	.st61{fill-rule:evenodd;clip-rule:evenodd;fill:#FFDCC9;}
	.st62{fill-rule:evenodd;clip-rule:evenodd;fill:#5C4E1E;}
	.st63{fill-rule:evenodd;clip-rule:evenodd;fill:#4D1C49;}
	.st64{fill-rule:evenodd;clip-rule:evenodd;fill:url(#SVGID_00000160882655381100146300000011825589721352143749_);}
	.st65{fill-rule:evenodd;clip-rule:evenodd;fill:url(#SVGID_00000151515542311215709120000005680171883111177883_);}
	.st66{fill-rule:evenodd;clip-rule:evenodd;fill:url(#SVGID_00000150806283520966942620000013026296560500821428_);}
	.st67{fill-rule:evenodd;clip-rule:evenodd;fill:url(#SVGID_00000151542773614206451490000009010267769797124515_);}
	.st68{fill-rule:evenodd;clip-rule:evenodd;fill:url(#SVGID_00000145738933513471774030000001451747594151694233_);}
	.st69{fill-rule:evenodd;clip-rule:evenodd;fill:url(#SVGID_00000078045413261154741060000008717250881333606320_);}
	.st70{fill-rule:evenodd;clip-rule:evenodd;fill:none;stroke:#565656;stroke-width:7;stroke-linecap:round;stroke-miterlimit:10;}
	.st71{fill-rule:evenodd;clip-rule:evenodd;fill:url(#SVGID_00000060718236389679334050000002551126648187018680_);}
	.st72{fill-rule:evenodd;clip-rule:evenodd;fill:url(#SVGID_00000181054937023020754900000001441904225718088377_);}
	.st73{fill-rule:evenodd;clip-rule:evenodd;fill:#D13C30;}
	.st74{fill-rule:evenodd;clip-rule:evenodd;fill:url(#SVGID_00000015326401678239036940000017221446136852184736_);}
	.st75{fill-rule:evenodd;clip-rule:evenodd;fill:url(#SVGID_00000144310776667395566950000017822333697756180397_);}
	.st76{fill-rule:evenodd;clip-rule:evenodd;fill:url(#SVGID_00000098941095692358158200000006217940345172813461_);}
	.st77{fill-rule:evenodd;clip-rule:evenodd;fill:url(#SVGID_00000022521399432630441780000005930289658337533321_);}
</style>
<g>
	<path class="st5" d="M26.15,32.53c6.44,7.9,9.73,13.59,9.86,17.09c0.15,4.12-3.09,5.59-9.74,4.41l0.48-1.38
		c16.91,0.94,1.93-14.58-1.58-18.88L26.15,32.53z"/>
	<path class="st3" d="M24.92,28.82L14.21,5.79L3.89,17.64l2.88,23.29c0,0-0.13,3.24,4.53,3.59c4.66,0.34,7.03,5.2,7.03,5.2
		l11.05-8.4c0,0-1.3-3.89-2.48-4.64c-1.18-0.75-2.64-1.38-2.64-1.38S27.9,33.52,24.92,28.82z"/>
	<polygon class="st4" points="12.32,12.28 19.13,29.47 14.28,32.84 10.69,22.29 8.38,23.99 10.89,34.5 6.37,37.64 4.21,20.18 	"/>
	<path class="st5" d="M3.89,17.64l8.9-8.01l7.39,16.9l3.98,0.66L14.64,5.05L3.89,17.64L3.89,17.64z M20.45,28.6
		c-1.42,1.05-1.5,3.35-0.18,5.15c1.32,1.8,3.55,2.4,4.97,1.36c1.42-1.05,1.5-3.35,0.17-5.15C24.1,28.16,21.87,27.56,20.45,28.6z"/>
	<path class="st5" d="M18.09,34.26l-9.7,6.98c0,0,2.23,1.85,3.78,1.58c1.55-0.27,7.37-4.21,7.37-4.21l1.85,4.2l7.05-3.55l-1.54-2.57
		l-2.29-1.23c0,0-1.52,1.39-2.68,1.09c-1.16-0.3-3.21-2.93-3.21-2.93L18.09,34.26z"/>
	<path class="st5" d="M11.21,44c-0.25,9.83,0.58,16.08,2.49,18.75c2.25,3.14,5.49,2.22,9.74-2.76l-1.14-0.72
		c-11.99,11.14-9.79-9.61-9.65-14.96L11.21,44z"/>
	<path class="st5" d="M5.63,5.13L3.89,17.64l8.9-8.01l4.6,3.01l2.17,4.66l10.36-4L16.05,3.92C16.05,3.92,10.94,2.86,5.63,5.13z"/>
	<g>
		<path class="st9" d="M17.49,46.46L20,38.05l3.89,7.74l-0.44,7.88l3-0.05c0,0,0.65,2.9,2.2,4.19c1.55,1.29,3.37,1.2,3.37,1.2
			l7.17,28.44l-10.07,3.65L17.49,46.46z"/>
		<path class="st4" d="M34.15,89.27l-10.7-35.6l3-0.05c0,0,0.62,3.3,2.2,4.19c1.58,0.89,3.37,1.2,3.37,1.2l5.41,29.08L34.15,89.27z"
			/>
		<path class="st5" d="M23.45,53.66l10.7,35.6l-5.03,1.82l-1.31-5.02c0,0-0.94-11.91-2.75-20.29c-1.81-8.38-3.02-10.92-3.02-10.92
			l-2.21,0.58l-2.34-8.98L20,38.05l2.02,13.69l5.72,1.12l-1.28,0.75L23.45,53.66z"/>
	</g>
	<g>
		<polygon class="st10" points="31.19,122.1 45.74,122.16 49.17,109.8 45.28,89.15 29.3,87.9 28.27,90.18 29.13,98.64 25.69,98.8 
			28.32,121.95 		"/>
		<polygon class="st11" points="30.04,119.23 43.14,120.06 43.55,113.61 36.97,114.93 30.78,114.54 28.7,94.41 		"/>
		<polygon class="st12" points="29.3,87.9 44.56,85.3 49.17,109.8 31.25,112.1 		"/>
		<polygon class="st6" points="45.78,107.06 31.25,112.1 49.17,109.8 43.68,85.45 		"/>
	</g>
</g>
</svg>
