<?xml version="1.0" encoding="utf-8"?>
<!-- Generator: Adobe Illustrator 26.2.1, SVG Export Plug-In . SVG Version: 6.00 Build 0)  -->
<svg version="1.1" id="Capa_1" xmlns="http://www.w3.org/2000/svg" xmlns:xlink="http://www.w3.org/1999/xlink" x="0px" y="0px"
	 viewBox="0 0 444 473" style="enable-background:new 0 0 444 473;" xml:space="preserve">
<style type="text/css">
	.st0{fill-rule:evenodd;clip-rule:evenodd;fill:#E65D49;}
	.st1{fill-rule:evenodd;clip-rule:evenodd;fill:#EBE2BB;}
	.st2{fill-rule:evenodd;clip-rule:evenodd;fill:#380D13;}
	.st3{fill-rule:evenodd;clip-rule:evenodd;fill:#611C1C;}
	.st4{fill-rule:evenodd;clip-rule:evenodd;fill:#370F31;}
	.st5{fill-rule:evenodd;clip-rule:evenodd;fill:#260D24;}
	.st6{fill-rule:evenodd;clip-rule:evenodd;fill:#361433;}
	.st7{fill-rule:evenodd;clip-rule:evenodd;fill:#4D1C49;}
	.st8{fill-rule:evenodd;clip-rule:evenodd;fill:#F19B78;}
	.st9{fill-rule:evenodd;clip-rule:evenodd;fill:#FFB294;}
	.st10{fill-rule:evenodd;clip-rule:evenodd;fill:#FFDCC9;}
	.st11{fill-rule:evenodd;clip-rule:evenodd;fill:#FFFFCC;}
	.st12{fill-rule:evenodd;clip-rule:evenodd;fill:#1C0B1B;}
	.st13{fill-rule:evenodd;clip-rule:evenodd;fill:#D9D9C5;}
	.st14{fill-rule:evenodd;clip-rule:evenodd;fill:#0A0706;}
	.st15{fill-rule:evenodd;clip-rule:evenodd;fill:#170916;}
	.st16{fill-rule:evenodd;clip-rule:evenodd;fill:#120711;}
	.st17{fill-rule:evenodd;clip-rule:evenodd;fill:#E67056;}
	.st18{fill-rule:evenodd;clip-rule:evenodd;fill:url(#SVGID_1_);}
	.st19{fill-rule:evenodd;clip-rule:evenodd;fill:#BA3B1C;}
	.st20{fill-rule:evenodd;clip-rule:evenodd;fill:#F6CA96;}
	.st21{fill-rule:evenodd;clip-rule:evenodd;fill:#3B180F;}
	.st22{fill-rule:evenodd;clip-rule:evenodd;fill:#E66F55;}
	.st23{fill-rule:evenodd;clip-rule:evenodd;fill:#991E0E;}
	.st24{fill-rule:evenodd;clip-rule:evenodd;fill:#FFB496;}
	.st25{fill-rule:evenodd;clip-rule:evenodd;fill:#59211F;}
	.st26{fill-rule:evenodd;clip-rule:evenodd;fill:#F07464;}
	.st27{fill-rule:evenodd;clip-rule:evenodd;fill:#BD3E28;}
	.st28{fill-rule:evenodd;clip-rule:evenodd;fill:#A83200;}
	.st29{fill-rule:evenodd;clip-rule:evenodd;fill:#FF9587;}
	.st30{fill-rule:evenodd;clip-rule:evenodd;fill:#E65745;}
	.st31{fill-rule:evenodd;clip-rule:evenodd;fill:#D84B3C;}
	.st32{fill-rule:evenodd;clip-rule:evenodd;fill:#B83228;}
	.st33{fill-rule:evenodd;clip-rule:evenodd;fill:#FFFFF5;}
	.st34{fill-rule:evenodd;clip-rule:evenodd;fill:#6E2F23;}
	.st35{fill-rule:evenodd;clip-rule:evenodd;fill:none;stroke:#565656;stroke-width:7;stroke-linecap:round;stroke-miterlimit:10;}
	.st36{fill-rule:evenodd;clip-rule:evenodd;fill:url(#SVGID_00000070829413715463933650000017630777203515364249_);}
	.st37{fill-rule:evenodd;clip-rule:evenodd;fill:#471817;}
	.st38{fill-rule:evenodd;clip-rule:evenodd;fill:#D13C30;}
	.st39{fill-rule:evenodd;clip-rule:evenodd;fill:#1B2723;}
	.st40{fill-rule:evenodd;clip-rule:evenodd;fill:#007979;}
	.st41{fill-rule:evenodd;clip-rule:evenodd;fill:#009C9C;}
	.st42{fill-rule:evenodd;clip-rule:evenodd;fill:#FFFFFF;}
	.st43{fill-rule:evenodd;clip-rule:evenodd;fill:#26302C;}
	.st44{fill-rule:evenodd;clip-rule:evenodd;fill:url(#SVGID_00000180340103182483339630000009311584303596222353_);}
	.st45{fill-rule:evenodd;clip-rule:evenodd;fill:url(#SVGID_00000115484855236327627800000016101629407929464746_);}
	.st46{fill-rule:evenodd;clip-rule:evenodd;fill:url(#SVGID_00000150085775547138815630000000899412301830673036_);}
	.st47{fill-rule:evenodd;clip-rule:evenodd;fill:url(#SVGID_00000155834069029151176760000001627121871567374486_);}
	.st48{fill-rule:evenodd;clip-rule:evenodd;fill:url(#SVGID_00000165213244647669482340000004521175510000952766_);}
	.st49{fill-rule:evenodd;clip-rule:evenodd;fill:url(#SVGID_00000060010368430650254930000013042776229447704741_);}
</style>
<g>
	<path class="st5" d="M331.2,359.4l50.24-12.45c0,0,30.91-23.07,29.44-33.27c-1.47-10.2-10.3-21.71-10.3-21.71l-9.15-5.91
		l-60.77,4.67l-19.48,7.79C310.94,298.62,308.71,294.94,331.2,359.4z"/>
	<polygon class="st11" points="379.46,326.17 331.23,296.59 330.09,284.89 391.89,279.51 390.96,292.62 	"/>
	<path class="st13" d="M389.69,291.44c1.35,0.1-8.1,8.94-8.1,8.94l-4-17.18l-10.52,1.17l-4.02,16.69l-31.82-4.46l33.17,8.68
		l2.53-4.89l-2.84,16.36l14.04,11.18l5.67-14.39l-5.4-13.66l3.71,3.88L389.69,291.44z"/>
	<polygon class="st14" points="379.56,293.38 377.59,283.19 367.07,284.36 364.82,294.36 370.14,298.46 367.11,319.15 
		378.84,328.52 383.35,314.82 375.4,297.55 378.32,293.46 	"/>
	<polygon class="st15" points="397.96,294.73 402.52,308.63 395.9,313.4 401.96,313.41 384.25,332.52 390.4,339.76 337.87,321.84 
		342.93,316.78 331.69,319.59 324.75,293.1 328.32,322.4 335.44,320.83 331.23,324.84 388.32,341.5 392.58,337.88 388.15,332.64 
		405.43,311.56 400.3,311.93 405.43,307.76 	"/>
	<polygon class="st6" points="332.85,316.9 324.75,293.1 331.69,319.59 342.93,316.78 337.87,321.84 390.4,339.76 342.13,321.11 
		346.85,314.87 	"/>
	<polygon class="st6" points="394.52,288.07 400.32,307.79 393.57,314.2 398.93,313.4 384.25,332.52 401.96,313.41 398.1,311.81 
		402.52,308.63 	"/>
	<path class="st16" d="M370.57,344.52l0.84,4.92l9.97-2.72l-4.07,4.07l-7.43,4.29l-12.55,3.36c0,0-9.95,2.29-9.95,4.3
		c0,2.01-5.86,10.1-5.86,10.1s1.86-11.03,0.53-10.67c-1.32,0.36-2.99-4.72-2.99-4.72l26-7.06L370.57,344.52z"/>
</g>
<g>
	<path class="st35" d="M356.15,279.17c6.67-31.92,12.7-87.05-11.59-144.39c-4.68-11.05-18.02-25.9-24.77-31.04"/>
	<path class="st8" d="M315.65,214.62c1.38-5.9,47.12-9.19,63.65-11.55c13.08-1.87,3.57,27.02,13.73,57.42
		c1.18,3.52-7.89,20.4-7.89,20.4l-54.86,4.55C330.28,285.44,310.55,214.87,315.65,214.62z"/>
	<path class="st17" d="M335.48,221.91l12.84,44.95l41.54-5.06l-1.85,13.14l-58.84,6.7c0,0-14.41-61.42-13.29-59.29
		C317,224.48,335.48,221.91,335.48,221.91z"/>
	<path class="st9" d="M316.75,224.63c2.07-1.38,17.24-5.44,20.65,6.31c3.41,11.75,11.52,38.4,11.52,38.4s-10.39-42.39-8.85-45.92
		c1.54-3.53,6.88-5.86,11.35-7.03c4.47-1.17,17.51-3.27,17.51-3.27s-51.67,6.17-52.86,6.92
		C314.87,220.81,316.75,224.63,316.75,224.63z"/>
	
		<linearGradient id="SVGID_1_" gradientUnits="userSpaceOnUse" x1="4209.293" y1="253.9699" x2="4137.0215" y2="281.7124" gradientTransform="matrix(-1 0 0 1 4522.5635 0)">
		<stop  offset="0" style="stop-color:#B92C21"/>
		<stop  offset="0.39" style="stop-color:#B92C21"/>
		<stop  offset="0.5" style="stop-color:#EC5C48"/>
		<stop  offset="1" style="stop-color:#EA7B5F"/>
	</linearGradient>
	<path class="st18" d="M342.92,267.16c5.31,2.06,46.94-5.36,46.94-5.36l-1.85,13.14l-58.78,6.69l-0.06,0.01l-0.05-0.48l-8.2-35.13
		l11.9-3.84l1.48,8.93C335.53,258.54,337.6,265.11,342.92,267.16z"/>
	<path class="st19" d="M357.87,221.87c2.73,0.53,5.48,5.09,6.13,10.19c0.65,5.09-1.03,8.79-3.76,8.26
		c-2.73-0.53-5.48-5.09-6.13-10.19C353.45,225.03,355.14,221.33,357.87,221.87z"/>
	<path class="st20" d="M357.91,222.2c2.63,0.51,5.25,4.66,5.84,9.25c0.59,4.6-1.07,7.91-3.7,7.39c-2.63-0.51-5.25-4.66-5.83-9.25
		C353.62,225,355.28,221.69,357.91,222.2z"/>
	<path class="st21" d="M359.86,229.81c-1.09,0.81-1.37,2.83-0.64,4.52c0.73,1.69,2.21,2.41,3.29,1.6c1.09-0.81,1.37-2.83,0.64-4.52
		C362.42,229.72,360.95,229.01,359.86,229.81z"/>
	<path class="st20" d="M359.88,233.53c0.14,0.26,0.06,0.65-0.17,0.86c-0.24,0.21-0.54,0.17-0.69-0.09
		c-0.14-0.26-0.06-0.65,0.17-0.86C359.43,233.22,359.74,233.27,359.88,233.53z"/>
	<path class="st22" d="M363.01,227.62c-0.7-4.85-4.61-7.92-6.96-6.19c-2.05,1.51-2.68,7.6-2.11,7.51L363.01,227.62z"/>
	<path class="st23" d="M363.42,225.49c0.23,3.87-2.93,5.02-9.48,3.45C360.5,227.24,363.66,226.1,363.42,225.49z"/>
	<path class="st24" d="M357.04,220.96l1.47,6.14l2.28-0.98l-1.4-4.65C359.38,221.48,358.17,220.82,357.04,220.96z"/>
	<path class="st25" d="M354.64,216.06c0,0,2.55,1.77,1.46,3.66c-1.09,1.89-4.42,3.71-4.33,4.88c0.09,1.18,0.58,1.8,0.58,1.8
		C345.45,221.63,354.77,216.5,354.64,216.06z"/>
	<path class="st19" d="M372.41,218.28c2.73,0.53,5.48,5.09,6.13,10.19c0.65,5.09-1.03,8.79-3.76,8.26
		c-2.73-0.53-5.48-5.09-6.13-10.19C367.99,221.44,369.67,217.75,372.41,218.28z"/>
	<path class="st20" d="M372.45,218.62c2.63,0.51,5.25,4.66,5.84,9.25c0.59,4.6-1.07,7.9-3.7,7.39c-2.63-0.51-5.24-4.66-5.84-9.25
		C368.16,221.41,369.82,218.1,372.45,218.62z"/>
	<g>
		<path class="st26" d="M364.17,247.68l14.79-1.92c0,0,3.17-0.6,3.36-2.68c0.19-2.08-12.97-18.02-12.97-18.02l-5.62,0.7l1.56,16.07
			c0,0-3.3,0.52-3.83,1.9c-0.53,1.38,0.31,3.98,0.31,3.98L364.17,247.68z"/>
		<path class="st27" d="M377.82,245.18c0,0,4.11-0.87,3.4-2.43c-1.68-3.69-10.3-14.42-12.88-17.57l1.01-0.13c0,0,1.48,1.8,3.45,4.26
			c0.07,0.09,0.15,0.19,0.22,0.28c1.77,2.22,3.88,4.93,5.64,7.36c0.52,0.71,1,1.39,1.44,2.03c1.36,1.98,2.26,3.53,2.21,4.09
			c-0.19,2.08-3.36,2.68-3.36,2.68l-14.79,1.92l-2.4,0.03c0,0-0.04-0.13-0.1-0.34l1.37-0.27L377.82,245.18z"/>
		<path class="st28" d="M371.11,245.31c0,0-1.83-1-3.51-0.57c-1.69,0.43-2.08,1.51-2.08,1.51L371.11,245.31z"/>
		<path class="st29" d="M367.41,228.29l8.65,11.69c0,0-1.81,1.23-3.18,0.53c-1.36-0.7-7.02-9.4-7.25-10.75
			C365.42,228.4,367.41,228.29,367.41,228.29L367.41,228.29z M377.48,242.44c0.33-0.11,0.68,0.06,0.78,0.37
			c0.1,0.31-0.08,0.65-0.41,0.76c-0.33,0.11-0.68-0.06-0.78-0.37C376.96,242.88,377.15,242.55,377.48,242.44L377.48,242.44z
			 M373.28,243.12c1.32-0.28,2.42-0.23,2.47,0.12c0.05,0.35-0.98,0.86-2.3,1.14c-1.31,0.28-2.42,0.23-2.47-0.12
			C370.94,243.92,371.97,243.41,373.28,243.12z"/>
	</g>
	<path class="st21" d="M374.4,226.23c-1.08,0.81-1.37,2.83-0.64,4.52c0.73,1.69,2.21,2.41,3.29,1.6c1.09-0.81,1.37-2.83,0.64-4.52
		C376.96,226.14,375.48,225.42,374.4,226.23z"/>
	<path class="st20" d="M374.42,229.94c0.14,0.26,0.06,0.65-0.17,0.86c-0.24,0.21-0.54,0.17-0.69-0.09
		c-0.14-0.26-0.06-0.65,0.17-0.86C373.97,229.64,374.28,229.68,374.42,229.94z"/>
	<path class="st22" d="M377.55,224.03c-0.7-4.85-4.61-7.92-6.96-6.19c-2.05,1.51-2.67,7.6-2.11,7.51L377.55,224.03z"/>
	<path class="st23" d="M377.96,221.9c0.23,3.87-2.93,5.02-9.48,3.45C375.04,223.66,378.2,222.51,377.96,221.9z"/>
	<path class="st24" d="M371.57,217.38l1.47,6.14l2.28-0.98l-1.4-4.65C373.92,217.89,372.71,217.23,371.57,217.38z"/>
	<path class="st25" d="M370.53,210.28c0,0-0.73,3.52,0.99,3.47c1.72-0.06,4.87-2.4,5.44-1.66c0.57,0.74,0.58,1.56,0.58,1.56
		C379.51,204.13,370.67,210.66,370.53,210.28z"/>
	<path class="st25" d="M345.1,234.14c-0.78,2.37-2.34,4.1-2.34,4.1l0.67,1.99c-0.8,0.96-1.57,1.53-1.57,1.53l-5.04,1.03
		c-0.74-3.15-1.92-6.83-3.59-8.11c-3.14-2.39-8.76-1.91-10.04,0.27c-0.75,1.28,0.22,6.4,1.14,10.39l-3.41,0.7
		c0,0-6.83-19.52-8.17-29.8c-0.65-4.95,8.29-3.87,10.48-6.18c2.35-2.48-1.35-5.91,1.79-9.19c8.09-8.44,48.37-7.29,55.59-3.7
		c18.99,9.46-46.77,19.98-48.16,19.48c-3.33-1.19-3.32,6.73,0.38,8.47c3.49,1.65,8.21-1.38,11.22,2.32
		C344.49,229.96,344.9,232.44,345.1,234.14z"/>
	<path class="st30" d="M334.3,251.12l-2.96-17.86c0,0-4.41-3.12-7.3,0.14c-2.89,3.26-1.51,10.17,1.23,14.6
		C328.01,252.44,330.97,253.08,334.3,251.12z"/>
	<path class="st31" d="M330.83,248.75c0,0-1.14-2.27-2.25-2.57c-1.11-0.3-1.82,0.75-2.63-0.13c-0.8-0.88-1.89-9.28-1.89-9.28
		s1.51-2.62,2.2-2.41c0.69,0.21,6.13,5.2,6.13,5.2l1.35,8.18L330.83,248.75z"/>
	<path class="st29" d="M325.33,232.24c1.07-0.53,2.14-0.37,2.39,0.36c0.25,0.74-0.41,1.76-1.48,2.3c-1.07,0.53-2.14,0.37-2.39-0.36
		C323.6,233.8,324.26,232.77,325.33,232.24z"/>
	<path class="st32" d="M324.06,236.77c0,0,0.42-2.22,1.92-2.94c1.5-0.72,6.04,3.51,6.04,3.51l0.37,2.22l-2.95-2.47
		c-0.36,2.2-0.5,7.8,1.03,9.58c-2.59-2.83-2.47-6.93-1.72-10.32l-2.02-1.2c-0.24,3.56-0.4,5.87,0.89,9.44
		c-2.3-3.73-1.91-5.29-1.65-9.58L324.06,236.77z"/>
	<path class="st33" d="M372.25,249.64c0,0-9.81,2.25-14.51,0.9c-4.7-1.35-4.88,6.7-3.55,8.14c1.33,1.44,9.57-0.89,10.29-0.86
		c0.72,0.04,1.23-3.81,1.23-3.81l4.64-0.47L372.25,249.64z"/>
	<path class="st23" d="M355.07,251c0,0,1.75,2.79,1.89,2.97c0.14,0.18,3.41,0.39,4.11,0.18c0.7-0.21,1.16-0.98,1.16-0.98l0.63,1.24
		l2.85-0.39l-12.23,2.1C353.48,256.11,353.07,252.88,355.07,251z"/>
	<path class="st37" d="M339.59,195.61c-6.57,5.65-11.41,11.83-2.36,12.56c10.57,0.86,30.46-2.46,44.14-5.12
		c0.62-0.12,1.23-0.24,1.82-0.36c-0.2,0.23-0.43,0.45-0.68,0.67c-8.47,7.32-48.97,13.67-50.06,13.28c-0.69-0.24-1.23-0.1-1.63,0.29
		c-0.82-0.8-1.57-1.47-2.05-1.75c-0.92-0.54-6.32-1.63-11.01-2.5c-0.56-0.1-1.12-0.21-1.65-0.3c2.59-0.81,5.9-1.05,7.12-2.34
		c2.35-2.48-1.35-5.92,1.79-9.19C327.5,198.28,332.97,196.6,339.59,195.61z"/>
	<path class="st34" d="M317.76,212.69c4.69,0.87,10.09,1.96,11.01,2.5c0.48,0.28,1.23,0.94,2.05,1.75c-0.25,0.24-0.44,0.59-0.58,1
		c-0.41,1.22-0.31,3.03,0.33,4.57c0.04,0.1,0.08,0.19,0.12,0.29c-0.37-0.05-0.79-0.11-1.23-0.17c-3.59-0.49-9.43-1.31-13.75-1.99
		c-0.23-0.04-0.46-0.07-0.68-0.11c-0.56-0.09-1.09-0.18-1.57-0.26c-0.3-1.44-0.53-2.8-0.7-4.03c-0.29-2.19,1.31-3.2,3.36-3.85
		L317.76,212.69z"/>
	<path class="st35" d="M392.71,278.82c0,0-34.7,10.66-65.58,2.68"/>
</g>
<g>
	<path class="st39" d="M313.7,77.01l26.63,13.61l-3.75,14.05l6.24,20.99l9.69-36.26c0.03-0.12,0.05-0.25,0.08-0.37
		c0.97-2.93-0.17-6.16-2.78-7.49l-32.49-18.07L313.7,77.01z"/>
	<path class="st39" d="M307.09,82.22l0.66,30.04l14.21,2.65l16.1,14.72l-36.68-6.85c-0.12-0.02-0.24-0.06-0.37-0.09
		c-3.04-0.38-5.45-2.82-5.51-5.75l-2.12-37.28L307.09,82.22z"/>
	<polygon class="st39" points="230.57,33.99 88.36,86.39 93.96,101.77 236.17,49.36 	"/>
	<path class="st40" d="M150.1,215.59l-37.73,23.58L45.91,131.43c-6.47-10.49-3.27-24.27,7.15-30.78l0,0
		c10.42-6.51,24.11-3.29,30.58,7.2L150.1,215.59z"/>
	<path class="st41" d="M144.29,194.92L144.29,194.92c-13.61-7.91-31.01-3.21-38.86,10.48l-50.63,88.27l49.28,28.64l50.63-88.27
		C162.56,220.34,157.9,202.82,144.29,194.92z"/>
	<path class="st40" d="M106.52,107.81l-21.07,9.11L72.55,86.69l21.07-9.11c3.02-1.31,6.52,0.1,7.82,3.14l8.21,19.22
		C110.94,102.99,109.54,106.51,106.52,107.81z"/>
	<path class="st40" d="M315.32,91.9L315.32,91.9c-9.05,6.69-21.77,4.72-28.41-4.39l-33.28-45.64c-6.64-9.11-4.69-21.91,4.36-28.6
		l0,0c9.05-6.69,21.77-4.72,28.41,4.39l33.28,45.64C326.33,72.41,324.38,85.22,315.32,91.9z"/>
	<path class="st41" d="M317.89,54.1L317.89,54.1c-1.26-1.93-3.83-2.47-5.75-1.2L278.4,75.19c-1.92,1.27-2.45,3.86-1.19,5.79l0,0
		c1.26,1.93,3.83,2.47,5.75,1.2l33.74-22.29C318.61,58.62,319.15,56.03,317.89,54.1z"/>
	<path class="st41" d="M87.01,75.8l19.7,39.09c1.9,3.78,0.4,8.39-3.35,10.31l-38.77,16.82c-14.48,7.39-32.17,1.57-39.51-13l0,0
		c-7.34-14.57-1.56-32.37,12.92-39.77l38.77-16.82C80.52,70.51,85.11,72.02,87.01,75.8z"/>
	<path class="st40" d="M233.23,24.35l21.83-7.07l10.01,31.32l-21.83,7.07c-3.13,1.01-6.48-0.72-7.49-3.87l-6.37-19.92
		C228.38,28.74,230.1,25.36,233.23,24.35z"/>
	<path class="st41" d="M288.22,49.35l-32.56,10.54c-3.7,1.2-7.66-0.85-8.85-4.57l-10.48-32.78c-1.19-3.72,0.84-7.71,4.54-8.9
		L273.44,3.1c3.7-1.2,7.66,0.85,8.85,4.57l10.48,32.78C293.94,44.16,291.91,48.15,288.22,49.35z"/>
	<ellipse class="st42" cx="131.6" cy="217.04" rx="14.68" ry="14.77"/>
	<ellipse class="st42" cx="59.97" cy="108.41" rx="14.68" ry="14.77"/>
	<ellipse class="st42" cx="264.54" cy="31.49" rx="11.97" ry="12.05"/>
	<path class="st43" d="M11.73,382.04h2.35v-59.86h13.37v-14.42c0-8.61,6.93-15.58,15.48-15.58h90.59c8.55,0,15.48,6.98,15.48,15.58
		v14.42h13.37v59.86h2.35c6.6,0,12,5.4,12,12v79h-177v-79C-0.27,387.44,5.13,382.04,11.73,382.04z"/>
</g>
</svg>
