<?xml version="1.0" encoding="utf-8"?>
<!-- Generator: Adobe Illustrator 26.2.1, SVG Export Plug-In . SVG Version: 6.00 Build 0)  -->
<svg version="1.1" id="robot" xmlns="http://www.w3.org/2000/svg" xmlns:xlink="http://www.w3.org/1999/xlink" x="0px" y="0px"
	 viewBox="0 0 53.91 136.78" style="enable-background:new 0 0 53.91 136.78;" xml:space="preserve">
<style type="text/css">
	.st0{fill-rule:evenodd;clip-rule:evenodd;fill:#1B211F;}
	.st1{fill-rule:evenodd;clip-rule:evenodd;fill:#2D3330;}
	.st2{fill-rule:evenodd;clip-rule:evenodd;fill:#444F49;}
	.st3{fill-rule:evenodd;clip-rule:evenodd;fill:#242B28;}
	.st4{fill-rule:evenodd;clip-rule:evenodd;fill:#2F3833;}
	.st5{fill-rule:evenodd;clip-rule:evenodd;fill:#131716;}
	.st6{fill-rule:evenodd;clip-rule:evenodd;fill:#3A9C9C;}
	.st7{fill-rule:evenodd;clip-rule:evenodd;fill:#2C7E82;}
	.st8{fill-rule:evenodd;clip-rule:evenodd;fill:#44BDBD;}
	.st9{fill-rule:evenodd;clip-rule:evenodd;fill:#232A27;}
	.st10{fill-rule:evenodd;clip-rule:evenodd;fill:#266363;}
	.st11{fill-rule:evenodd;clip-rule:evenodd;fill:#133B3B;}
	.st12{fill-rule:evenodd;clip-rule:evenodd;fill:#328282;}
	.st13{fill-rule:evenodd;clip-rule:evenodd;fill:#3D4034;}
	.st14{fill-rule:evenodd;clip-rule:evenodd;fill:#336666;}
	.st15{fill-rule:evenodd;clip-rule:evenodd;fill:url(#SVGID_1_);}
	.st16{fill-rule:evenodd;clip-rule:evenodd;fill:#00CCFF;}
	.st17{fill:#00CCFF;}
	.st18{fill-rule:evenodd;clip-rule:evenodd;fill:#277878;}
	.st19{fill-rule:evenodd;clip-rule:evenodd;fill:#1B494F;}
	.st20{fill-rule:evenodd;clip-rule:evenodd;fill:url(#SVGID_00000103223264166718614190000009637708953801489537_);}
	.st21{fill-rule:evenodd;clip-rule:evenodd;fill:#123236;}
	.st22{fill-rule:evenodd;clip-rule:evenodd;fill:#1C0B1B;}
	.st23{fill-rule:evenodd;clip-rule:evenodd;fill:#75652B;}
	.st24{fill-rule:evenodd;clip-rule:evenodd;fill:url(#SVGID_00000150824967272136604880000006765467318740619138_);}
	.st25{fill-rule:evenodd;clip-rule:evenodd;fill:#EBE2BB;}
	.st26{fill-rule:evenodd;clip-rule:evenodd;fill:#380D13;}
	.st27{fill-rule:evenodd;clip-rule:evenodd;fill:#611C1C;}
	.st28{fill-rule:evenodd;clip-rule:evenodd;fill:#370F31;}
	.st29{fill-rule:evenodd;clip-rule:evenodd;fill:#260D24;}
	.st30{fill-rule:evenodd;clip-rule:evenodd;fill:#F19B78;}
	.st31{fill-rule:evenodd;clip-rule:evenodd;fill:#E67056;}
	.st32{fill-rule:evenodd;clip-rule:evenodd;fill:#FFB294;}
	.st33{fill-rule:evenodd;clip-rule:evenodd;fill:url(#SVGID_00000128461660049822743870000016970312405967300243_);}
	.st34{fill-rule:evenodd;clip-rule:evenodd;fill:#BA3B1C;}
	.st35{fill-rule:evenodd;clip-rule:evenodd;fill:#F6CA96;}
	.st36{fill-rule:evenodd;clip-rule:evenodd;fill:#3B180F;}
	.st37{fill-rule:evenodd;clip-rule:evenodd;fill:#E66F55;}
	.st38{fill-rule:evenodd;clip-rule:evenodd;fill:#991E0E;}
	.st39{fill-rule:evenodd;clip-rule:evenodd;fill:#FFB496;}
	.st40{fill-rule:evenodd;clip-rule:evenodd;fill:#59211F;}
	.st41{fill-rule:evenodd;clip-rule:evenodd;fill:#F07464;}
	.st42{fill-rule:evenodd;clip-rule:evenodd;fill:#BD3E28;}
	.st43{fill-rule:evenodd;clip-rule:evenodd;fill:#A83200;}
	.st44{fill-rule:evenodd;clip-rule:evenodd;fill:#FF9587;}
	.st45{fill-rule:evenodd;clip-rule:evenodd;fill:#E65745;}
	.st46{fill-rule:evenodd;clip-rule:evenodd;fill:#D84B3C;}
	.st47{fill-rule:evenodd;clip-rule:evenodd;fill:#B83228;}
	.st48{fill-rule:evenodd;clip-rule:evenodd;fill:#FFFFF5;}
	.st49{fill-rule:evenodd;clip-rule:evenodd;fill:#FFFFCC;}
	.st50{fill-rule:evenodd;clip-rule:evenodd;fill:#D9D9C5;}
	.st51{fill-rule:evenodd;clip-rule:evenodd;fill:#0A0706;}
	.st52{fill-rule:evenodd;clip-rule:evenodd;fill:#8F7B35;}
	.st53{fill-rule:evenodd;clip-rule:evenodd;fill:#361433;}
	.st54{fill-rule:evenodd;clip-rule:evenodd;fill:#170916;}
	.st55{fill-rule:evenodd;clip-rule:evenodd;fill:#120711;}
	.st56{fill-rule:evenodd;clip-rule:evenodd;fill:#471817;}
	.st57{fill-rule:evenodd;clip-rule:evenodd;fill:#6E2F23;}
	.st58{fill-rule:evenodd;clip-rule:evenodd;fill:#E6654F;}
	.st59{fill-rule:evenodd;clip-rule:evenodd;fill:#FFC3A3;}
	.st60{fill-rule:evenodd;clip-rule:evenodd;fill:#E65D49;}
	.st61{fill-rule:evenodd;clip-rule:evenodd;fill:#FFDCC9;}
	.st62{fill-rule:evenodd;clip-rule:evenodd;fill:#5C4E1E;}
	.st63{fill-rule:evenodd;clip-rule:evenodd;fill:#4D1C49;}
	.st64{fill-rule:evenodd;clip-rule:evenodd;fill:url(#SVGID_00000157296973236778835320000012967956724498560177_);}
	.st65{fill-rule:evenodd;clip-rule:evenodd;fill:url(#SVGID_00000049936958531455927470000010148613123307414673_);}
	.st66{fill-rule:evenodd;clip-rule:evenodd;fill:url(#SVGID_00000052799169985688777220000005570544680102509753_);}
	.st67{fill-rule:evenodd;clip-rule:evenodd;fill:url(#SVGID_00000151519442050608240070000017866195948545306045_);}
	.st68{fill-rule:evenodd;clip-rule:evenodd;fill:url(#SVGID_00000005248344412737991180000003464714647702566574_);}
	.st69{fill-rule:evenodd;clip-rule:evenodd;fill:url(#SVGID_00000096756273561600109680000011329500568128035472_);}
	.st70{fill-rule:evenodd;clip-rule:evenodd;fill:none;stroke:#565656;stroke-width:7;stroke-linecap:round;stroke-miterlimit:10;}
	.st71{fill-rule:evenodd;clip-rule:evenodd;fill:url(#SVGID_00000114777150710623960920000010803363500654429375_);}
	.st72{fill-rule:evenodd;clip-rule:evenodd;fill:url(#SVGID_00000018224724979569504710000002162426493552828326_);}
	.st73{fill-rule:evenodd;clip-rule:evenodd;fill:#D13C30;}
	.st74{fill-rule:evenodd;clip-rule:evenodd;fill:url(#SVGID_00000079467820439976099590000009762404682323182726_);}
	.st75{fill-rule:evenodd;clip-rule:evenodd;fill:url(#SVGID_00000003077360810326868050000013454864060607385740_);}
	.st76{fill-rule:evenodd;clip-rule:evenodd;fill:url(#SVGID_00000034796620594085951510000009333063484941203881_);}
	.st77{fill-rule:evenodd;clip-rule:evenodd;fill:url(#SVGID_00000114063735315583340820000014675296424638062987_);}
</style>
<g>
	<g>
		<polygon class="st0" points="43.79,83.07 38.41,84.02 26.41,81.69 13.9,96.96 31.97,123.34 29.7,106.42 38.91,90.22 		"/>
		<polygon class="st1" points="25.26,72.4 24.51,79.21 11.42,96.76 15.54,99.56 25.23,83.23 28.21,77.69 		"/>
		<g>
			<polygon class="st1" points="5.08,92.39 31.59,132.36 37.88,132.48 35.73,129.29 19.82,105.64 12.29,94.45 11.45,93.2 			"/>
			<polygon class="st2" points="37.88,132.48 12.69,93.48 9.38,92.94 12.29,94.45 22.15,109.87 16.76,110 23.98,120.9 29.84,121.46 
				30.68,122.25 25.24,122.79 27.11,125.6 32.42,124.98 36.97,132.46 			"/>
		</g>
	</g>
	<path class="st3" d="M16.7,31.42L11.47,8.74l15.52,1.2l11.5,20.46c0,0,2.03,2.53-1.52,5.58c-3.55,3.04-1.01,7.6-1.01,7.6
		l-15.21-0.51c0,0-1.5-2.85-0.99-4.15c0.51-1.3,1.3-2.68,1.3-2.68S17.09,36.97,16.7,31.42z"/>
	<polygon class="st4" points="17.03,10.63 21.75,28.51 27.65,28.34 24.28,17.72 27.15,17.72 31.36,27.67 36.87,27.51 28.24,12.18 	
		"/>
	<path class="st5" d="M24.33,4.16l2.65,5.78l-11.42,1.04l3.58,15.79l-2.81,2.89L9.09,7.79L24.33,4.16L24.33,4.16z M20.17,28.6
		c-1.77,0-3.2,1.81-3.2,4.04c0,2.23,1.43,4.04,3.2,4.04c1.77,0,3.2-1.81,3.2-4.04C23.36,30.41,21.93,28.6,20.17,28.6z"/>
	<path class="st5" d="M25.42,31.75l11.95-0.14c0,0-0.7,2.81-2.11,3.51c-1.41,0.7-8.43,0.98-8.43,0.98l1,4.48l-7.78,1.32l-0.29-2.98
		l1.12-2.35c0,0,2.04,0.21,2.8-0.71c0.76-0.93,0.84-4.26,0.84-4.26L25.42,31.75z"/>
	<polygon class="st6" points="15.38,63.63 20.29,86.59 43.47,85.33 50.56,75.81 44.74,39.86 19.89,40.93 24.05,72.41 20.4,80.62 	
		"/>
	<polygon class="st7" points="12.85,58.54 20.29,86.59 25.96,76.59 19.89,40.93 	"/>
	<polygon class="st8" points="28.39,73.38 19.99,41.26 25.96,76.59 20.29,86.59 29.23,76.27 50.56,75.81 49.97,72.18 	"/>
</g>
</svg>
