<?xml version="1.0" encoding="utf-8"?>
<!-- Generator: Adobe Illustrator 26.2.1, SVG Export Plug-In . SVG Version: 6.00 Build 0)  -->
<svg version="1.1" id="Capa_1" xmlns="http://www.w3.org/2000/svg" xmlns:xlink="http://www.w3.org/1999/xlink" x="0px" y="0px"
	 viewBox="0 0 444 473" style="enable-background:new 0 0 444 473;" xml:space="preserve">
<style type="text/css">
	.st0{fill-rule:evenodd;clip-rule:evenodd;fill:#E65D49;}
	.st1{fill-rule:evenodd;clip-rule:evenodd;fill:#EBE2BB;}
	.st2{fill-rule:evenodd;clip-rule:evenodd;fill:#380D13;}
	.st3{fill-rule:evenodd;clip-rule:evenodd;fill:#611C1C;}
	.st4{fill-rule:evenodd;clip-rule:evenodd;fill:#370F31;}
	.st5{fill-rule:evenodd;clip-rule:evenodd;fill:#260D24;}
	.st6{fill-rule:evenodd;clip-rule:evenodd;fill:#361433;}
	.st7{fill-rule:evenodd;clip-rule:evenodd;fill:#4D1C49;}
	.st8{fill-rule:evenodd;clip-rule:evenodd;fill:#F19B78;}
	.st9{fill-rule:evenodd;clip-rule:evenodd;fill:#FFB294;}
	.st10{fill-rule:evenodd;clip-rule:evenodd;fill:#FFDCC9;}
	.st11{fill-rule:evenodd;clip-rule:evenodd;fill:#FFFFCC;}
	.st12{fill-rule:evenodd;clip-rule:evenodd;fill:#1C0B1B;}
	.st13{fill-rule:evenodd;clip-rule:evenodd;fill:#D9D9C5;}
	.st14{fill-rule:evenodd;clip-rule:evenodd;fill:#0A0706;}
	.st15{fill-rule:evenodd;clip-rule:evenodd;fill:#170916;}
	.st16{fill-rule:evenodd;clip-rule:evenodd;fill:#120711;}
	.st17{fill-rule:evenodd;clip-rule:evenodd;fill:#E67056;}
	.st18{fill-rule:evenodd;clip-rule:evenodd;fill:url(#SVGID_1_);}
	.st19{fill-rule:evenodd;clip-rule:evenodd;fill:#BA3B1C;}
	.st20{fill-rule:evenodd;clip-rule:evenodd;fill:#F6CA96;}
	.st21{fill-rule:evenodd;clip-rule:evenodd;fill:#3B180F;}
	.st22{fill-rule:evenodd;clip-rule:evenodd;fill:#E66F55;}
	.st23{fill-rule:evenodd;clip-rule:evenodd;fill:#991E0E;}
	.st24{fill-rule:evenodd;clip-rule:evenodd;fill:#FFB496;}
	.st25{fill-rule:evenodd;clip-rule:evenodd;fill:#59211F;}
	.st26{fill-rule:evenodd;clip-rule:evenodd;fill:#F07464;}
	.st27{fill-rule:evenodd;clip-rule:evenodd;fill:#BD3E28;}
	.st28{fill-rule:evenodd;clip-rule:evenodd;fill:#A83200;}
	.st29{fill-rule:evenodd;clip-rule:evenodd;fill:#FF9587;}
	.st30{fill-rule:evenodd;clip-rule:evenodd;fill:#E65745;}
	.st31{fill-rule:evenodd;clip-rule:evenodd;fill:#D84B3C;}
	.st32{fill-rule:evenodd;clip-rule:evenodd;fill:#B83228;}
	.st33{fill-rule:evenodd;clip-rule:evenodd;fill:#FFFFF5;}
	.st34{fill-rule:evenodd;clip-rule:evenodd;fill:#6E2F23;}
	.st35{fill-rule:evenodd;clip-rule:evenodd;fill:none;stroke:#565656;stroke-width:7;stroke-linecap:round;stroke-miterlimit:10;}
	.st36{fill-rule:evenodd;clip-rule:evenodd;fill:url(#SVGID_00000157997120186116309400000013276719222530973119_);}
	.st37{fill-rule:evenodd;clip-rule:evenodd;fill:#471817;}
	.st38{fill-rule:evenodd;clip-rule:evenodd;fill:#D13C30;}
	.st39{fill-rule:evenodd;clip-rule:evenodd;fill:#1B2723;}
	.st40{fill-rule:evenodd;clip-rule:evenodd;fill:#007979;}
	.st41{fill-rule:evenodd;clip-rule:evenodd;fill:#009C9C;}
	.st42{fill-rule:evenodd;clip-rule:evenodd;fill:#FFFFFF;}
	.st43{fill-rule:evenodd;clip-rule:evenodd;fill:#26302C;}
	.st44{fill-rule:evenodd;clip-rule:evenodd;fill:url(#SVGID_00000127733878067102520070000009007997351558594689_);}
	.st45{fill-rule:evenodd;clip-rule:evenodd;fill:url(#SVGID_00000055688907723606366020000016652904970682505883_);}
	.st46{fill-rule:evenodd;clip-rule:evenodd;fill:url(#SVGID_00000072970633837964107590000016520441746325705345_);}
	.st47{fill-rule:evenodd;clip-rule:evenodd;fill:url(#SVGID_00000173147615929238618550000009826386686846245813_);}
	.st48{fill-rule:evenodd;clip-rule:evenodd;fill:url(#SVGID_00000183961482474265193610000011990465257869192613_);}
	.st49{fill-rule:evenodd;clip-rule:evenodd;fill:url(#SVGID_00000068647434010864514830000017840265689180686754_);}
</style>
<g>
	<circle class="st0" cx="347.73" cy="418.01" r="5.82"/>
	<g>
		<path class="st1" d="M344.33,432.8c-0.34,0.26-0.78,0.25-0.98-0.01c-0.2-0.27-0.08-0.7,0.26-0.95c0.34-0.26,0.78-0.25,0.98,0.01
			C344.79,432.11,344.68,432.54,344.33,432.8z"/>
		<path class="st2" d="M353.09,425.71c0,0-3.22,2.74-2.7,6.95c0.52,4.21,4.73,10.5,3.84,13.2c-0.89,2.7-2.86,2.96-2.86,2.96
			l0.32,1.52l-2.85,1.01l-7.38-16.88c0,0,0.33-2.19-0.1-3.24c-0.42-1.05-1.93-1.83-1.93-1.83l-3.56-9.32l2.86-1.17l1.33,0.54
			c3.55-2.22,6.16-2.85,9.92-0.59L353.09,425.71z"/>
		<path class="st1" d="M350.5,438.69c0.16,0.4,0.04,0.82-0.27,0.94c-0.31,0.12-0.69-0.1-0.85-0.5c-0.16-0.4-0.04-0.82,0.27-0.94
			C349.96,438.07,350.34,438.29,350.5,438.69z"/>
		<path class="st1" d="M352.37,443.23c0.61,1.52,0.78,2.87,0.39,3.03c-0.39,0.15-1.21-0.95-1.82-2.47
			c-0.61-1.52-0.79-2.87-0.39-3.02C350.94,440.61,351.76,441.71,352.37,443.23z"/>
		<path class="st3" d="M349.57,448.04l-5.66-13.55C343.9,434.5,349.27,444.4,349.57,448.04z"/>
	</g>
	<path class="st4" d="M342.68,340.69c-2.5,0-1.06,35.07-1.06,35.07l-5.78,45.66l19.26-2.21l2.46-43.46l-8.75-36.56L342.68,340.69z"
		/>
</g>
<g>
	<circle class="st0" cx="379.44" cy="418.01" r="5.82"/>
	<g>
		<path class="st1" d="M376.05,430.58c-0.33,0.27-0.77,0.29-0.98,0.03c-0.21-0.26-0.11-0.69,0.22-0.97
			c0.33-0.27,0.77-0.29,0.98-0.03S376.38,430.3,376.05,430.58z"/>
		<path class="st2" d="M384.49,423.12c0,0-3.1,2.87-2.4,7.05c0.69,4.19,5.17,10.29,4.4,13.03c-0.77,2.74-2.73,3.09-2.73,3.09
			l0.38,1.51l-2.81,1.13l-8.1-16.54c0,0,0.23-2.2-0.23-3.24c-0.47-1.03-2.01-1.74-2.01-1.74l-3.95-9.15l2.8-1.29l1.36,0.48
			c3.45-2.37,6.03-3.11,9.88-1.01L384.49,423.12z"/>
		<path class="st1" d="M382.47,436.21c0.18,0.39,0.07,0.82-0.23,0.95c-0.3,0.13-0.7-0.07-0.87-0.47c-0.18-0.39-0.07-0.82,0.23-0.95
			C381.9,435.61,382.29,435.81,382.47,436.21z"/>
		<path class="st1" d="M384.53,440.66c0.68,1.49,0.91,2.83,0.52,3.01c-0.39,0.17-1.25-0.9-1.92-2.38c-0.67-1.49-0.91-2.83-0.52-3.01
			C382.99,438.1,383.85,439.17,384.53,440.66z"/>
		<path class="st3" d="M381.93,445.59l-6.24-13.29C375.7,432.3,381.49,441.96,381.93,445.59z"/>
	</g>
	<path class="st5" d="M363.25,339.44c-2.5,0,6.57,32.05,6.57,32.05l-0.29,47.67l18.92-2.21l-7.07-45.06l-12.22-33.94L363.25,339.44z
		"/>
</g>
<g>
	<path class="st6" d="M327.05,344.66c0,0,2.28,2.41,1.39,4.57c-0.89,2.15-5.37,0.58-5.37,0.58l4.72,26.47l-10.32,2.87l-8.19-45.39
		l-0.94-15.66l2.83-19.57L327.05,344.66"/>
	<path class="st7" d="M328.07,344.8c0,0,0.13,1.07,0.48,2.55c0.14,0.6,0.15,1.25-0.11,1.88c-0.89,2.15-5.37,0.58-5.37,0.58l0.87,4.9
		l3.67,20.58l-0.33,1.14l-0.5,0.14l0.26-1.28l-3.68-0.3c-0.5-4.44-1.39-12.22-2.2-19.32c-0.88-7.66-1.68-14.53-1.84-15.54
		l-2.89-26.37"/>
	<path class="st8" d="M325.29,377.3c0,0,4.92,1.13,5.77,4.59c0.85,3.46,0.5,9.01,2.46,10.76c1.97,1.75,5.02,1.94,5.02,1.94
		c-2.21,9.9-8.62,3.24-11.26-1.28c0,0-1.08-1.66-2.25,0.35c-1.16,2.01,2.67,7.78,1.25,10.4c-1.42,2.63-4.19,2.8-5.46,0.11
		c-0.24-0.51-0.56-3.48-1.57-2.5c-1.47,1.42,0.92-0.38-0.65,0.81c-1.57,1.18-6.44-0.23-5.83-4.31c1.7-11.32,0.38,1.37-3.5-1.4
		c-1.84-1.31-5.69-2.07-1.73-5.84c4.86-4.62,7.77-12.16,9.46-12.8l3.9-1.48L325.29,377.3z"/>
	<path class="st0" d="M325.28,377.1c0,0,4.71,1.08,5.53,4.39c0.81,3.31-0.3,8.62,1.58,10.3c1.88,1.68,5.03,2.74,5.03,2.74
		c-2.12,9.48-7.69,2.23-10.22-2.1c0,0-1.04-1.59-2.15,0.34c-1.11,1.93,2.56,7.44,1.2,9.96c-1.36,2.52-4.01,2.68-5.23,0.1
		c-0.23-0.49-0.53-3.33-1.5-2.39c-1.41,1.36,0.89-0.36-0.62,0.77c-1.51,1.13-6.16-0.22-5.58-4.13c1.62-10.84,0.37,1.31-3.35-1.34
		c-1.76-1.25-5.45-1.99-1.65-5.6c4.65-4.43,7.44-11.64,9.06-12.25l3.73-1.42L325.28,377.1z"/>
	<path class="st9" d="M332.25,394.98l3.36,1.85l1.36-2.46c-0.72-0.27-2.15-0.87-3.43-1.71l-1.1,2.01L332.25,394.98z"/>
	<path class="st8" d="M313.32,385.38c-0.23,0.89-0.51,1.73-0.97,2.43c0.4,0.55,1.01,1.19,1.81,1.43c1.52,0.47,1.36,0.22,2.59,1.2
		c0.78,0.63,1.38,0.23,2.07,0.02c0.39-0.12,0.81-0.17,1.3,0.06c1.37,0.63,1.75,1.98,2.85,1.35c1.09-0.63,1.21-2.19,2.47-2.37
		c0.21-0.03,0.41-0.06,0.6-0.09c0.32-0.05,0.61-0.11,0.87-0.23c0.5-0.23,0.91-0.67,1.25-1.62c0.42-1.2,0.49-5.01,0.5-7.26
		c0-0.53,0-0.97-0.01-1.27c0-0.28-0.01-0.45-0.01-0.45l-0.64-0.18l-0.07-0.02l-2.1-0.59l-4.38-1.24l-0.34-0.1l-3.73,1.42
		c-0.65,0.25-1.17,0.58-1.6,0.97c-0.67,0.62-1.1,1.41-1.42,2.27C313.88,382.47,313.67,383.99,313.32,385.38z"/>
	<path class="st10" d="M321.55,392.09c0.12,0.82,0.53,1.44,0.92,1.39c0.39-0.06,0.61-0.77,0.49-1.59c-0.12-0.82-0.53-1.44-0.92-1.39
		C321.65,390.55,321.43,391.26,321.55,392.09z"/>
	<polygon class="st11" points="327.7,375.76 317.04,376.37 317.04,378.12 328.29,378.71 	"/>
</g>
<g>
	<path class="st12" d="M396.64,339.48c0,0-1.78,2.81-0.49,4.75c1.29,1.94,5.38-0.46,5.38-0.46l0.46,26.89l10.68,0.83l-0.7-46.12
		l-2.09-15.55l-9.31-17.84L396.64,339.48"/>
	<path class="st7" d="M395.67,339.82c0,0,0.08,1.08,0.02,2.59c-0.02,0.62,0.09,1.26,0.47,1.82c1.29,1.94,5.38-0.46,5.38-0.46
		l0.09,4.97l0.36,20.9l0.54,1.05l0.52,0.04l-0.5-1.21l3.56-1c-0.36-4.45-0.99-12.26-1.55-19.38c-0.61-7.69-1.14-14.58-1.18-15.61
		l-2.24-26.43"/>
	<path class="st8" d="M404.64,371.18c0,0-4.61,2.06-4.78,5.61c-0.17,3.55,1.24,8.94-0.35,11.04c-1.59,2.1-4.56,2.87-4.56,2.87
		c4.08,9.29,9.08,1.52,10.8-3.42c0,0,0.74-1.84,2.27-0.09c1.53,1.75-1.13,8.14,0.77,10.45c1.9,2.31,4.65,1.94,5.38-0.95
		c0.14-0.55-0.12-3.52,1.06-2.75c1.72,1.11-0.98-0.19,0.79,0.67c1.77,0.86,6.27-1.46,4.89-5.35c-3.84-10.79-0.11,1.41,3.16-2.04
		c1.55-1.64,5.19-3.13,0.57-6.07c-5.66-3.6-9.96-10.43-11.75-10.74l-4.11-0.7L404.64,371.18z"/>
	<path class="st0" d="M404.62,370.98c0,0-4.42,1.97-4.58,5.37c-0.16,3.4,1.95,8.4,0.43,10.41c-1.52,2.01-4.41,3.66-4.41,3.66
		c3.9,8.89,7.98,0.71,9.62-4.03c0,0,0.71-1.76,2.17-0.08c1.46,1.68-1.08,7.8,0.74,10c1.82,2.21,4.45,1.86,5.15-0.91
		c0.13-0.53-0.12-3.37,1.01-2.63c1.64,1.07-0.94-0.18,0.76,0.64c1.7,0.82,6.01-1.4,4.68-5.12c-3.68-10.33-0.11,1.35,3.03-1.96
		c1.49-1.57,4.96-3,0.54-5.81c-5.42-3.45-9.54-9.99-11.25-10.28l-3.94-0.67L404.62,370.98z"/>
	<path class="st8" d="M417.95,376.81c0.39,0.83,0.83,1.59,1.42,2.2c-0.29,0.62-0.76,1.36-1.5,1.75c-1.4,0.76-1.29,0.48-2.31,1.68
		c-0.65,0.77-1.31,0.49-2.03,0.42c-0.4-0.04-0.82-0.01-1.27,0.31c-1.23,0.88-1.34,2.28-2.53,1.87c-1.19-0.4-1.61-1.92-2.88-1.85
		c-0.21,0.01-0.41,0.02-0.61,0.03c-0.32,0.01-0.62,0.01-0.9-0.06c-0.54-0.13-1.02-0.48-1.54-1.35c-0.65-1.1-1.45-4.82-1.88-7.03
		c-0.1-0.52-0.18-0.95-0.24-1.24c-0.05-0.28-0.08-0.44-0.08-0.44l0.59-0.3l0.06-0.03l1.94-0.98l4.06-2.06l0.32-0.16l3.94,0.67
		c0.68,0.12,1.26,0.34,1.75,0.65c0.78,0.48,1.35,1.17,1.83,1.95C416.84,374.05,417.33,375.51,417.95,376.81z"/>
	<path class="st10" d="M411.16,384.97c0.04,0.83-0.25,1.52-0.64,1.54c-0.39,0.02-0.74-0.64-0.78-1.47
		c-0.04-0.83,0.25-1.52,0.64-1.54C410.77,383.48,411.12,384.14,411.16,384.97z"/>
	<polygon class="st11" points="401.99,370.13 412.56,368.68 412.9,370.4 401.97,373.14 	"/>
</g>
<g>
	<path class="st5" d="M331.2,359.4l50.24-12.45c0,0,30.91-23.07,29.44-33.27c-1.47-10.2-10.3-21.71-10.3-21.71l-9.15-5.91
		l-60.77,4.67l-19.48,7.79C310.94,298.62,308.71,294.94,331.2,359.4z"/>
	<polygon class="st11" points="379.46,326.17 331.23,296.59 330.09,284.89 391.89,279.51 390.96,292.62 	"/>
	<path class="st13" d="M389.69,291.44c1.35,0.1-8.1,8.94-8.1,8.94l-4-17.18l-10.52,1.17l-4.02,16.69l-31.82-4.46l33.17,8.68
		l2.53-4.89l-2.84,16.36l14.04,11.18l5.67-14.39l-5.4-13.66l3.71,3.88L389.69,291.44z"/>
	<polygon class="st14" points="379.56,293.38 377.59,283.19 367.07,284.36 364.82,294.36 370.14,298.46 367.11,319.15 
		378.84,328.52 383.35,314.82 375.4,297.55 378.32,293.46 	"/>
	<polygon class="st15" points="397.96,294.73 402.52,308.63 395.9,313.4 401.96,313.41 384.25,332.52 390.4,339.76 337.87,321.84 
		342.93,316.78 331.69,319.59 324.75,293.1 328.32,322.4 335.44,320.83 331.23,324.84 388.32,341.5 392.58,337.88 388.15,332.64 
		405.43,311.56 400.3,311.93 405.43,307.76 	"/>
	<polygon class="st6" points="332.85,316.9 324.75,293.1 331.69,319.59 342.93,316.78 337.87,321.84 390.4,339.76 342.13,321.11 
		346.85,314.87 	"/>
	<polygon class="st6" points="394.52,288.07 400.32,307.79 393.57,314.2 398.93,313.4 384.25,332.52 401.96,313.41 398.1,311.81 
		402.52,308.63 	"/>
	<path class="st16" d="M370.57,344.52l0.84,4.92l9.97-2.72l-4.07,4.07l-7.43,4.29l-12.55,3.36c0,0-9.95,2.29-9.95,4.3
		c0,2.01-5.86,10.1-5.86,10.1s1.86-11.03,0.53-10.67c-1.32,0.36-2.99-4.72-2.99-4.72l26-7.06L370.57,344.52z"/>
</g>
<g>
	<path class="st17" d="M335.48,221.91l12.84,44.95l41.54-5.06l-1.85,13.14l-58.84,6.7c0,0-14.41-61.42-13.29-59.29
		C317,224.48,335.48,221.91,335.48,221.91z"/>
	<path class="st9" d="M316.75,224.63c2.07-1.38,17.24-5.44,20.65,6.31c3.41,11.75,11.52,38.4,11.52,38.4s-10.39-42.39-8.85-45.92
		c1.54-3.53,6.88-5.86,11.35-7.03c4.47-1.17,17.51-3.27,17.51-3.27s-51.67,6.17-52.86,6.92
		C314.87,220.81,316.75,224.63,316.75,224.63z"/>
	
		<linearGradient id="SVGID_1_" gradientUnits="userSpaceOnUse" x1="353.2931" y1="253.9699" x2="281.0214" y2="281.7124" gradientTransform="matrix(-1 0 0 1 666.5635 0)">
		<stop  offset="0" style="stop-color:#B92C21"/>
		<stop  offset="0.39" style="stop-color:#B92C21"/>
		<stop  offset="0.5" style="stop-color:#EC5C48"/>
		<stop  offset="1" style="stop-color:#EA7B5F"/>
	</linearGradient>
	<path class="st18" d="M342.92,267.16c5.31,2.06,46.94-5.36,46.94-5.36l-1.85,13.14l-58.78,6.69l-0.06,0.01l-0.05-0.48l-8.2-35.13
		l11.9-3.84l1.48,8.93C335.53,258.54,337.6,265.11,342.92,267.16z"/>
	<path class="st19" d="M357.87,221.87c2.73,0.53,5.48,5.09,6.13,10.19c0.65,5.09-1.03,8.79-3.76,8.26
		c-2.73-0.53-5.48-5.09-6.13-10.19C353.45,225.03,355.14,221.33,357.87,221.87z"/>
	<path class="st20" d="M357.91,222.2c2.63,0.51,5.25,4.66,5.84,9.25c0.59,4.6-1.07,7.91-3.7,7.39c-2.63-0.51-5.25-4.66-5.83-9.25
		C353.62,225,355.28,221.69,357.91,222.2z"/>
	<path class="st21" d="M359.86,229.81c-1.09,0.81-1.37,2.83-0.64,4.52c0.73,1.69,2.21,2.41,3.29,1.6c1.09-0.81,1.37-2.83,0.64-4.52
		C362.42,229.72,360.95,229.01,359.86,229.81z"/>
	<path class="st20" d="M359.88,233.53c0.14,0.26,0.06,0.65-0.17,0.86c-0.24,0.21-0.54,0.17-0.69-0.09
		c-0.14-0.26-0.06-0.65,0.17-0.86C359.43,233.22,359.74,233.27,359.88,233.53z"/>
	<path class="st22" d="M363.01,227.62c-0.7-4.85-4.61-7.92-6.96-6.19c-2.05,1.51-2.68,7.6-2.11,7.51L363.01,227.62z"/>
	<path class="st23" d="M363.42,225.49c0.23,3.87-2.93,5.02-9.48,3.45C360.5,227.24,363.66,226.1,363.42,225.49z"/>
	<path class="st24" d="M357.04,220.96l1.47,6.14l2.28-0.98l-1.4-4.65C359.38,221.48,358.17,220.82,357.04,220.96z"/>
	<path class="st25" d="M354.64,216.06c0,0,2.55,1.77,1.46,3.66c-1.09,1.89-4.42,3.71-4.33,4.88c0.09,1.18,0.58,1.8,0.58,1.8
		C345.45,221.63,354.77,216.5,354.64,216.06z"/>
	<path class="st19" d="M372.41,218.28c2.73,0.53,5.48,5.09,6.13,10.19c0.65,5.09-1.03,8.79-3.76,8.26
		c-2.73-0.53-5.48-5.09-6.13-10.19C367.99,221.44,369.67,217.75,372.41,218.28z"/>
	<path class="st20" d="M372.45,218.62c2.63,0.51,5.25,4.66,5.84,9.25c0.59,4.6-1.07,7.9-3.7,7.39c-2.63-0.51-5.24-4.66-5.84-9.25
		C368.16,221.41,369.82,218.1,372.45,218.62z"/>
	<g>
		<path class="st26" d="M364.17,247.68l14.79-1.92c0,0,3.17-0.6,3.36-2.68c0.19-2.08-12.97-18.02-12.97-18.02l-5.62,0.7l1.56,16.07
			c0,0-3.3,0.52-3.83,1.9c-0.53,1.38,0.31,3.98,0.31,3.98L364.17,247.68z"/>
		<path class="st27" d="M377.82,245.18c0,0,4.11-0.87,3.4-2.43c-1.68-3.69-10.3-14.42-12.88-17.57l1.01-0.13c0,0,1.48,1.8,3.45,4.26
			c0.07,0.09,0.15,0.19,0.22,0.28c1.77,2.22,3.88,4.93,5.64,7.36c0.52,0.71,1,1.39,1.44,2.03c1.36,1.98,2.26,3.53,2.21,4.09
			c-0.19,2.08-3.36,2.68-3.36,2.68l-14.79,1.92l-2.4,0.03c0,0-0.04-0.13-0.1-0.34l1.37-0.27L377.82,245.18z"/>
		<path class="st28" d="M371.11,245.31c0,0-1.83-1-3.51-0.57c-1.69,0.43-2.08,1.51-2.08,1.51L371.11,245.31z"/>
		<path class="st29" d="M367.41,228.29l8.65,11.69c0,0-1.81,1.23-3.18,0.53c-1.36-0.7-7.02-9.4-7.25-10.75
			C365.42,228.4,367.41,228.29,367.41,228.29L367.41,228.29z M377.48,242.44c0.33-0.11,0.68,0.06,0.78,0.37
			c0.1,0.31-0.08,0.65-0.41,0.76c-0.33,0.11-0.68-0.06-0.78-0.37C376.96,242.88,377.15,242.55,377.48,242.44L377.48,242.44z
			 M373.28,243.12c1.32-0.28,2.42-0.23,2.47,0.12c0.05,0.35-0.98,0.86-2.3,1.14c-1.31,0.28-2.42,0.23-2.47-0.12
			C370.94,243.92,371.97,243.41,373.28,243.12z"/>
	</g>
	<path class="st21" d="M374.4,226.23c-1.08,0.81-1.37,2.83-0.64,4.52c0.73,1.69,2.21,2.41,3.29,1.6c1.09-0.81,1.37-2.83,0.64-4.52
		C376.96,226.14,375.48,225.42,374.4,226.23z"/>
	<path class="st20" d="M374.42,229.94c0.14,0.26,0.06,0.65-0.17,0.86c-0.24,0.21-0.54,0.17-0.69-0.09
		c-0.14-0.26-0.06-0.65,0.17-0.86C373.97,229.64,374.28,229.68,374.42,229.94z"/>
	<path class="st22" d="M377.55,224.03c-0.7-4.85-4.61-7.92-6.96-6.19c-2.05,1.51-2.67,7.6-2.11,7.51L377.55,224.03z"/>
	<path class="st23" d="M377.96,221.9c0.23,3.87-2.93,5.02-9.48,3.45C375.04,223.66,378.2,222.51,377.96,221.9z"/>
	<path class="st24" d="M371.57,217.38l1.47,6.14l2.28-0.98l-1.4-4.65C373.92,217.89,372.71,217.23,371.57,217.38z"/>
	<path class="st30" d="M334.3,251.12l-2.96-17.86c0,0-4.41-3.12-7.3,0.14c-2.89,3.26-1.51,10.17,1.23,14.6
		C328.01,252.44,330.97,253.08,334.3,251.12z"/>
	<path class="st31" d="M330.83,248.75c0,0-1.14-2.27-2.25-2.57c-1.11-0.3-1.82,0.75-2.63-0.13c-0.8-0.88-1.89-9.28-1.89-9.28
		s1.51-2.62,2.2-2.41c0.69,0.21,6.13,5.2,6.13,5.2l1.35,8.18L330.83,248.75z"/>
	<path class="st29" d="M325.33,232.24c1.07-0.53,2.14-0.37,2.39,0.36c0.25,0.74-0.41,1.76-1.48,2.3c-1.07,0.53-2.14,0.37-2.39-0.36
		C323.6,233.8,324.26,232.77,325.33,232.24z"/>
	<path class="st32" d="M324.06,236.77c0,0,0.42-2.22,1.92-2.94c1.5-0.72,6.04,3.51,6.04,3.51l0.37,2.22l-2.95-2.47
		c-0.36,2.2-0.5,7.8,1.03,9.58c-2.59-2.83-2.47-6.93-1.72-10.32l-2.02-1.2c-0.24,3.56-0.4,5.87,0.89,9.44
		c-2.3-3.73-1.91-5.29-1.65-9.58L324.06,236.77z"/>
	<path class="st33" d="M372.25,249.64c0,0-9.81,2.25-14.51,0.9c-4.7-1.35-4.88,6.7-3.55,8.14c1.33,1.44,9.57-0.89,10.29-0.86
		c0.72,0.04,1.23-3.81,1.23-3.81l4.64-0.47L372.25,249.64z"/>
	<path class="st23" d="M355.07,251c0,0,1.75,2.79,1.89,2.97c0.14,0.18,3.41,0.39,4.11,0.18c0.7-0.21,1.16-0.98,1.16-0.98l0.63,1.24
		l2.85-0.39l-12.23,2.1C353.48,256.11,353.07,252.88,355.07,251z"/>
	<path class="st34" d="M317.76,212.69c4.69,0.87,10.09,1.96,11.01,2.5c0.48,0.28,1.23,0.94,2.05,1.75c-0.25,0.24-0.44,0.59-0.58,1
		c-0.41,1.22-0.31,3.03,0.33,4.57c0.04,0.1,0.08,0.19,0.12,0.29c-0.37-0.05-0.79-0.11-1.23-0.17c-3.59-0.49-9.43-1.31-13.75-1.99
		c-0.23-0.04-0.46-0.07-0.68-0.11c-0.56-0.09-1.09-0.18-1.57-0.26c-0.3-1.44-0.53-2.8-0.7-4.03c-0.29-2.19,1.31-3.2,3.36-3.85
		L317.76,212.69z"/>
	<path class="st35" d="M392.71,278.82c0,0-34.7,10.66-65.58,2.68"/>
	<g>
		<path class="st35" d="M355.85,285.74c7.1-33.97,13.52-92.66-12.34-153.7c-4.99-11.77-19.18-27.58-26.37-33.04"/>
		<path class="st8" d="M316.01,213.62c1.47-6.28,50.16-9.78,67.76-12.3c13.92-1.99,3.8,28.77,14.62,61.13
			c1.25,3.75-8.4,21.71-8.4,21.71l-58.05,3.81C331.93,287.97,310.59,213.88,316.01,213.62z"/>
		<path class="st17" d="M334.65,223.52l13.67,47.85l44.22-5.38l-1.97,13.98l-62.63,7.13c0,0-15.34-65.38-14.15-63.11
			C314.98,226.26,334.65,223.52,334.65,223.52z"/>
		<path class="st9" d="M314.71,226.42c2.2-1.46,18.36-5.79,21.98,6.72c3.63,12.51,12.26,40.88,12.26,40.88s-11.06-45.12-9.42-48.88
			c1.64-3.75,7.32-6.23,12.08-7.48c4.76-1.24,18.64-3.48,18.64-3.48s-55,6.56-56.27,7.37C312.72,222.35,314.71,226.42,314.71,226.42
			z"/>
		
			<linearGradient id="SVGID_00000124138813360937289930000010309767879787901884_" gradientUnits="userSpaceOnUse" x1="204.7985" y1="257.6516" x2="127.8674" y2="287.1826" gradientTransform="matrix(-1 0 0 1 515.8105 0)">
			<stop  offset="0" style="stop-color:#B92C21"/>
			<stop  offset="0.39" style="stop-color:#B92C21"/>
			<stop  offset="0.5" style="stop-color:#EC5C48"/>
			<stop  offset="1" style="stop-color:#EA7B5F"/>
		</linearGradient>
		<path style="fill-rule:evenodd;clip-rule:evenodd;fill:url(#SVGID_00000124138813360937289930000010309767879787901884_);" d="
			M342.57,271.7c5.66,2.19,49.97-5.71,49.97-5.71l-1.97,13.98L328,287.1l-0.06,0.01l-0.05-0.51l-8.72-37.4l12.67-4.08l1.57,9.5
			C334.71,262.51,336.91,269.51,342.57,271.7z"/>
		<path class="st25" d="M355.05,218.96c0,0,2.71,1.88,1.55,3.89c-1.16,2.01-4.71,3.95-4.61,5.2c0.1,1.25,0.61,1.92,0.61,1.92
			C345.27,224.89,355.19,219.42,355.05,218.96z"/>
		<path class="st20" d="M376.1,232.07c0.15,0.28,0.07,0.69-0.18,0.92c-0.25,0.23-0.58,0.18-0.73-0.1c-0.15-0.28-0.07-0.69,0.18-0.92
			C375.62,231.75,375.95,231.79,376.1,232.07z"/>
		<path class="st25" d="M374.46,217.88c0,0-2.13,3.18-0.41,3.81c1.72,0.63,5.77-0.41,6.03,0.54c0.26,0.95-0.05,1.78-0.05,1.78
			C385.79,215.42,374.45,218.31,374.46,217.88z"/>
		<path class="st25" d="M344.89,236.54c-0.83,2.53-2.49,4.36-2.49,4.36l0.72,2.12c-0.85,1.03-1.67,1.62-1.67,1.62l-5.36,1.1
			c-0.79-3.35-2.04-7.27-3.83-8.63c-3.34-2.55-9.33-2.03-10.69,0.29c-0.8,1.37,0.23,6.82,1.21,11.06l-3.63,0.74
			c0,0-7.27-20.78-8.7-31.72c-0.69-5.27,8.83-4.12,11.15-6.58c2.5-2.64-1.43-6.3,1.91-9.78c8.61-8.99,51.49-7.76,59.17-3.94
			c20.21,10.07-49.79,21.26-51.27,20.74c-3.55-1.26-3.53,7.16,0.41,9.02c3.72,1.75,8.74-1.46,11.94,2.47
			C344.25,232.1,344.68,234.73,344.89,236.54z"/>
		<path class="st30" d="M333.4,254.62l-3.15-19.01c0,0-4.69-3.32-7.77,0.15c-3.08,3.48-1.6,10.83,1.31,15.54
			C326.7,256.02,329.85,256.71,333.4,254.62z"/>
		<path class="st31" d="M329.7,252.09c0,0-1.22-2.41-2.4-2.73c-1.18-0.32-1.94,0.8-2.79-0.14c-0.86-0.94-2.01-9.87-2.01-9.87
			s1.61-2.78,2.34-2.56c0.73,0.22,6.52,5.53,6.52,5.53l1.44,8.71L329.7,252.09z"/>
		<path class="st29" d="M323.85,234.52c1.14-0.57,2.28-0.4,2.54,0.39c0.27,0.78-0.44,1.88-1.57,2.45c-1.14,0.57-2.28,0.4-2.54-0.39
			C322,236.18,322.71,235.09,323.85,234.52z"/>
		<path class="st32" d="M322.5,239.34c0,0,0.44-2.36,2.04-3.13c1.6-0.77,6.43,3.74,6.43,3.74l0.39,2.36l-3.14-2.63
			c-0.38,2.34-0.53,8.3,1.09,10.2c-2.76-3.01-2.63-7.38-1.83-10.99l-2.15-1.28c-0.25,3.79-0.43,6.25,0.95,10.05
			c-2.45-3.97-2.03-5.63-1.76-10.2L322.5,239.34z"/>
		<path class="st33" d="M373.8,253.05c0,0-10.29-0.73-15.74,0.23c-5.12,0.9-4.68,7.24-3.49,9.39c1.01,1.82,10.19-0.95,10.95-0.91
			c0.76,0.04,1.31-4.06,1.31-4.06l4.94-0.5L373.8,253.05z"/>
		<path class="st23" d="M355.51,254.49c0,0,1.86,2.97,2.02,3.16c0.15,0.19,3.63,0.41,4.37,0.19c0.75-0.22,1.23-1.05,1.23-1.05
			l0.67,1.32l3.03-0.41l-13.01,2.23C353.82,259.93,353.37,256.49,355.51,254.49z"/>
		<path class="st37" d="M339.03,195.53c-7,6.02-12.15,12.59-2.51,13.37c11.25,0.91,32.42-2.62,46.99-5.45
			c0.66-0.13,1.3-0.25,1.93-0.38c-0.21,0.24-0.45,0.48-0.73,0.72c-9.01,7.79-52.13,14.55-53.29,14.14
			c-0.73-0.26-1.31-0.11-1.73,0.31c-0.88-0.86-1.67-1.56-2.18-1.86c-0.98-0.57-6.73-1.73-11.72-2.66c-0.6-0.11-1.19-0.22-1.76-0.32
			c2.75-0.87,6.28-1.12,7.58-2.49c2.5-2.64-1.43-6.3,1.91-9.78C326.16,198.37,331.98,196.58,339.03,195.53z"/>
		<path class="st34" d="M315.79,213.71c4.99,0.93,10.74,2.09,11.72,2.66c0.51,0.3,1.3,1,2.18,1.86c-0.27,0.26-0.47,0.63-0.61,1.06
			c-0.43,1.3-0.32,3.23,0.35,4.87c0.04,0.1,0.09,0.2,0.13,0.3c-0.4-0.05-0.84-0.11-1.31-0.18c-3.82-0.52-10.04-1.39-14.64-2.12
			c-0.25-0.04-0.49-0.08-0.73-0.12c-0.59-0.1-1.16-0.19-1.68-0.28c-0.31-1.54-0.57-2.98-0.74-4.29c-0.31-2.33,1.39-3.41,3.58-4.1
			L315.79,213.71z"/>
		<g>
			<path class="st23" d="M360.2,226.14c4.69,3.74,2.74,8.55-5.85,14.45C359.2,231.31,361.14,226.49,360.2,226.14z"/>
			<path class="st23" d="M365.12,238.02c-4.91,2.01-8.19-1.67-9.83-11.03c-0.03-0.18,0.21-0.28,0.32-0.14
				c5,6.57,8.18,10.19,9.52,10.85C365.27,237.78,365.26,237.97,365.12,238.02z"/>
		</g>
		<g>
			<path class="st23" d="M377.69,223.2c3.99,3.6,2.04,8.17-5.82,13.71c-0.12,0.09-0.29-0.06-0.22-0.19
				c3.89-7.49,5.82-11.96,5.8-13.41C377.44,223.18,377.6,223.12,377.69,223.2z"/>
			<path class="st23" d="M382.19,234.66c-4.96,2.06-8.26-1.64-9.9-11.12c-0.03-0.15,0.17-0.23,0.27-0.11
				c5.11,6.72,8.32,10.38,9.65,10.97C382.31,234.45,382.3,234.61,382.19,234.66z"/>
		</g>
		<g>
			<path class="st26" d="M365.19,250.95l15.74-2.04c0,0,3.37-0.64,3.58-2.86c0.2-2.22-13.8-19.18-13.8-19.18l-5.99,0.75l1.66,17.1
				c0,0-3.51,0.56-4.08,2.02c-0.57,1.47,0.33,4.24,0.33,4.24L365.19,250.95z"/>
			<path class="st27" d="M379.73,248.29c0,0,4.37-0.93,3.62-2.59c-1.79-3.93-10.96-15.35-13.71-18.7l1.08-0.13
				c0,0,1.58,1.91,3.67,4.54c0.08,0.1,0.16,0.2,0.24,0.3c1.88,2.37,4.13,5.25,6.01,7.83c0.55,0.76,1.07,1.48,1.54,2.16
				c1.44,2.1,2.41,3.76,2.35,4.35c-0.2,2.22-3.58,2.86-3.58,2.86l-15.74,2.04l-2.56,0.03c0,0-0.04-0.13-0.11-0.36l1.46-0.29
				L379.73,248.29z"/>
			<path class="st28" d="M372.58,248.43c0,0-1.94-1.07-3.74-0.61c-1.8,0.46-2.21,1.61-2.21,1.61L372.58,248.43z"/>
			<path class="st29" d="M368.64,230.32l9.21,12.44c0,0-1.93,1.3-3.38,0.56c-1.45-0.74-7.48-10.01-7.71-11.45
				C366.52,230.43,368.64,230.32,368.64,230.32L368.64,230.32z M379.36,245.38c0.35-0.11,0.72,0.06,0.83,0.4
				c0.11,0.33-0.09,0.69-0.44,0.81c-0.35,0.11-0.72-0.06-0.83-0.4C378.81,245.85,379.01,245.49,379.36,245.38L379.36,245.38z
				 M374.89,246.11c1.4-0.3,2.58-0.24,2.63,0.13c0.05,0.37-1.04,0.92-2.45,1.22c-1.4,0.3-2.57,0.24-2.62-0.13
				C372.4,246.95,373.49,246.41,374.89,246.11z"/>
		</g>
		<path class="st38" d="M353.78,260.21c0,0,7.16-3.35,8.54,6.55c0.04,0.27,0.16,0.51,0.35,0.67c1.17,0.98,5.44,4.24,5.95,0.05
			c0,0-1.35-11.5-10.82-10.16c0,0-3.26,0.64-4.02,1.6V260.21z"/>
		<path class="st35" d="M393.33,279.73c0,0-36.94,11.34-69.81,2.85"/>
	</g>
</g>
<g>
	<path class="st39" d="M313.7,77.01l26.63,13.61l-3.75,14.05l6.24,20.99l9.69-36.26c0.03-0.12,0.05-0.25,0.08-0.37
		c0.97-2.93-0.17-6.16-2.78-7.49l-32.49-18.07L313.7,77.01z"/>
	<path class="st39" d="M307.09,82.22l0.66,30.04l14.21,2.65l16.1,14.72l-36.68-6.85c-0.12-0.02-0.24-0.06-0.37-0.09
		c-3.04-0.38-5.45-2.82-5.51-5.75l-2.12-37.28L307.09,82.22z"/>
	<polygon class="st39" points="230.57,33.99 88.36,86.39 93.96,101.77 236.17,49.36 	"/>
	<path class="st40" d="M150.1,215.59l-37.73,23.58L45.91,131.43c-6.47-10.49-3.27-24.27,7.15-30.78l0,0
		c10.42-6.51,24.11-3.29,30.58,7.2L150.1,215.59z"/>
	<path class="st41" d="M144.29,194.92L144.29,194.92c-13.61-7.91-31.01-3.21-38.86,10.48l-50.63,88.27l49.28,28.64l50.63-88.27
		C162.56,220.34,157.9,202.82,144.29,194.92z"/>
	<path class="st40" d="M106.52,107.81l-21.07,9.11L72.55,86.69l21.07-9.11c3.02-1.31,6.52,0.1,7.82,3.14l8.21,19.22
		C110.94,102.99,109.54,106.51,106.52,107.81z"/>
	<path class="st40" d="M315.32,91.9L315.32,91.9c-9.05,6.69-21.77,4.72-28.41-4.39l-33.28-45.64c-6.64-9.11-4.69-21.91,4.36-28.6
		l0,0c9.05-6.69,21.77-4.72,28.41,4.39l33.28,45.64C326.33,72.41,324.38,85.22,315.32,91.9z"/>
	<path class="st41" d="M317.89,54.1L317.89,54.1c-1.26-1.93-3.83-2.47-5.75-1.2L278.4,75.19c-1.92,1.27-2.45,3.86-1.19,5.79l0,0
		c1.26,1.93,3.83,2.47,5.75,1.2l33.74-22.29C318.61,58.62,319.15,56.03,317.89,54.1z"/>
	<path class="st41" d="M87.01,75.8l19.7,39.09c1.9,3.78,0.4,8.39-3.35,10.31l-38.77,16.82c-14.48,7.39-32.17,1.57-39.51-13l0,0
		c-7.34-14.57-1.56-32.37,12.92-39.77l38.77-16.82C80.52,70.51,85.11,72.02,87.01,75.8z"/>
	<path class="st40" d="M233.23,24.35l21.83-7.07l10.01,31.32l-21.83,7.07c-3.13,1.01-6.48-0.72-7.49-3.87l-6.37-19.92
		C228.38,28.74,230.1,25.36,233.23,24.35z"/>
	<path class="st41" d="M288.22,49.35l-32.56,10.54c-3.7,1.2-7.66-0.85-8.85-4.57l-10.48-32.78c-1.19-3.72,0.84-7.71,4.54-8.9
		L273.44,3.1c3.7-1.2,7.66,0.85,8.85,4.57l10.48,32.78C293.94,44.16,291.91,48.15,288.22,49.35z"/>
	<ellipse class="st42" cx="131.6" cy="217.04" rx="14.68" ry="14.77"/>
	<ellipse class="st42" cx="59.97" cy="108.41" rx="14.68" ry="14.77"/>
	<ellipse class="st42" cx="264.54" cy="31.49" rx="11.97" ry="12.05"/>
	<path class="st43" d="M11.73,382.04h2.35v-59.86h13.37v-14.42c0-8.61,6.93-15.58,15.48-15.58h90.59c8.55,0,15.48,6.98,15.48,15.58
		v14.42h13.37v59.86h2.35c6.6,0,12,5.4,12,12v79h-177v-79C-0.27,387.44,5.13,382.04,11.73,382.04z"/>
</g>
</svg>
