<?xml version="1.0" encoding="utf-8"?>
<!-- Generator: Adobe Illustrator 26.2.1, SVG Export Plug-In . SVG Version: 6.00 Build 0)  -->
<svg version="1.1" id="robot" xmlns="http://www.w3.org/2000/svg" xmlns:xlink="http://www.w3.org/1999/xlink" x="0px" y="0px"
	 viewBox="0 0 130.61 219.9" style="enable-background:new 0 0 130.61 219.9;" xml:space="preserve">
<style type="text/css">
	.st0{fill-rule:evenodd;clip-rule:evenodd;fill:#1B211F;}
	.st1{fill-rule:evenodd;clip-rule:evenodd;fill:#2D3330;}
	.st2{fill-rule:evenodd;clip-rule:evenodd;fill:#444F49;}
	.st3{fill-rule:evenodd;clip-rule:evenodd;fill:#242B28;}
	.st4{fill-rule:evenodd;clip-rule:evenodd;fill:#2F3833;}
	.st5{fill-rule:evenodd;clip-rule:evenodd;fill:#131716;}
	.st6{fill-rule:evenodd;clip-rule:evenodd;fill:#3A9C9C;}
	.st7{fill-rule:evenodd;clip-rule:evenodd;fill:#2C7E82;}
	.st8{fill-rule:evenodd;clip-rule:evenodd;fill:#44BDBD;}
	.st9{fill-rule:evenodd;clip-rule:evenodd;fill:#232A27;}
	.st10{fill-rule:evenodd;clip-rule:evenodd;fill:#266363;}
	.st11{fill-rule:evenodd;clip-rule:evenodd;fill:#133B3B;}
	.st12{fill-rule:evenodd;clip-rule:evenodd;fill:#328282;}
	.st13{fill-rule:evenodd;clip-rule:evenodd;fill:#3D4034;}
	.st14{fill-rule:evenodd;clip-rule:evenodd;fill:#336666;}
	.st15{fill-rule:evenodd;clip-rule:evenodd;fill:url(#SVGID_1_);}
	.st16{fill-rule:evenodd;clip-rule:evenodd;fill:#00CCFF;}
	.st17{fill:#00CCFF;}
	.st18{fill-rule:evenodd;clip-rule:evenodd;fill:#277878;}
	.st19{fill-rule:evenodd;clip-rule:evenodd;fill:#1B494F;}
	.st20{fill-rule:evenodd;clip-rule:evenodd;fill:url(#SVGID_00000132072484593285137790000017510594480367328417_);}
	.st21{fill-rule:evenodd;clip-rule:evenodd;fill:#123236;}
	.st22{fill-rule:evenodd;clip-rule:evenodd;fill:#1C0B1B;}
	.st23{fill-rule:evenodd;clip-rule:evenodd;fill:#75652B;}
	.st24{fill-rule:evenodd;clip-rule:evenodd;fill:url(#SVGID_00000127039351090100424080000008974145931458161590_);}
	.st25{fill-rule:evenodd;clip-rule:evenodd;fill:#EBE2BB;}
	.st26{fill-rule:evenodd;clip-rule:evenodd;fill:#380D13;}
	.st27{fill-rule:evenodd;clip-rule:evenodd;fill:#611C1C;}
	.st28{fill-rule:evenodd;clip-rule:evenodd;fill:#370F31;}
	.st29{fill-rule:evenodd;clip-rule:evenodd;fill:#260D24;}
	.st30{fill-rule:evenodd;clip-rule:evenodd;fill:#F19B78;}
	.st31{fill-rule:evenodd;clip-rule:evenodd;fill:#E67056;}
	.st32{fill-rule:evenodd;clip-rule:evenodd;fill:#FFB294;}
	.st33{fill-rule:evenodd;clip-rule:evenodd;fill:url(#SVGID_00000152266152650245537860000014955829416633380010_);}
	.st34{fill-rule:evenodd;clip-rule:evenodd;fill:#BA3B1C;}
	.st35{fill-rule:evenodd;clip-rule:evenodd;fill:#F6CA96;}
	.st36{fill-rule:evenodd;clip-rule:evenodd;fill:#3B180F;}
	.st37{fill-rule:evenodd;clip-rule:evenodd;fill:#E66F55;}
	.st38{fill-rule:evenodd;clip-rule:evenodd;fill:#991E0E;}
	.st39{fill-rule:evenodd;clip-rule:evenodd;fill:#FFB496;}
	.st40{fill-rule:evenodd;clip-rule:evenodd;fill:#59211F;}
	.st41{fill-rule:evenodd;clip-rule:evenodd;fill:#F07464;}
	.st42{fill-rule:evenodd;clip-rule:evenodd;fill:#BD3E28;}
	.st43{fill-rule:evenodd;clip-rule:evenodd;fill:#A83200;}
	.st44{fill-rule:evenodd;clip-rule:evenodd;fill:#FF9587;}
	.st45{fill-rule:evenodd;clip-rule:evenodd;fill:#E65745;}
	.st46{fill-rule:evenodd;clip-rule:evenodd;fill:#D84B3C;}
	.st47{fill-rule:evenodd;clip-rule:evenodd;fill:#B83228;}
	.st48{fill-rule:evenodd;clip-rule:evenodd;fill:#FFFFF5;}
	.st49{fill-rule:evenodd;clip-rule:evenodd;fill:#FFFFCC;}
	.st50{fill-rule:evenodd;clip-rule:evenodd;fill:#D9D9C5;}
	.st51{fill-rule:evenodd;clip-rule:evenodd;fill:#0A0706;}
	.st52{fill-rule:evenodd;clip-rule:evenodd;fill:#8F7B35;}
	.st53{fill-rule:evenodd;clip-rule:evenodd;fill:#361433;}
	.st54{fill-rule:evenodd;clip-rule:evenodd;fill:#170916;}
	.st55{fill-rule:evenodd;clip-rule:evenodd;fill:#120711;}
	.st56{fill-rule:evenodd;clip-rule:evenodd;fill:#471817;}
	.st57{fill-rule:evenodd;clip-rule:evenodd;fill:#6E2F23;}
	.st58{fill-rule:evenodd;clip-rule:evenodd;fill:#E6654F;}
	.st59{fill-rule:evenodd;clip-rule:evenodd;fill:#FFC3A3;}
	.st60{fill-rule:evenodd;clip-rule:evenodd;fill:#E65D49;}
	.st61{fill-rule:evenodd;clip-rule:evenodd;fill:#FFDCC9;}
	.st62{fill-rule:evenodd;clip-rule:evenodd;fill:#5C4E1E;}
	.st63{fill-rule:evenodd;clip-rule:evenodd;fill:#4D1C49;}
	.st64{fill-rule:evenodd;clip-rule:evenodd;fill:url(#SVGID_00000134245776559121080180000007831690847867065757_);}
	.st65{fill-rule:evenodd;clip-rule:evenodd;fill:url(#SVGID_00000058564040752874813660000002184014253211194788_);}
	.st66{fill-rule:evenodd;clip-rule:evenodd;fill:url(#SVGID_00000056395628626571921520000002444398361350035366_);}
	.st67{fill-rule:evenodd;clip-rule:evenodd;fill:url(#SVGID_00000015329699273460432090000007498914989650022532_);}
	.st68{fill-rule:evenodd;clip-rule:evenodd;fill:url(#SVGID_00000146461740353340635130000009886164699753881481_);}
	.st69{fill-rule:evenodd;clip-rule:evenodd;fill:url(#SVGID_00000159437902755512639520000001025387842354928061_);}
	.st70{fill-rule:evenodd;clip-rule:evenodd;fill:none;stroke:#565656;stroke-width:7;stroke-linecap:round;stroke-miterlimit:10;}
	.st71{fill-rule:evenodd;clip-rule:evenodd;fill:url(#SVGID_00000138554121995884947170000017964901715065176739_);}
	.st72{fill-rule:evenodd;clip-rule:evenodd;fill:url(#SVGID_00000158002688883125246640000016370953672355208362_);}
	.st73{fill-rule:evenodd;clip-rule:evenodd;fill:#D13C30;}
	.st74{fill-rule:evenodd;clip-rule:evenodd;fill:url(#SVGID_00000053505792394414001500000007241407871386521776_);}
	.st75{fill-rule:evenodd;clip-rule:evenodd;fill:url(#SVGID_00000048459237886642973420000000548398195246653082_);}
	.st76{fill-rule:evenodd;clip-rule:evenodd;fill:url(#SVGID_00000150818541473586155720000010270094093639127209_);}
	.st77{fill-rule:evenodd;clip-rule:evenodd;fill:url(#SVGID_00000127737135789348346110000011510699366322692747_);}
</style>
<g>
	<path class="st70" d="M78.53,195.14c6.67-31.92,12.7-87.05-11.59-144.39c-4.68-11.05-18.02-25.9-24.77-31.04"/>
	<g>
		<path class="st13" d="M56.59,199.36c-22.41-24.05-34.79-41.57-37.15-52.58c-2.78-12.97,5.4-18.05,24.54-15.23l-0.54,4.41
			c-16.17-2.38-24.34-0.41-21.91,10.72c2.19,10.22,14.59,25.23,36.59,48.85L56.59,199.36z"/>
		<path class="st5" d="M43.39,200.19c-23.36-21.66-30.91-31.9-32.79-42.36c-2.21-12.32,7.26-17.78,28.43-16.37l-0.9,4.29
			c-59.12-4.69-1.6,39.6,11.12,51.38L43.39,200.19z"/>
		<path class="st1" d="M33.7,125.03c1.23-6.26,49.23-11.46,66.54-14.58c13.69-2.47,4.79,28.3,16.64,59.9
			c1.37,3.66-7.52,21.77-7.52,21.77l-57.56,6.88C51.8,198.99,28.35,125.49,33.7,125.03z"/>
		<path class="st3" d="M54.84,131.94l15.23,46.81l43.52-6.91l-1.44,13.89l-61.66,9.29c0,0-17.51-64.08-16.25-61.88
			C35.5,135.36,54.84,131.94,54.84,131.94z"/>
		<path class="st14" d="M35.24,135.52c2.12-1.53,17.94-6.38,21.97,5.86c4.03,12.23,13.59,39.97,13.59,39.97
			s-12.55-44.21-11.07-47.98c1.49-3.77,7.01-6.42,11.67-7.82c4.66-1.4,18.3-4.11,18.3-4.11s-54.13,8.46-55.36,9.3
			C33.12,131.57,35.24,135.52,35.24,135.52z"/>
		<linearGradient id="SVGID_1_" gradientUnits="userSpaceOnUse" x1="40.3462" y1="169.0871" x2="113.9415" y2="194.4279">
			<stop  offset="0" style="stop-color:#000000"/>
			<stop  offset="0.38" style="stop-color:#000000"/>
			<stop  offset="0.5" style="stop-color:#00110C"/>
			<stop  offset="1" style="stop-color:#001512"/>
		</linearGradient>
		<path class="st15" d="M46.61,168.29c0,0,11.87,10.32,17.79,11c5.92,0.67,49.19-7.43,49.19-7.43l-1.44,13.89l-61.66,9.29
			L46.61,168.29z"/>
		<g>
			
				<rect x="70.4" y="143.26" transform="matrix(0.6589 0.7523 -0.7523 0.6589 135.3626 -10.4795)" class="st16" width="17.67" height="1.49"/>
			
				<rect x="70.17" y="143.51" transform="matrix(6.123234e-17 -1 1 6.123234e-17 -65.0874 223.3636)" class="st16" width="17.94" height="1.44"/>
			
				<rect x="83.22" y="140.43" transform="matrix(0.6589 0.7523 -0.7523 0.6589 137.6078 -21.0875)" class="st16" width="17.67" height="1.49"/>
			
				<rect x="82.99" y="140.68" transform="matrix(6.123234e-17 -1 1 6.123234e-17 -49.44 233.354)" class="st16" width="17.94" height="1.44"/>
			<polygon class="st16" points="94.89,155.25 93.59,155.66 93.11,154.17 91.57,154.66 91.16,153.36 88.55,154.19 88.97,155.5 
				87.62,155.93 88.1,157.42 86.75,157.85 87.58,160.45 88.93,160.02 89.38,161.41 90.72,160.98 91.14,162.29 93.74,161.45 
				93.33,160.15 94.87,159.66 94.42,158.27 95.72,157.85 			"/>
		</g>
	</g>
	<path class="st70" d="M118.65,185.65c0,0-37.01,17-68.41,13.04"/>
</g>
</svg>
