<?xml version="1.0" encoding="utf-8"?>
<!-- Generator: Adobe Illustrator 26.2.1, SVG Export Plug-In . SVG Version: 6.00 Build 0)  -->
<svg version="1.1" id="robot" xmlns="http://www.w3.org/2000/svg" xmlns:xlink="http://www.w3.org/1999/xlink" x="0px" y="0px"
	 viewBox="0 0 36.69 129.63" style="enable-background:new 0 0 36.69 129.63;" xml:space="preserve">
<style type="text/css">
	.st0{fill-rule:evenodd;clip-rule:evenodd;fill:#1B211F;}
	.st1{fill-rule:evenodd;clip-rule:evenodd;fill:#2D3330;}
	.st2{fill-rule:evenodd;clip-rule:evenodd;fill:#444F49;}
	.st3{fill-rule:evenodd;clip-rule:evenodd;fill:#242B28;}
	.st4{fill-rule:evenodd;clip-rule:evenodd;fill:#2F3833;}
	.st5{fill-rule:evenodd;clip-rule:evenodd;fill:#131716;}
	.st6{fill-rule:evenodd;clip-rule:evenodd;fill:#3A9C9C;}
	.st7{fill-rule:evenodd;clip-rule:evenodd;fill:#2C7E82;}
	.st8{fill-rule:evenodd;clip-rule:evenodd;fill:#44BDBD;}
	.st9{fill-rule:evenodd;clip-rule:evenodd;fill:#232A27;}
	.st10{fill-rule:evenodd;clip-rule:evenodd;fill:#266363;}
	.st11{fill-rule:evenodd;clip-rule:evenodd;fill:#133B3B;}
	.st12{fill-rule:evenodd;clip-rule:evenodd;fill:#328282;}
	.st13{fill-rule:evenodd;clip-rule:evenodd;fill:#3D4034;}
	.st14{fill-rule:evenodd;clip-rule:evenodd;fill:#336666;}
	.st15{fill-rule:evenodd;clip-rule:evenodd;fill:url(#SVGID_1_);}
	.st16{fill-rule:evenodd;clip-rule:evenodd;fill:#00CCFF;}
	.st17{fill:#00CCFF;}
	.st18{fill-rule:evenodd;clip-rule:evenodd;fill:#277878;}
	.st19{fill-rule:evenodd;clip-rule:evenodd;fill:#1B494F;}
	.st20{fill-rule:evenodd;clip-rule:evenodd;fill:url(#SVGID_00000113335947086005039070000011105016149015343276_);}
	.st21{fill-rule:evenodd;clip-rule:evenodd;fill:#123236;}
	.st22{fill-rule:evenodd;clip-rule:evenodd;fill:#1C0B1B;}
	.st23{fill-rule:evenodd;clip-rule:evenodd;fill:#75652B;}
	.st24{fill-rule:evenodd;clip-rule:evenodd;fill:url(#SVGID_00000093871048707030701440000001952324271613292946_);}
	.st25{fill-rule:evenodd;clip-rule:evenodd;fill:#EBE2BB;}
	.st26{fill-rule:evenodd;clip-rule:evenodd;fill:#380D13;}
	.st27{fill-rule:evenodd;clip-rule:evenodd;fill:#611C1C;}
	.st28{fill-rule:evenodd;clip-rule:evenodd;fill:#370F31;}
	.st29{fill-rule:evenodd;clip-rule:evenodd;fill:#260D24;}
	.st30{fill-rule:evenodd;clip-rule:evenodd;fill:#F19B78;}
	.st31{fill-rule:evenodd;clip-rule:evenodd;fill:#E67056;}
	.st32{fill-rule:evenodd;clip-rule:evenodd;fill:#FFB294;}
	.st33{fill-rule:evenodd;clip-rule:evenodd;fill:url(#SVGID_00000106127902936096351360000010149216049715480211_);}
	.st34{fill-rule:evenodd;clip-rule:evenodd;fill:#BA3B1C;}
	.st35{fill-rule:evenodd;clip-rule:evenodd;fill:#F6CA96;}
	.st36{fill-rule:evenodd;clip-rule:evenodd;fill:#3B180F;}
	.st37{fill-rule:evenodd;clip-rule:evenodd;fill:#E66F55;}
	.st38{fill-rule:evenodd;clip-rule:evenodd;fill:#991E0E;}
	.st39{fill-rule:evenodd;clip-rule:evenodd;fill:#FFB496;}
	.st40{fill-rule:evenodd;clip-rule:evenodd;fill:#59211F;}
	.st41{fill-rule:evenodd;clip-rule:evenodd;fill:#F07464;}
	.st42{fill-rule:evenodd;clip-rule:evenodd;fill:#BD3E28;}
	.st43{fill-rule:evenodd;clip-rule:evenodd;fill:#A83200;}
	.st44{fill-rule:evenodd;clip-rule:evenodd;fill:#FF9587;}
	.st45{fill-rule:evenodd;clip-rule:evenodd;fill:#E65745;}
	.st46{fill-rule:evenodd;clip-rule:evenodd;fill:#D84B3C;}
	.st47{fill-rule:evenodd;clip-rule:evenodd;fill:#B83228;}
	.st48{fill-rule:evenodd;clip-rule:evenodd;fill:#FFFFF5;}
	.st49{fill-rule:evenodd;clip-rule:evenodd;fill:#FFFFCC;}
	.st50{fill-rule:evenodd;clip-rule:evenodd;fill:#D9D9C5;}
	.st51{fill-rule:evenodd;clip-rule:evenodd;fill:#0A0706;}
	.st52{fill-rule:evenodd;clip-rule:evenodd;fill:#8F7B35;}
	.st53{fill-rule:evenodd;clip-rule:evenodd;fill:#361433;}
	.st54{fill-rule:evenodd;clip-rule:evenodd;fill:#170916;}
	.st55{fill-rule:evenodd;clip-rule:evenodd;fill:#120711;}
	.st56{fill-rule:evenodd;clip-rule:evenodd;fill:#471817;}
	.st57{fill-rule:evenodd;clip-rule:evenodd;fill:#6E2F23;}
	.st58{fill-rule:evenodd;clip-rule:evenodd;fill:#E6654F;}
	.st59{fill-rule:evenodd;clip-rule:evenodd;fill:#FFC3A3;}
	.st60{fill-rule:evenodd;clip-rule:evenodd;fill:#E65D49;}
	.st61{fill-rule:evenodd;clip-rule:evenodd;fill:#FFDCC9;}
	.st62{fill-rule:evenodd;clip-rule:evenodd;fill:#5C4E1E;}
	.st63{fill-rule:evenodd;clip-rule:evenodd;fill:#4D1C49;}
	.st64{fill-rule:evenodd;clip-rule:evenodd;fill:url(#SVGID_00000138540490547052388320000002769033745994187952_);}
	.st65{fill-rule:evenodd;clip-rule:evenodd;fill:url(#SVGID_00000168831580105277759180000016862644591991192735_);}
	.st66{fill-rule:evenodd;clip-rule:evenodd;fill:url(#SVGID_00000058568227253486638290000006555532895869947528_);}
	.st67{fill-rule:evenodd;clip-rule:evenodd;fill:url(#SVGID_00000028323181318311763590000015220924499631952769_);}
	.st68{fill-rule:evenodd;clip-rule:evenodd;fill:url(#SVGID_00000094596305300530098970000009864170758289972888_);}
	.st69{fill-rule:evenodd;clip-rule:evenodd;fill:url(#SVGID_00000131363364713603694710000000362302985468396687_);}
	.st70{fill-rule:evenodd;clip-rule:evenodd;fill:none;stroke:#565656;stroke-width:7;stroke-linecap:round;stroke-miterlimit:10;}
	.st71{fill-rule:evenodd;clip-rule:evenodd;fill:url(#SVGID_00000043440244163762765590000015185625802614051254_);}
	.st72{fill-rule:evenodd;clip-rule:evenodd;fill:url(#SVGID_00000095317343255894272380000011844479134622494599_);}
	.st73{fill-rule:evenodd;clip-rule:evenodd;fill:#D13C30;}
	.st74{fill-rule:evenodd;clip-rule:evenodd;fill:url(#SVGID_00000168097660562797866700000017479264307436348600_);}
	.st75{fill-rule:evenodd;clip-rule:evenodd;fill:url(#SVGID_00000084520010410804908280000017500643985603566987_);}
	.st76{fill-rule:evenodd;clip-rule:evenodd;fill:url(#SVGID_00000175312040695281641850000016449310424848518545_);}
	.st77{fill-rule:evenodd;clip-rule:evenodd;fill:url(#SVGID_00000065777787209356129440000004362271241757596345_);}
</style>
<g>
	<g>
		<path class="st5" d="M25.64,45.95c5.63,9.45,8.39,16.07,8.28,19.87C33.77,70.3,30,71.2,23.7,68.98l0.31-1.24
			c16.15,3.4,3.65-15.45,0.59-20.6L25.64,45.95z"/>
		<path class="st3" d="M25.92,35.67l-3.08-25.21L9.37,18.55L4.92,41.6c0,0-1.12,3.05,3.21,4.81c4.33,1.76,3.37,6.89,3.37,6.89
			l14.27-5.29c0,0,0.52-3.18-0.37-4.25c-0.89-1.08-2.08-2.13-2.08-2.13S27.31,41.06,25.92,35.67z"/>
		<polygon class="st4" points="19.04,16.06 20.21,34.51 14.56,36.21 14.4,25.07 11.68,25.97 10.82,36.75 5.55,38.34 8.89,21.07 		
			"/>
		<path class="st5" d="M9.37,18.55l10.94-4.87l1.82,18.36l3.58,1.86l-2.23-24L9.37,18.55L9.37,18.55z M21.74,34.09
			c1.68-0.56,3.61,0.71,4.31,2.82c0.71,2.12-0.08,4.29-1.76,4.85c-1.68,0.56-3.61-0.71-4.31-2.82
			C19.28,36.82,20.06,34.65,21.74,34.09z"/>
		<path class="st5" d="M17.75,38.74L6.37,42.39c0,0,1.56,2.44,3.11,2.67c1.56,0.22,8.31-1.73,8.31-1.73l0.47,4.57l7.8-1.2
			l-0.67-2.92l-1.8-1.87c0,0-1.87,0.85-2.88,0.21c-1.01-0.64-2.15-3.77-2.15-3.77L17.75,38.74z"/>
	</g>
	<path class="st5" d="M17.55,5.22L9.37,18.55l11.56-5.57l2.1,5.08l-0.84,5.07L33,25.67L26.84,10.1C26.84,10.1,23.21,6.35,17.55,5.22
		z"/>
	<g>
		<path class="st5" d="M17.97,47.41C11.29,54.62,7.78,59.86,7.45,63.12c-0.39,3.84,2.65,5.3,9.13,4.37l-0.38-1.3
			c-16.36,0.43-0.99-13.68,2.64-17.61L17.97,47.41z"/>
		<path class="st9" d="M14.3,51.55l4.64-7.46l1.71,8.49l-2.5,7.48l2.9,0.75c0,0-0.14,2.97,1.01,4.62c1.15,1.65,2.94,2.04,2.94,2.04
			l-0.59,29.32l-10.68,0.86L14.3,51.55z"/>
		<path class="st4" d="M19.08,97.24l-0.93-37.17l2.9,0.75c0,0-0.28,3.35,1.01,4.62c1.29,1.28,2.94,2.04,2.94,2.04l-2.45,29.47
			L19.08,97.24z"/>
		<path class="st5" d="M18.15,60.07l0.93,37.17l-5.34,0.43l0.06-5.19c0,0,2.23-11.73,2.7-20.29c0.46-8.56-0.03-11.33-0.03-11.33
			l-2.28-0.03l0.11-9.28l4.64-7.46l-1.67,13.74l5.22,2.59l-1.44,0.39L18.15,60.07z"/>
	</g>
	<g>
		
			<linearGradient id="SVGID_1_" gradientUnits="userSpaceOnUse" x1="716.3104" y1="-612.4547" x2="676.2587" y2="-651.1322" gradientTransform="matrix(0.0877 0.9961 0.9961 -0.0877 587.5127 -641.5831)">
			<stop  offset="0" style="stop-color:#095C5B"/>
			<stop  offset="1" style="stop-color:#00252B"/>
		</linearGradient>
		<polygon class="st15" points="24.64,124.01 10.09,123.86 6.84,111.46 11.02,90.86 27.02,89.84 28.01,92.14 27.04,100.58 
			30.47,100.8 27.51,123.9 		"/>
		<polygon class="st21" points="24.86,117.66 11.52,116.28 12.95,121.94 20.08,121.85 20.08,119.47 25.77,119.76 28.75,100.69 
			27.04,100.59 		"/>
		<polygon class="st6" points="27.02,89.84 11.8,87.02 6.84,111.46 24.73,114.01 		"/>
		<polygon class="st8" points="10.19,108.63 24.73,114.01 6.84,111.46 11.8,87.02 		"/>
		
			<linearGradient id="SVGID_00000100361489220857983920000004172624192730129301_" gradientUnits="userSpaceOnUse" x1="715.9004" y1="-612.0238" x2="675.8486" y2="-650.7014" gradientTransform="matrix(0.0877 0.9961 0.9961 -0.0877 587.5127 -641.5831)">
			<stop  offset="0" style="stop-color:#095C5B"/>
			<stop  offset="1" style="stop-color:#00252B"/>
		</linearGradient>
		
			<polygon style="fill-rule:evenodd;clip-rule:evenodd;fill:url(#SVGID_00000100361489220857983920000004172624192730129301_);" points="
			25.03,123.56 10.49,123.41 7.23,111.01 11.41,90.41 27.41,89.4 28.41,91.69 27.43,100.14 30.86,100.35 27.91,123.45 		"/>
		<polygon class="st21" points="25.25,117.21 11.91,115.84 13.35,121.5 20.47,121.4 20.47,119.02 26.16,119.31 29.15,100.24 
			27.43,100.14 		"/>
	</g>
</g>
</svg>
