<?xml version="1.0" encoding="utf-8"?>
<!-- Generator: Adobe Illustrator 26.2.1, SVG Export Plug-In . SVG Version: 6.00 Build 0)  -->
<svg version="1.1" id="robot" xmlns="http://www.w3.org/2000/svg" xmlns:xlink="http://www.w3.org/1999/xlink" x="0px" y="0px"
	 viewBox="0 0 130.61 219.9" style="enable-background:new 0 0 130.61 219.9;" xml:space="preserve">
<style type="text/css">
	.st0{fill-rule:evenodd;clip-rule:evenodd;fill:#1B211F;}
	.st1{fill-rule:evenodd;clip-rule:evenodd;fill:#2D3330;}
	.st2{fill-rule:evenodd;clip-rule:evenodd;fill:#444F49;}
	.st3{fill-rule:evenodd;clip-rule:evenodd;fill:#242B28;}
	.st4{fill-rule:evenodd;clip-rule:evenodd;fill:#2F3833;}
	.st5{fill-rule:evenodd;clip-rule:evenodd;fill:#131716;}
	.st6{fill-rule:evenodd;clip-rule:evenodd;fill:#3A9C9C;}
	.st7{fill-rule:evenodd;clip-rule:evenodd;fill:#2C7E82;}
	.st8{fill-rule:evenodd;clip-rule:evenodd;fill:#44BDBD;}
	.st9{fill-rule:evenodd;clip-rule:evenodd;fill:#232A27;}
	.st10{fill-rule:evenodd;clip-rule:evenodd;fill:#266363;}
	.st11{fill-rule:evenodd;clip-rule:evenodd;fill:#133B3B;}
	.st12{fill-rule:evenodd;clip-rule:evenodd;fill:#328282;}
	.st13{fill-rule:evenodd;clip-rule:evenodd;fill:#3D4034;}
	.st14{fill-rule:evenodd;clip-rule:evenodd;fill:#336666;}
	.st15{fill-rule:evenodd;clip-rule:evenodd;fill:url(#SVGID_1_);}
	.st16{fill-rule:evenodd;clip-rule:evenodd;fill:#00CCFF;}
	.st17{fill:#00CCFF;}
	.st18{fill-rule:evenodd;clip-rule:evenodd;fill:#277878;}
	.st19{fill-rule:evenodd;clip-rule:evenodd;fill:#1B494F;}
	.st20{fill-rule:evenodd;clip-rule:evenodd;fill:url(#SVGID_00000029751404816091460960000009420034404241650095_);}
	.st21{fill-rule:evenodd;clip-rule:evenodd;fill:#123236;}
	.st22{fill-rule:evenodd;clip-rule:evenodd;fill:#1C0B1B;}
	.st23{fill-rule:evenodd;clip-rule:evenodd;fill:#75652B;}
	.st24{fill-rule:evenodd;clip-rule:evenodd;fill:url(#SVGID_00000178199747964191281290000015836850711285854902_);}
	.st25{fill-rule:evenodd;clip-rule:evenodd;fill:#EBE2BB;}
	.st26{fill-rule:evenodd;clip-rule:evenodd;fill:#380D13;}
	.st27{fill-rule:evenodd;clip-rule:evenodd;fill:#611C1C;}
	.st28{fill-rule:evenodd;clip-rule:evenodd;fill:#370F31;}
	.st29{fill-rule:evenodd;clip-rule:evenodd;fill:#260D24;}
	.st30{fill-rule:evenodd;clip-rule:evenodd;fill:#F19B78;}
	.st31{fill-rule:evenodd;clip-rule:evenodd;fill:#E67056;}
	.st32{fill-rule:evenodd;clip-rule:evenodd;fill:#FFB294;}
	.st33{fill-rule:evenodd;clip-rule:evenodd;fill:url(#SVGID_00000061457281487863922780000001310324508773733790_);}
	.st34{fill-rule:evenodd;clip-rule:evenodd;fill:#BA3B1C;}
	.st35{fill-rule:evenodd;clip-rule:evenodd;fill:#F6CA96;}
	.st36{fill-rule:evenodd;clip-rule:evenodd;fill:#3B180F;}
	.st37{fill-rule:evenodd;clip-rule:evenodd;fill:#E66F55;}
	.st38{fill-rule:evenodd;clip-rule:evenodd;fill:#991E0E;}
	.st39{fill-rule:evenodd;clip-rule:evenodd;fill:#FFB496;}
	.st40{fill-rule:evenodd;clip-rule:evenodd;fill:#59211F;}
	.st41{fill-rule:evenodd;clip-rule:evenodd;fill:#F07464;}
	.st42{fill-rule:evenodd;clip-rule:evenodd;fill:#BD3E28;}
	.st43{fill-rule:evenodd;clip-rule:evenodd;fill:#A83200;}
	.st44{fill-rule:evenodd;clip-rule:evenodd;fill:#FF9587;}
	.st45{fill-rule:evenodd;clip-rule:evenodd;fill:#E65745;}
	.st46{fill-rule:evenodd;clip-rule:evenodd;fill:#D84B3C;}
	.st47{fill-rule:evenodd;clip-rule:evenodd;fill:#B83228;}
	.st48{fill-rule:evenodd;clip-rule:evenodd;fill:#FFFFF5;}
	.st49{fill-rule:evenodd;clip-rule:evenodd;fill:#FFFFCC;}
	.st50{fill-rule:evenodd;clip-rule:evenodd;fill:#D9D9C5;}
	.st51{fill-rule:evenodd;clip-rule:evenodd;fill:#0A0706;}
	.st52{fill-rule:evenodd;clip-rule:evenodd;fill:#8F7B35;}
	.st53{fill-rule:evenodd;clip-rule:evenodd;fill:#361433;}
	.st54{fill-rule:evenodd;clip-rule:evenodd;fill:#170916;}
	.st55{fill-rule:evenodd;clip-rule:evenodd;fill:#120711;}
	.st56{fill-rule:evenodd;clip-rule:evenodd;fill:#471817;}
	.st57{fill-rule:evenodd;clip-rule:evenodd;fill:#6E2F23;}
	.st58{fill-rule:evenodd;clip-rule:evenodd;fill:#E6654F;}
	.st59{fill-rule:evenodd;clip-rule:evenodd;fill:#FFC3A3;}
	.st60{fill-rule:evenodd;clip-rule:evenodd;fill:#E65D49;}
	.st61{fill-rule:evenodd;clip-rule:evenodd;fill:#FFDCC9;}
	.st62{fill-rule:evenodd;clip-rule:evenodd;fill:#5C4E1E;}
	.st63{fill-rule:evenodd;clip-rule:evenodd;fill:#4D1C49;}
	.st64{fill-rule:evenodd;clip-rule:evenodd;fill:url(#SVGID_00000124867317857158199140000007212281733302520730_);}
	.st65{fill-rule:evenodd;clip-rule:evenodd;fill:url(#SVGID_00000050652629869992592050000004433335237055132088_);}
	.st66{fill-rule:evenodd;clip-rule:evenodd;fill:url(#SVGID_00000163783137575431265120000008533293972783063437_);}
	.st67{fill-rule:evenodd;clip-rule:evenodd;fill:url(#SVGID_00000155838998991258869890000000113994811835335070_);}
	.st68{fill-rule:evenodd;clip-rule:evenodd;fill:url(#SVGID_00000082332514639058045710000008871586301634084757_);}
	.st69{fill-rule:evenodd;clip-rule:evenodd;fill:url(#SVGID_00000047776895229828180900000009344141807342613909_);}
	.st70{fill-rule:evenodd;clip-rule:evenodd;fill:none;stroke:#565656;stroke-width:7;stroke-linecap:round;stroke-miterlimit:10;}
	.st71{fill-rule:evenodd;clip-rule:evenodd;fill:url(#SVGID_00000097460426973303020480000005430974723106892220_);}
	.st72{fill-rule:evenodd;clip-rule:evenodd;fill:url(#SVGID_00000061472294258513375620000008733292098535189167_);}
	.st73{fill-rule:evenodd;clip-rule:evenodd;fill:#D13C30;}
	.st74{fill-rule:evenodd;clip-rule:evenodd;fill:url(#SVGID_00000072241838939254246230000013057418805641978754_);}
	.st75{fill-rule:evenodd;clip-rule:evenodd;fill:url(#SVGID_00000180331929571095598670000008205198044830008499_);}
	.st76{fill-rule:evenodd;clip-rule:evenodd;fill:url(#SVGID_00000118359562100175771650000006951069068035931056_);}
	.st77{fill-rule:evenodd;clip-rule:evenodd;fill:url(#SVGID_00000008121541505588520040000010907148341392308610_);}
</style>
<g>
	<path class="st70" d="M81.32,188.27c6.67-31.92,12.7-87.05-11.59-144.39c-4.68-11.05-18.02-25.9-24.77-31.04"/>
	<g>
		<path class="st13" d="M59.39,202.97c-22.41-24.05-34.79-41.57-37.15-52.58c-2.78-12.97,5.4-18.05,24.54-15.23l-0.54,4.41
			c-16.17-2.38-24.34-0.41-21.91,10.72c2.19,10.22,14.59,25.23,36.59,48.85L59.39,202.97z"/>
		<path class="st5" d="M51.25,209.61c-23.36-21.66-35.98-37.71-37.85-48.17c-2.21-12.32,7.26-17.78,28.43-16.37l-0.9,4.29
			c-59.12-4.69,0.16,44.43,12.88,56.22L51.25,209.61z"/>
		<path class="st1" d="M36.51,128.64c1.23-6.26,49.23-11.46,66.54-14.58c13.69-2.47,4.79,28.3,16.64,59.9
			c1.37,3.66-7.52,21.77-7.52,21.77L54.6,202.6C54.6,202.6,31.15,129.09,36.51,128.64z"/>
		<path class="st3" d="M57.64,135.55l15.23,46.81l43.52-6.91l-1.44,13.89l-61.66,9.29c0,0-17.51-64.08-16.25-61.88
			C38.3,138.97,57.64,135.55,57.64,135.55z"/>
		<path class="st14" d="M38.04,139.13c2.12-1.53,17.94-6.38,21.97,5.86c4.03,12.23,13.59,39.97,13.59,39.97
			s-12.55-44.21-11.07-47.98c1.49-3.77,7.01-6.42,11.67-7.82s18.3-4.11,18.3-4.11s-54.13,8.46-55.36,9.3
			C35.92,135.18,38.04,139.13,38.04,139.13z"/>
		<linearGradient id="SVGID_1_" gradientUnits="userSpaceOnUse" x1="43.147" y1="172.6937" x2="116.7422" y2="198.0346">
			<stop  offset="0" style="stop-color:#000000"/>
			<stop  offset="0.38" style="stop-color:#000000"/>
			<stop  offset="0.5" style="stop-color:#00110C"/>
			<stop  offset="1" style="stop-color:#001512"/>
		</linearGradient>
		<path class="st15" d="M49.41,171.89c0,0,11.87,10.32,17.79,11c5.92,0.67,49.19-7.43,49.19-7.43l-1.44,13.89l-61.66,9.29
			L49.41,171.89z"/>
		<polygon class="st16" points="103.7,156.65 85.72,162.85 85.22,163.02 84.87,162.63 81.33,158.72 81.01,163.8 80.88,165.91 
			79.59,164.23 77,160.87 72.36,162.49 71.84,160.99 77.02,159.18 77.56,158.99 77.91,159.44 79.56,161.59 79.87,156.74 
			79.98,154.86 81.25,156.26 85.69,161.18 103.18,155.15 		"/>
		<g>
			<polygon class="st16" points="103.93,156.65 85.94,162.85 85.45,163.02 85.1,162.63 81.56,158.72 81.24,163.8 81.11,165.91 
				79.82,164.23 77.23,160.87 72.59,162.49 72.07,160.99 77.24,159.18 77.79,158.99 78.14,159.44 79.79,161.59 80.09,156.74 
				80.21,154.86 81.48,156.26 85.92,161.18 103.41,155.15 			"/>
			<g>
				<path class="st17" d="M95.17,137l-6.12,4.78c0.11,0.34,0.23,0.68,0.36,1.03c1.74,4.52,4.77,7.56,6.77,6.79
					c2-0.77,2.21-5.06,0.47-9.58C96.22,138.92,95.71,137.9,95.17,137z"/>
				<polygon class="st17" points="99.68,133.48 98.65,132.16 94.22,135.62 88.57,140.03 87.26,141.05 88.29,142.37 89.04,141.78 
					95.17,137 				"/>
			</g>
			<g>
				<path class="st17" d="M83.92,143.14c-0.16-0.41-0.33-0.79-0.5-1.17l-0.06,0.16l-7.79-3.05c-0.24,1.81,0.12,4.3,1.11,6.85
					c1.74,4.52,4.77,7.56,6.77,6.79C85.46,151.95,85.67,147.66,83.92,143.14z"/>
				<polygon class="st17" points="83.42,141.96 83.97,140.56 82.32,139.92 76.04,137.46 70.52,135.29 69.91,136.85 75.58,139.07 
					83.36,142.12 				"/>
			</g>
		</g>
	</g>
	<path class="st70" d="M121.7,185.6c0,0-37.01,17-68.41,13.04"/>
</g>
</svg>
