<?xml version="1.0" encoding="utf-8"?>
<!-- Generator: Adobe Illustrator 26.2.1, SVG Export Plug-In . SVG Version: 6.00 Build 0)  -->
<svg version="1.1" id="robot" xmlns="http://www.w3.org/2000/svg" xmlns:xlink="http://www.w3.org/1999/xlink" x="0px" y="0px"
	 viewBox="0 0 130.61 219.9" style="enable-background:new 0 0 130.61 219.9;" xml:space="preserve">
<style type="text/css">
	.st0{fill-rule:evenodd;clip-rule:evenodd;fill:#1B211F;}
	.st1{fill-rule:evenodd;clip-rule:evenodd;fill:#2D3330;}
	.st2{fill-rule:evenodd;clip-rule:evenodd;fill:#444F49;}
	.st3{fill-rule:evenodd;clip-rule:evenodd;fill:#242B28;}
	.st4{fill-rule:evenodd;clip-rule:evenodd;fill:#2F3833;}
	.st5{fill-rule:evenodd;clip-rule:evenodd;fill:#131716;}
	.st6{fill-rule:evenodd;clip-rule:evenodd;fill:#3A9C9C;}
	.st7{fill-rule:evenodd;clip-rule:evenodd;fill:#2C7E82;}
	.st8{fill-rule:evenodd;clip-rule:evenodd;fill:#44BDBD;}
	.st9{fill-rule:evenodd;clip-rule:evenodd;fill:#232A27;}
	.st10{fill-rule:evenodd;clip-rule:evenodd;fill:#266363;}
	.st11{fill-rule:evenodd;clip-rule:evenodd;fill:#133B3B;}
	.st12{fill-rule:evenodd;clip-rule:evenodd;fill:#328282;}
	.st13{fill-rule:evenodd;clip-rule:evenodd;fill:#3D4034;}
	.st14{fill-rule:evenodd;clip-rule:evenodd;fill:#336666;}
	.st15{fill-rule:evenodd;clip-rule:evenodd;fill:url(#SVGID_1_);}
	.st16{fill-rule:evenodd;clip-rule:evenodd;fill:#00CCFF;}
	.st17{fill:#00CCFF;}
	.st18{fill-rule:evenodd;clip-rule:evenodd;fill:#277878;}
	.st19{fill-rule:evenodd;clip-rule:evenodd;fill:#1B494F;}
	.st20{fill-rule:evenodd;clip-rule:evenodd;fill:url(#SVGID_00000074424199065695536150000008025460849007553464_);}
	.st21{fill-rule:evenodd;clip-rule:evenodd;fill:#123236;}
	.st22{fill-rule:evenodd;clip-rule:evenodd;fill:#1C0B1B;}
	.st23{fill-rule:evenodd;clip-rule:evenodd;fill:#75652B;}
	.st24{fill-rule:evenodd;clip-rule:evenodd;fill:url(#SVGID_00000043436089958944578910000014200670890777694633_);}
	.st25{fill-rule:evenodd;clip-rule:evenodd;fill:#EBE2BB;}
	.st26{fill-rule:evenodd;clip-rule:evenodd;fill:#380D13;}
	.st27{fill-rule:evenodd;clip-rule:evenodd;fill:#611C1C;}
	.st28{fill-rule:evenodd;clip-rule:evenodd;fill:#370F31;}
	.st29{fill-rule:evenodd;clip-rule:evenodd;fill:#260D24;}
	.st30{fill-rule:evenodd;clip-rule:evenodd;fill:#F19B78;}
	.st31{fill-rule:evenodd;clip-rule:evenodd;fill:#E67056;}
	.st32{fill-rule:evenodd;clip-rule:evenodd;fill:#FFB294;}
	.st33{fill-rule:evenodd;clip-rule:evenodd;fill:url(#SVGID_00000017487573834303803130000012390707681357734838_);}
	.st34{fill-rule:evenodd;clip-rule:evenodd;fill:#BA3B1C;}
	.st35{fill-rule:evenodd;clip-rule:evenodd;fill:#F6CA96;}
	.st36{fill-rule:evenodd;clip-rule:evenodd;fill:#3B180F;}
	.st37{fill-rule:evenodd;clip-rule:evenodd;fill:#E66F55;}
	.st38{fill-rule:evenodd;clip-rule:evenodd;fill:#991E0E;}
	.st39{fill-rule:evenodd;clip-rule:evenodd;fill:#FFB496;}
	.st40{fill-rule:evenodd;clip-rule:evenodd;fill:#59211F;}
	.st41{fill-rule:evenodd;clip-rule:evenodd;fill:#F07464;}
	.st42{fill-rule:evenodd;clip-rule:evenodd;fill:#BD3E28;}
	.st43{fill-rule:evenodd;clip-rule:evenodd;fill:#A83200;}
	.st44{fill-rule:evenodd;clip-rule:evenodd;fill:#FF9587;}
	.st45{fill-rule:evenodd;clip-rule:evenodd;fill:#E65745;}
	.st46{fill-rule:evenodd;clip-rule:evenodd;fill:#D84B3C;}
	.st47{fill-rule:evenodd;clip-rule:evenodd;fill:#B83228;}
	.st48{fill-rule:evenodd;clip-rule:evenodd;fill:#FFFFF5;}
	.st49{fill-rule:evenodd;clip-rule:evenodd;fill:#FFFFCC;}
	.st50{fill-rule:evenodd;clip-rule:evenodd;fill:#D9D9C5;}
	.st51{fill-rule:evenodd;clip-rule:evenodd;fill:#0A0706;}
	.st52{fill-rule:evenodd;clip-rule:evenodd;fill:#8F7B35;}
	.st53{fill-rule:evenodd;clip-rule:evenodd;fill:#361433;}
	.st54{fill-rule:evenodd;clip-rule:evenodd;fill:#170916;}
	.st55{fill-rule:evenodd;clip-rule:evenodd;fill:#120711;}
	.st56{fill-rule:evenodd;clip-rule:evenodd;fill:#471817;}
	.st57{fill-rule:evenodd;clip-rule:evenodd;fill:#6E2F23;}
	.st58{fill-rule:evenodd;clip-rule:evenodd;fill:#E6654F;}
	.st59{fill-rule:evenodd;clip-rule:evenodd;fill:#FFC3A3;}
	.st60{fill-rule:evenodd;clip-rule:evenodd;fill:#E65D49;}
	.st61{fill-rule:evenodd;clip-rule:evenodd;fill:#FFDCC9;}
	.st62{fill-rule:evenodd;clip-rule:evenodd;fill:#5C4E1E;}
	.st63{fill-rule:evenodd;clip-rule:evenodd;fill:#4D1C49;}
	.st64{fill-rule:evenodd;clip-rule:evenodd;fill:url(#SVGID_00000162330932312521310700000017291772965675732916_);}
	.st65{fill-rule:evenodd;clip-rule:evenodd;fill:url(#SVGID_00000075122109945309327040000013489388101691634572_);}
	.st66{fill-rule:evenodd;clip-rule:evenodd;fill:url(#SVGID_00000147197355585152738550000002777536866862607746_);}
	.st67{fill-rule:evenodd;clip-rule:evenodd;fill:url(#SVGID_00000035490822421607548250000010862003218291790998_);}
	.st68{fill-rule:evenodd;clip-rule:evenodd;fill:url(#SVGID_00000128464827029794572700000018048887057837072787_);}
	.st69{fill-rule:evenodd;clip-rule:evenodd;fill:url(#SVGID_00000055709243292644482290000008694884191980794242_);}
	.st70{fill-rule:evenodd;clip-rule:evenodd;fill:none;stroke:#565656;stroke-width:7;stroke-linecap:round;stroke-miterlimit:10;}
	.st71{fill-rule:evenodd;clip-rule:evenodd;fill:url(#SVGID_00000136409720068055341150000017416388540967366309_);}
	.st72{fill-rule:evenodd;clip-rule:evenodd;fill:url(#SVGID_00000090280055149465180800000013258050620274086051_);}
	.st73{fill-rule:evenodd;clip-rule:evenodd;fill:#D13C30;}
	.st74{fill-rule:evenodd;clip-rule:evenodd;fill:url(#SVGID_00000008124558227738072740000006741142509028739976_);}
	.st75{fill-rule:evenodd;clip-rule:evenodd;fill:url(#SVGID_00000010276264001635705180000001283444504771068579_);}
	.st76{fill-rule:evenodd;clip-rule:evenodd;fill:url(#SVGID_00000015321316401472587100000005795234338583073192_);}
	.st77{fill-rule:evenodd;clip-rule:evenodd;fill:url(#SVGID_00000098206068565033927240000007896672437224490133_);}
</style>
<g>
	<path class="st70" d="M80.22,196.99c6.67-31.92,12.7-87.05-11.59-144.39c-4.68-11.05-18.02-25.9-24.77-31.04"/>
	<g>
		<path class="st13" d="M55.53,200.41c-22.41-24.05-34.79-41.57-37.15-52.58c-2.78-12.97,5.4-18.05,24.54-15.23L42.38,137
			c-16.17-2.38-24.34-0.41-21.91,10.72c2.19,10.22,14.59,25.23,36.59,48.85L55.53,200.41z"/>
		<path class="st5" d="M46.11,204.46c-23.36-21.66-34.71-35.12-36.59-45.58c-2.21-12.32,7.26-17.78,28.43-16.37l-0.9,4.29
			c-59.12-4.69-0.11,43.24,12.6,55.03L46.11,204.46z"/>
		<path class="st1" d="M32.64,126.07c1.23-6.26,49.23-11.46,66.54-14.58c13.69-2.47,4.79,28.3,16.64,59.9
			c1.37,3.66-7.52,21.77-7.52,21.77l-57.56,6.88C50.74,200.04,27.29,126.53,32.64,126.07z"/>
		<path class="st3" d="M53.78,132.99l15.23,46.81l43.52-6.91l-1.44,13.89l-61.66,9.29c0,0-17.51-64.08-16.25-61.88
			C34.44,136.4,53.78,132.99,53.78,132.99z"/>
		<path class="st14" d="M34.18,136.57c2.12-1.53,17.94-6.38,21.97,5.86c4.03,12.23,13.59,39.97,13.59,39.97
			s-12.55-44.21-11.07-47.98c1.49-3.77,7.01-6.42,11.67-7.83c4.66-1.4,18.3-4.11,18.3-4.11s-54.13,8.46-55.36,9.3
			C32.06,132.62,34.18,136.57,34.18,136.57z"/>
		<linearGradient id="SVGID_1_" gradientUnits="userSpaceOnUse" x1="39.2822" y1="170.13" x2="112.8774" y2="195.4709">
			<stop  offset="0" style="stop-color:#000000"/>
			<stop  offset="0.38" style="stop-color:#000000"/>
			<stop  offset="0.5" style="stop-color:#00110C"/>
			<stop  offset="1" style="stop-color:#001512"/>
		</linearGradient>
		<path class="st15" d="M45.55,169.33c0,0,11.87,10.32,17.79,11c5.92,0.67,49.19-7.43,49.19-7.43l-1.44,13.89l-61.66,9.29
			L45.55,169.33z"/>
		<g>
			<path class="st17" d="M80.63,142.44l-9.28,9.61l-0.57-1.67l7.93-8.01l-0.02-0.05l-11.17-1.49l-0.57-1.67l13.22,1.93L80.63,142.44
				z"/>
			<path class="st17" d="M85.35,140.01l9.27-9.63l0.57,1.67l-7.86,7.99l0.02,0.05l11.1,1.52l0.57,1.67l-13.22-1.96L85.35,140.01z"/>
			<polygon class="st17" points="101.96,148.68 106.62,147.13 106.12,145.62 100.91,147.36 100.37,147.54 100.37,148.12 
				100.38,150.82 97.17,147.18 95.92,145.76 95.78,147.64 95.29,154.05 92.71,150.82 91.38,149.16 91.29,151.28 91.1,155.6 
				91.1,155.67 91.07,156.36 90.58,155.85 90.53,155.79 87.46,152.52 85.26,150.12 83.27,158.29 80.01,154.84 78.56,153.3 
				78.64,155.42 78.8,159.66 78.79,159.69 74.45,154.88 73.18,153.48 73.06,155.36 72.76,160.21 71.11,158.07 70.76,157.61 
				70.21,157.8 65.04,159.61 65.56,161.11 70.2,159.49 72.79,162.86 74.08,164.53 74.21,162.42 74.53,157.34 78.07,161.25 
				78.15,161.35 80.43,163.91 80.43,160.62 80.41,160.17 80.38,159.31 80.38,159.29 80.31,157.47 81.62,158.86 81.64,158.88 
				82.63,159.92 82.82,160.13 83.64,161 84.94,162.37 85.02,160.49 85.17,153.99 85.26,152.5 88.89,156.36 88.93,156.41 
				90.03,157.58 90.08,157.63 91.2,158.82 92.49,160.19 92.57,158.31 92.64,156.75 92.66,156.74 92.64,156.75 92.71,155.13 
				92.71,155.04 92.78,153.46 93.76,154.68 93.82,154.75 94.47,155.57 94.81,156 94.83,156.02 94.85,156.02 96.81,158.34 
				96.82,154.9 97.22,149.64 100.58,153.46 101.98,155.05 101.98,152.93 			"/>
		</g>
	</g>
	<path class="st70" d="M117.4,187.5c0,0-37.01,17-68.41,13.04"/>
</g>
</svg>
