<?xml version="1.0" encoding="utf-8"?>
<!-- Generator: Adobe Illustrator 26.2.1, SVG Export Plug-In . SVG Version: 6.00 Build 0)  -->
<svg version="1.1" id="robot" xmlns="http://www.w3.org/2000/svg" xmlns:xlink="http://www.w3.org/1999/xlink" x="0px" y="0px"
	 viewBox="0 0 55.77 132.61" style="enable-background:new 0 0 55.77 132.61;" xml:space="preserve">
<style type="text/css">
	.st0{fill-rule:evenodd;clip-rule:evenodd;fill:#1B211F;}
	.st1{fill-rule:evenodd;clip-rule:evenodd;fill:#2D3330;}
	.st2{fill-rule:evenodd;clip-rule:evenodd;fill:#444F49;}
	.st3{fill-rule:evenodd;clip-rule:evenodd;fill:#242B28;}
	.st4{fill-rule:evenodd;clip-rule:evenodd;fill:#2F3833;}
	.st5{fill-rule:evenodd;clip-rule:evenodd;fill:#131716;}
	.st6{fill-rule:evenodd;clip-rule:evenodd;fill:#3A9C9C;}
	.st7{fill-rule:evenodd;clip-rule:evenodd;fill:#2C7E82;}
	.st8{fill-rule:evenodd;clip-rule:evenodd;fill:#44BDBD;}
	.st9{fill-rule:evenodd;clip-rule:evenodd;fill:#232A27;}
	.st10{fill-rule:evenodd;clip-rule:evenodd;fill:#266363;}
	.st11{fill-rule:evenodd;clip-rule:evenodd;fill:#133B3B;}
	.st12{fill-rule:evenodd;clip-rule:evenodd;fill:#328282;}
	.st13{fill-rule:evenodd;clip-rule:evenodd;fill:#3D4034;}
	.st14{fill-rule:evenodd;clip-rule:evenodd;fill:#336666;}
	.st15{fill-rule:evenodd;clip-rule:evenodd;fill:url(#SVGID_1_);}
	.st16{fill-rule:evenodd;clip-rule:evenodd;fill:#00CCFF;}
	.st17{fill:#00CCFF;}
	.st18{fill-rule:evenodd;clip-rule:evenodd;fill:#277878;}
	.st19{fill-rule:evenodd;clip-rule:evenodd;fill:#1B494F;}
	.st20{fill-rule:evenodd;clip-rule:evenodd;fill:url(#SVGID_00000156577610715636546240000007537783782167110066_);}
	.st21{fill-rule:evenodd;clip-rule:evenodd;fill:#123236;}
	.st22{fill-rule:evenodd;clip-rule:evenodd;fill:#1C0B1B;}
	.st23{fill-rule:evenodd;clip-rule:evenodd;fill:#75652B;}
	.st24{fill-rule:evenodd;clip-rule:evenodd;fill:url(#SVGID_00000128466119541387969070000009873250698013920943_);}
	.st25{fill-rule:evenodd;clip-rule:evenodd;fill:#EBE2BB;}
	.st26{fill-rule:evenodd;clip-rule:evenodd;fill:#380D13;}
	.st27{fill-rule:evenodd;clip-rule:evenodd;fill:#611C1C;}
	.st28{fill-rule:evenodd;clip-rule:evenodd;fill:#370F31;}
	.st29{fill-rule:evenodd;clip-rule:evenodd;fill:#260D24;}
	.st30{fill-rule:evenodd;clip-rule:evenodd;fill:#F19B78;}
	.st31{fill-rule:evenodd;clip-rule:evenodd;fill:#E67056;}
	.st32{fill-rule:evenodd;clip-rule:evenodd;fill:#FFB294;}
	.st33{fill-rule:evenodd;clip-rule:evenodd;fill:url(#SVGID_00000012434413255958855980000009271417056848970918_);}
	.st34{fill-rule:evenodd;clip-rule:evenodd;fill:#BA3B1C;}
	.st35{fill-rule:evenodd;clip-rule:evenodd;fill:#F6CA96;}
	.st36{fill-rule:evenodd;clip-rule:evenodd;fill:#3B180F;}
	.st37{fill-rule:evenodd;clip-rule:evenodd;fill:#E66F55;}
	.st38{fill-rule:evenodd;clip-rule:evenodd;fill:#991E0E;}
	.st39{fill-rule:evenodd;clip-rule:evenodd;fill:#FFB496;}
	.st40{fill-rule:evenodd;clip-rule:evenodd;fill:#59211F;}
	.st41{fill-rule:evenodd;clip-rule:evenodd;fill:#F07464;}
	.st42{fill-rule:evenodd;clip-rule:evenodd;fill:#BD3E28;}
	.st43{fill-rule:evenodd;clip-rule:evenodd;fill:#A83200;}
	.st44{fill-rule:evenodd;clip-rule:evenodd;fill:#FF9587;}
	.st45{fill-rule:evenodd;clip-rule:evenodd;fill:#E65745;}
	.st46{fill-rule:evenodd;clip-rule:evenodd;fill:#D84B3C;}
	.st47{fill-rule:evenodd;clip-rule:evenodd;fill:#B83228;}
	.st48{fill-rule:evenodd;clip-rule:evenodd;fill:#FFFFF5;}
	.st49{fill-rule:evenodd;clip-rule:evenodd;fill:#FFFFCC;}
	.st50{fill-rule:evenodd;clip-rule:evenodd;fill:#D9D9C5;}
	.st51{fill-rule:evenodd;clip-rule:evenodd;fill:#0A0706;}
	.st52{fill-rule:evenodd;clip-rule:evenodd;fill:#8F7B35;}
	.st53{fill-rule:evenodd;clip-rule:evenodd;fill:#361433;}
	.st54{fill-rule:evenodd;clip-rule:evenodd;fill:#170916;}
	.st55{fill-rule:evenodd;clip-rule:evenodd;fill:#120711;}
	.st56{fill-rule:evenodd;clip-rule:evenodd;fill:#471817;}
	.st57{fill-rule:evenodd;clip-rule:evenodd;fill:#6E2F23;}
	.st58{fill-rule:evenodd;clip-rule:evenodd;fill:#E6654F;}
	.st59{fill-rule:evenodd;clip-rule:evenodd;fill:#FFC3A3;}
	.st60{fill-rule:evenodd;clip-rule:evenodd;fill:#E65D49;}
	.st61{fill-rule:evenodd;clip-rule:evenodd;fill:#FFDCC9;}
	.st62{fill-rule:evenodd;clip-rule:evenodd;fill:#5C4E1E;}
	.st63{fill-rule:evenodd;clip-rule:evenodd;fill:#4D1C49;}
	.st64{fill-rule:evenodd;clip-rule:evenodd;fill:url(#SVGID_00000031202272345882384740000009594483514509414016_);}
	.st65{fill-rule:evenodd;clip-rule:evenodd;fill:url(#SVGID_00000089545389180282022290000001880290049720196227_);}
	.st66{fill-rule:evenodd;clip-rule:evenodd;fill:url(#SVGID_00000109024534176253980630000010307926868822167229_);}
	.st67{fill-rule:evenodd;clip-rule:evenodd;fill:url(#SVGID_00000006709357950403369830000016960613269851359381_);}
	.st68{fill-rule:evenodd;clip-rule:evenodd;fill:url(#SVGID_00000121268634232602653990000002576427684675867799_);}
	.st69{fill-rule:evenodd;clip-rule:evenodd;fill:url(#SVGID_00000098922279114993937200000006582716762293295291_);}
	.st70{fill-rule:evenodd;clip-rule:evenodd;fill:none;stroke:#565656;stroke-width:7;stroke-linecap:round;stroke-miterlimit:10;}
	.st71{fill-rule:evenodd;clip-rule:evenodd;fill:url(#SVGID_00000152222762411197306850000007176103797031535534_);}
	.st72{fill-rule:evenodd;clip-rule:evenodd;fill:url(#SVGID_00000105406349774928090460000006696586690258829734_);}
	.st73{fill-rule:evenodd;clip-rule:evenodd;fill:#D13C30;}
	.st74{fill-rule:evenodd;clip-rule:evenodd;fill:url(#SVGID_00000114767669925395352290000005881895431340125100_);}
	.st75{fill-rule:evenodd;clip-rule:evenodd;fill:url(#SVGID_00000098938749743206205640000008273106435714100610_);}
	.st76{fill-rule:evenodd;clip-rule:evenodd;fill:url(#SVGID_00000160873642829795883380000007571837502501521812_);}
	.st77{fill-rule:evenodd;clip-rule:evenodd;fill:url(#SVGID_00000031887284092072662210000012766913374756639896_);}
</style>
<g>
	<g>
		<polygon class="st0" points="41.95,83.2 36.57,84.15 24.57,81.82 12.06,97.1 30.14,123.47 27.86,106.56 37.08,90.36 		"/>
		<polygon class="st1" points="23.43,72.54 22.67,79.35 9.58,96.89 13.7,99.69 23.4,83.36 26.37,77.82 		"/>
		<g>
			<polygon class="st1" points="3.24,92.53 29.75,132.49 36.04,132.61 33.9,129.43 17.99,105.78 10.46,94.58 9.62,93.33 			"/>
			<polygon class="st2" points="36.04,132.61 10.86,93.61 7.55,93.07 10.46,94.58 20.31,110.01 14.92,110.14 22.15,121.03 28,121.6 
				28.85,122.39 23.41,122.93 25.27,125.74 30.59,125.12 35.14,132.6 			"/>
		</g>
	</g>
	<path class="st3" d="M16.07,31.55l-4.81-20.84l15.08-2.75l11.53,22.57c0,0,2.03,2.54-1.52,5.58c-3.55,3.04-1.01,7.6-1.01,7.6
		l-15.21-0.51c0,0-1.49-2.85-0.99-4.15c0.51-1.3,1.3-2.68,1.3-2.68S16.46,37.11,16.07,31.55z"/>
	<polygon class="st4" points="16.4,10.77 21.12,28.64 27.03,28.47 23.65,17.85 26.52,17.85 30.74,27.8 36.24,27.64 27.62,12.31 	"/>
	<path class="st5" d="M26.33,7.97l1.38,2.69L15.4,13.12l3.12,13.78l-2.81,2.89l-4.46-19.09L26.33,7.97L26.33,7.97z M19.54,28.73
		c-1.77,0-3.2,1.81-3.2,4.04c0,2.23,1.43,4.04,3.2,4.04s3.2-1.81,3.2-4.04C22.74,30.54,21.31,28.73,19.54,28.73z"/>
	<path class="st5" d="M24.8,31.88l11.95-0.14c0,0-0.7,2.81-2.11,3.51c-1.41,0.7-8.43,0.98-8.43,0.98l1,4.48l-7.78,1.32l-0.29-2.98
		l1.12-2.35c0,0,2.04,0.22,2.8-0.71c0.76-0.93,0.84-4.26,0.84-4.26L24.8,31.88z"/>
	<polygon class="st6" points="14.75,63.76 19.66,86.72 42.84,85.46 49.94,75.95 44.11,40 19.26,41.06 23.43,72.54 19.78,80.75 	"/>
	<polygon class="st7" points="12.23,58.67 19.66,86.72 25.33,76.72 19.26,41.06 	"/>
	<polygon class="st8" points="27.88,73.34 19.48,41.23 25.45,76.55 19.78,86.55 28.72,76.23 50.06,75.78 49.47,72.14 	"/>
	<path class="st8" d="M44.76,44.01c0,0-13.15,24.73-14.5,25.91c-1.35,1.18-4.72-1.35-4.72-1.35l2.22,4.93l10.79-0.6l8.47-14.94
		l0.7,4.32l-4.81,10.37l5.39-6.79L44.76,44.01z"/>
</g>
</svg>
