<?xml version="1.0" encoding="utf-8"?>
<!-- Generator: Adobe Illustrator 26.2.1, SVG Export Plug-In . SVG Version: 6.00 Build 0)  -->
<svg version="1.1" id="Capa_1" xmlns="http://www.w3.org/2000/svg" xmlns:xlink="http://www.w3.org/1999/xlink" x="0px" y="0px"
	 viewBox="0 0 444 473" style="enable-background:new 0 0 444 473;" xml:space="preserve">
<style type="text/css">
	.st0{fill-rule:evenodd;clip-rule:evenodd;fill:#1B2723;}
	.st1{fill-rule:evenodd;clip-rule:evenodd;fill:#007979;}
	.st2{fill-rule:evenodd;clip-rule:evenodd;fill:#009C9C;}
	.st3{fill-rule:evenodd;clip-rule:evenodd;fill:#FFFFFF;}
	.st4{fill-rule:evenodd;clip-rule:evenodd;fill:#26302C;}
</style>
<g>
	<path class="st0" d="M126.4,64.74L93.91,82.81c-2.61,1.33-3.75,4.56-2.78,7.49c0.03,0.12,0.05,0.25,0.08,0.37l9.69,36.26
		l6.24-20.99l-3.75-14.05l26.63-13.61L126.4,64.74z"/>
	<path class="st0" d="M150.34,80.93l-2.12,37.28c-0.06,2.93-2.47,5.37-5.51,5.75c-0.13,0.03-0.25,0.07-0.37,0.09l-36.68,6.85
		l16.1-14.72l14.21-2.65l0.66-30.04L150.34,80.93z"/>
	<polygon class="st0" points="207.55,50.63 349.76,103.04 355.36,87.66 213.15,35.26 	"/>
	<path class="st1" d="M360.08,109.12c6.47-10.49,20.16-13.71,30.58-7.2l0,0c10.42,6.51,13.62,20.29,7.15,30.78l-66.46,107.74
		l-37.73-23.58L360.08,109.12z"/>
	<path class="st2" d="M289.01,235.31l50.63,88.27l49.28-28.64l-50.63-88.27c-7.85-13.69-25.25-18.39-38.86-10.48l0,0
		C285.82,204.09,281.16,221.61,289.01,235.31z"/>
	<path class="st1" d="M334.07,101.21l8.21-19.22c1.3-3.04,4.8-4.45,7.82-3.14l21.07,9.11l-12.9,30.23l-21.07-9.11
		C334.18,107.78,332.78,104.26,334.07,101.21z"/>
	<path class="st1" d="M124.04,64.57l33.28-45.64c6.64-9.11,19.36-11.08,28.41-4.39l0,0c9.05,6.69,11,19.49,4.36,28.6l-33.28,45.64
		c-6.64,9.11-19.36,11.08-28.41,4.39l0,0C119.34,86.49,117.39,73.68,124.04,64.57z"/>
	<path class="st2" d="M127.02,61.16l33.74,22.29c1.92,1.27,4.49,0.73,5.75-1.2l0,0c1.26-1.93,0.73-4.52-1.19-5.79l-33.74-22.29
		c-1.92-1.27-4.49-0.73-5.75,1.2l0,0C124.57,57.3,125.11,59.89,127.02,61.16z"/>
	<path class="st2" d="M366.95,73.7l38.77,16.82c14.48,7.4,20.26,25.2,12.92,39.77l0,0c-7.34,14.57-25.03,20.39-39.51,13
		l-38.77-16.82c-3.75-1.92-5.25-6.53-3.35-10.31l19.7-39.09C358.61,73.29,363.2,71.78,366.95,73.7z"/>
	<path class="st1" d="M214.34,33.15l-6.37,19.92c-1.01,3.15-4.36,4.88-7.49,3.87l-21.83-7.07l10.01-31.32l21.83,7.07
		C213.62,26.63,215.34,30.01,214.34,33.15z"/>
	<path class="st2" d="M150.95,41.72l10.48-32.78c1.19-3.72,5.15-5.77,8.85-4.57l32.57,10.54c3.7,1.19,5.73,5.18,4.54,8.9
		l-10.48,32.78c-1.19,3.72-5.15,5.77-8.85,4.57L155.5,50.62C151.81,49.42,149.78,45.43,150.95,41.72z"/>
	<ellipse class="st3" cx="312.12" cy="218.31" rx="14.68" ry="14.77"/>
	<ellipse class="st3" cx="383.75" cy="109.68" rx="14.68" ry="14.77"/>
	<ellipse class="st3" cx="179.18" cy="32.76" rx="11.97" ry="12.05"/>
	<path class="st4" d="M444,395.31v79H267v-79c0-6.6,5.4-12,12-12h2.35v-59.86h13.37v-14.42c0-8.6,6.93-15.58,15.48-15.58h90.59
		c8.55,0,15.48,6.97,15.48,15.58v14.42h13.37v59.86h2.35C438.59,383.31,443.99,388.71,444,395.31z"/>
</g>
</svg>
