<?xml version="1.0" encoding="utf-8"?>
<!-- Generator: Adobe Illustrator 26.2.1, SVG Export Plug-In . SVG Version: 6.00 Build 0)  -->
<svg version="1.1" id="robot" xmlns="http://www.w3.org/2000/svg" xmlns:xlink="http://www.w3.org/1999/xlink" x="0px" y="0px"
	 viewBox="0 0 130.61 219.9" style="enable-background:new 0 0 130.61 219.9;" xml:space="preserve">
<style type="text/css">
	.st0{fill-rule:evenodd;clip-rule:evenodd;fill:#1B211F;}
	.st1{fill-rule:evenodd;clip-rule:evenodd;fill:#2D3330;}
	.st2{fill-rule:evenodd;clip-rule:evenodd;fill:#444F49;}
	.st3{fill-rule:evenodd;clip-rule:evenodd;fill:#242B28;}
	.st4{fill-rule:evenodd;clip-rule:evenodd;fill:#2F3833;}
	.st5{fill-rule:evenodd;clip-rule:evenodd;fill:#131716;}
	.st6{fill-rule:evenodd;clip-rule:evenodd;fill:#3A9C9C;}
	.st7{fill-rule:evenodd;clip-rule:evenodd;fill:#2C7E82;}
	.st8{fill-rule:evenodd;clip-rule:evenodd;fill:#44BDBD;}
	.st9{fill-rule:evenodd;clip-rule:evenodd;fill:#232A27;}
	.st10{fill-rule:evenodd;clip-rule:evenodd;fill:#266363;}
	.st11{fill-rule:evenodd;clip-rule:evenodd;fill:#133B3B;}
	.st12{fill-rule:evenodd;clip-rule:evenodd;fill:#328282;}
	.st13{fill-rule:evenodd;clip-rule:evenodd;fill:#3D4034;}
	.st14{fill-rule:evenodd;clip-rule:evenodd;fill:#336666;}
	.st15{fill-rule:evenodd;clip-rule:evenodd;fill:url(#SVGID_1_);}
	.st16{fill-rule:evenodd;clip-rule:evenodd;fill:#00CCFF;}
	.st17{fill:#00CCFF;}
	.st18{fill-rule:evenodd;clip-rule:evenodd;fill:#277878;}
	.st19{fill-rule:evenodd;clip-rule:evenodd;fill:#1B494F;}
	.st20{fill-rule:evenodd;clip-rule:evenodd;fill:url(#SVGID_00000123418286036446200730000012252015929837412543_);}
	.st21{fill-rule:evenodd;clip-rule:evenodd;fill:#123236;}
	.st22{fill-rule:evenodd;clip-rule:evenodd;fill:#1C0B1B;}
	.st23{fill-rule:evenodd;clip-rule:evenodd;fill:#75652B;}
	.st24{fill-rule:evenodd;clip-rule:evenodd;fill:url(#SVGID_00000034079553511864194080000000440401844520281735_);}
	.st25{fill-rule:evenodd;clip-rule:evenodd;fill:#EBE2BB;}
	.st26{fill-rule:evenodd;clip-rule:evenodd;fill:#380D13;}
	.st27{fill-rule:evenodd;clip-rule:evenodd;fill:#611C1C;}
	.st28{fill-rule:evenodd;clip-rule:evenodd;fill:#370F31;}
	.st29{fill-rule:evenodd;clip-rule:evenodd;fill:#260D24;}
	.st30{fill-rule:evenodd;clip-rule:evenodd;fill:#F19B78;}
	.st31{fill-rule:evenodd;clip-rule:evenodd;fill:#E67056;}
	.st32{fill-rule:evenodd;clip-rule:evenodd;fill:#FFB294;}
	.st33{fill-rule:evenodd;clip-rule:evenodd;fill:url(#SVGID_00000077318086280435323540000002945102593912828548_);}
	.st34{fill-rule:evenodd;clip-rule:evenodd;fill:#BA3B1C;}
	.st35{fill-rule:evenodd;clip-rule:evenodd;fill:#F6CA96;}
	.st36{fill-rule:evenodd;clip-rule:evenodd;fill:#3B180F;}
	.st37{fill-rule:evenodd;clip-rule:evenodd;fill:#E66F55;}
	.st38{fill-rule:evenodd;clip-rule:evenodd;fill:#991E0E;}
	.st39{fill-rule:evenodd;clip-rule:evenodd;fill:#FFB496;}
	.st40{fill-rule:evenodd;clip-rule:evenodd;fill:#59211F;}
	.st41{fill-rule:evenodd;clip-rule:evenodd;fill:#F07464;}
	.st42{fill-rule:evenodd;clip-rule:evenodd;fill:#BD3E28;}
	.st43{fill-rule:evenodd;clip-rule:evenodd;fill:#A83200;}
	.st44{fill-rule:evenodd;clip-rule:evenodd;fill:#FF9587;}
	.st45{fill-rule:evenodd;clip-rule:evenodd;fill:#E65745;}
	.st46{fill-rule:evenodd;clip-rule:evenodd;fill:#D84B3C;}
	.st47{fill-rule:evenodd;clip-rule:evenodd;fill:#B83228;}
	.st48{fill-rule:evenodd;clip-rule:evenodd;fill:#FFFFF5;}
	.st49{fill-rule:evenodd;clip-rule:evenodd;fill:#FFFFCC;}
	.st50{fill-rule:evenodd;clip-rule:evenodd;fill:#D9D9C5;}
	.st51{fill-rule:evenodd;clip-rule:evenodd;fill:#0A0706;}
	.st52{fill-rule:evenodd;clip-rule:evenodd;fill:#8F7B35;}
	.st53{fill-rule:evenodd;clip-rule:evenodd;fill:#361433;}
	.st54{fill-rule:evenodd;clip-rule:evenodd;fill:#170916;}
	.st55{fill-rule:evenodd;clip-rule:evenodd;fill:#120711;}
	.st56{fill-rule:evenodd;clip-rule:evenodd;fill:#471817;}
	.st57{fill-rule:evenodd;clip-rule:evenodd;fill:#6E2F23;}
	.st58{fill-rule:evenodd;clip-rule:evenodd;fill:#E6654F;}
	.st59{fill-rule:evenodd;clip-rule:evenodd;fill:#FFC3A3;}
	.st60{fill-rule:evenodd;clip-rule:evenodd;fill:#E65D49;}
	.st61{fill-rule:evenodd;clip-rule:evenodd;fill:#FFDCC9;}
	.st62{fill-rule:evenodd;clip-rule:evenodd;fill:#5C4E1E;}
	.st63{fill-rule:evenodd;clip-rule:evenodd;fill:#4D1C49;}
	.st64{fill-rule:evenodd;clip-rule:evenodd;fill:url(#SVGID_00000182505323053008648740000016158142423801368747_);}
	.st65{fill-rule:evenodd;clip-rule:evenodd;fill:url(#SVGID_00000065758760338236172400000002875408897895562658_);}
	.st66{fill-rule:evenodd;clip-rule:evenodd;fill:url(#SVGID_00000085946320373722393570000007938588143992094363_);}
	.st67{fill-rule:evenodd;clip-rule:evenodd;fill:url(#SVGID_00000111909784142404418370000004865657571894119064_);}
	.st68{fill-rule:evenodd;clip-rule:evenodd;fill:none;stroke:#565656;stroke-width:7;stroke-linecap:round;stroke-miterlimit:10;}
	.st69{fill-rule:evenodd;clip-rule:evenodd;fill:url(#SVGID_00000042726525333682889720000006318442530804128135_);}
	.st70{fill-rule:evenodd;clip-rule:evenodd;fill:#D13C30;}
	.st71{fill-rule:evenodd;clip-rule:evenodd;fill:url(#SVGID_00000084527848647936591910000003647690218198821292_);}
	.st72{fill-rule:evenodd;clip-rule:evenodd;fill:url(#SVGID_00000005983774803676423310000014879007891402805422_);}
	.st73{fill-rule:evenodd;clip-rule:evenodd;fill:url(#SVGID_00000071526612558195379890000015486596684011936420_);}
	.st74{fill-rule:evenodd;clip-rule:evenodd;fill:url(#SVGID_00000175321819777050381310000005633751732645899696_);}
	.st75{fill-rule:evenodd;clip-rule:evenodd;fill:url(#SVGID_00000152971723793992588860000017511802034662029750_);}
	.st76{fill-rule:evenodd;clip-rule:evenodd;fill:url(#SVGID_00000018234997719915826020000008316947667185840560_);}
	.st77{fill-rule:evenodd;clip-rule:evenodd;fill:url(#SVGID_00000072249177413885707850000009325727562945268413_);}
</style>
<g>
	<path class="st68" d="M57.98,195.99c-6.67-31.92-12.7-87.05,11.59-144.39c4.68-11.05,18.02-25.9,24.77-31.04"/>
	<path class="st30" d="M95.4,128.23c-1.38-5.9-47.12-9.19-63.65-11.55c-13.08-1.87-3.57,27.02-13.73,57.42
		c-1.18,3.52,7.89,20.4,7.89,20.4l54.54,3.58C80.44,198.08,100.49,128.48,95.4,128.23z"/>
	<path class="st31" d="M77.89,137.54l-12.84,44.95l-41.54-5.06l1.85,13.14l58.84,6.7c0,0,14.41-61.42,13.29-59.29
		C96.37,140.11,77.89,137.54,77.89,137.54z"/>
	<path class="st32" d="M96.62,140.26c-2.07-1.38-17.24-5.44-20.65,6.31c-3.41,11.75-11.52,38.4-11.52,38.4s10.39-42.39,8.85-45.91
		c-1.54-3.53-6.88-5.86-11.35-7.03c-4.47-1.17-17.51-3.27-17.51-3.27s51.67,6.17,52.86,6.92C98.5,136.44,96.62,140.26,96.62,140.26z
		"/>
	<linearGradient id="SVGID_1_" gradientUnits="userSpaceOnUse" x1="100.0969" y1="169.6005" x2="27.8253" y2="197.343">
		<stop  offset="0" style="stop-color:#B92C21"/>
		<stop  offset="0.39" style="stop-color:#B92C21"/>
		<stop  offset="0.5" style="stop-color:#EC5C48"/>
		<stop  offset="1" style="stop-color:#EA7B5F"/>
	</linearGradient>
	<path class="st15" d="M70.45,182.8c-5.31,2.06-46.94-5.36-46.94-5.36l1.85,13.14l58.78,6.69l0.06,0.01l0.05-0.48l8.2-35.13
		l-11.9-3.84l-1.48,8.93C77.84,174.17,75.77,180.74,70.45,182.8z"/>
	<path class="st40" d="M58.73,133.25c0,0-2.55,1.77-1.46,3.66c1.09,1.89,4.42,3.71,4.33,4.88c-0.09,1.18-0.58,1.8-0.58,1.8
		C67.91,138.82,58.59,133.69,58.73,133.25z"/>
	<path class="st35" d="M38.95,145.57c-0.14,0.26-0.06,0.65,0.17,0.86c0.24,0.21,0.54,0.17,0.69-0.09c0.14-0.26,0.06-0.65-0.17-0.86
		C39.4,145.27,39.09,145.31,38.95,145.57z"/>
	<path class="st40" d="M40.49,132.24c0,0,2,2.99,0.39,3.58c-1.61,0.6-5.42-0.39-5.66,0.51c-0.25,0.9,0.05,1.67,0.05,1.67
		C29.85,129.92,40.5,132.64,40.49,132.24z"/>
	<path class="st40" d="M68.27,149.77c0.78,2.37,2.34,4.1,2.34,4.1l-0.67,1.99c0.8,0.96,1.57,1.53,1.57,1.53l5.04,1.03
		c0.74-3.15,1.92-6.83,3.59-8.11c3.14-2.39,8.76-1.91,10.04,0.27c0.75,1.28-0.22,6.4-1.14,10.39l3.41,0.7c0,0,6.83-19.52,8.17-29.8
		c0.65-4.95-8.29-3.87-10.48-6.18c-2.35-2.48,1.35-5.92-1.79-9.19c-8.09-8.44-48.37-7.29-55.59-3.7
		c-18.99,9.46,46.77,19.98,48.16,19.48c3.33-1.19,3.32,6.73-0.38,8.47c-3.49,1.65-8.21-1.38-11.22,2.32
		C68.87,145.59,68.47,148.07,68.27,149.77z"/>
	<path class="st45" d="M79.06,166.75l2.96-17.86c0,0,4.41-3.12,7.3,0.14c2.89,3.26,1.51,10.17-1.23,14.6
		C85.36,168.07,82.4,168.71,79.06,166.75z"/>
	<path class="st46" d="M82.54,164.38c0,0,1.14-2.27,2.25-2.57c1.11-0.3,1.82,0.75,2.63-0.13c0.81-0.88,1.89-9.28,1.89-9.28
		s-1.51-2.62-2.2-2.41c-0.69,0.21-6.13,5.2-6.13,5.2l-1.35,8.18L82.54,164.38z"/>
	<path class="st44" d="M88.04,147.87c-1.07-0.53-2.14-0.37-2.39,0.36c-0.25,0.74,0.41,1.76,1.48,2.3c1.07,0.53,2.14,0.37,2.39-0.36
		C89.77,149.43,89.11,148.4,88.04,147.87z"/>
	<path class="st47" d="M89.31,152.4c0,0-0.42-2.22-1.92-2.94c-1.5-0.72-6.04,3.51-6.04,3.51l-0.37,2.22l2.95-2.47
		c0.36,2.2,0.5,7.8-1.03,9.58c2.59-2.83,2.47-6.93,1.72-10.32l2.02-1.2c0.24,3.56,0.4,5.87-0.89,9.44c2.3-3.73,1.91-5.29,1.65-9.58
		L89.31,152.4z"/>
	<path class="st48" d="M41.11,165.27c0,0,9.66-0.69,14.79,0.21c4.81,0.85,4.4,6.8,3.28,8.82c-0.95,1.71-9.57-0.89-10.29-0.86
		c-0.72,0.04-1.23-3.81-1.23-3.81l-4.64-0.47L41.11,165.27z"/>
	<path class="st38" d="M58.29,166.63c0,0-1.75,2.79-1.89,2.97c-0.14,0.18-3.41,0.39-4.11,0.18c-0.7-0.21-1.16-0.98-1.16-0.98
		l-0.63,1.24l-2.85-0.39l12.23,2.1C59.88,171.74,60.3,168.51,58.29,166.63z"/>
	<path class="st56" d="M73.78,111.24c6.57,5.65,11.41,11.83,2.36,12.56c-10.57,0.86-30.46-2.46-44.14-5.12
		c-0.62-0.12-1.23-0.24-1.82-0.36c0.2,0.23,0.43,0.45,0.68,0.67c8.47,7.32,48.97,13.67,50.06,13.28c0.69-0.24,1.23-0.1,1.63,0.29
		c0.82-0.8,1.57-1.47,2.05-1.75c0.92-0.54,6.32-1.63,11.01-2.5c0.56-0.1,1.12-0.21,1.65-0.3c-2.59-0.81-5.9-1.05-7.12-2.34
		c-2.35-2.48,1.35-5.92-1.79-9.19C85.87,113.91,80.4,112.23,73.78,111.24z"/>
	<path class="st57" d="M95.6,128.32c-4.69,0.87-10.09,1.96-11.01,2.5c-0.48,0.28-1.23,0.94-2.05,1.75c0.25,0.24,0.44,0.59,0.58,1
		c0.41,1.22,0.31,3.03-0.32,4.57c-0.04,0.1-0.08,0.19-0.12,0.29c0.37-0.05,0.79-0.11,1.23-0.17c3.59-0.49,9.43-1.31,13.75-1.99
		c0.23-0.04,0.46-0.07,0.68-0.11c0.56-0.09,1.09-0.18,1.57-0.26c0.3-1.44,0.53-2.8,0.69-4.03c0.29-2.19-1.31-3.2-3.36-3.85
		L95.6,128.32z"/>
	<g>
		<path class="st38" d="M53.89,140c-4.4,3.51-2.57,8.03,5.49,13.58C54.83,144.86,53,140.33,53.89,140z"/>
		<path class="st38" d="M49.27,151.16c4.61,1.89,7.69-1.57,9.23-10.36c0.03-0.17-0.2-0.26-0.3-0.13c-4.7,6.17-7.68,9.57-8.95,10.2
			C49.13,150.93,49.14,151.11,49.27,151.16z"/>
	</g>
	<g>
		<path class="st38" d="M37.46,137.24c-3.74,3.38-1.92,7.68,5.47,12.88c0.12,0.08,0.27-0.05,0.2-0.18
			c-3.65-7.03-5.47-11.23-5.45-12.6C37.69,137.22,37.55,137.16,37.46,137.24z"/>
		<path class="st38" d="M33.23,148c4.66,1.94,7.76-1.54,9.3-10.45c0.02-0.14-0.16-0.22-0.25-0.11c-4.8,6.31-7.82,9.75-9.06,10.31
			C33.12,147.8,33.12,147.96,33.23,148z"/>
	</g>
	<g>
		<path class="st41" d="M49.2,163.31l-14.79-1.92c0,0-3.17-0.6-3.36-2.68c-0.19-2.08,12.97-18.02,12.97-18.02l5.62,0.7l-1.56,16.07
			c0,0,3.3,0.52,3.83,1.9c0.53,1.38-0.31,3.98-0.31,3.98L49.2,163.31z"/>
		<path class="st42" d="M35.54,160.81c0,0-4.11-0.87-3.4-2.43c1.68-3.69,10.3-14.42,12.88-17.57l-1.01-0.13c0,0-1.48,1.8-3.45,4.26
			c-0.07,0.09-0.15,0.19-0.22,0.28c-1.77,2.22-3.88,4.93-5.64,7.36c-0.52,0.71-1,1.39-1.44,2.03c-1.36,1.98-2.26,3.53-2.21,4.09
			c0.19,2.08,3.36,2.68,3.36,2.68l14.79,1.92l2.4,0.03c0,0,0.04-0.13,0.1-0.34l-1.37-0.27L35.54,160.81z"/>
		<path class="st43" d="M42.26,160.94c0,0,1.83-1,3.51-0.57c1.69,0.43,2.08,1.51,2.08,1.51L42.26,160.94z"/>
		<path class="st44" d="M45.96,143.92c0,0,1.99,0.11,1.77,1.46c-0.22,1.35-5.88,10.06-7.25,10.75c-1.36,0.7-3.18-0.53-3.18-0.53
			L45.96,143.92L45.96,143.92z M35.89,158.07c0.33,0.11,0.51,0.45,0.41,0.76c-0.1,0.31-0.45,0.48-0.78,0.37
			c-0.33-0.11-0.51-0.44-0.41-0.76C35.21,158.13,35.56,157.96,35.89,158.07L35.89,158.07z M42.38,159.9
			c-0.05,0.35-1.15,0.4-2.47,0.12c-1.32-0.28-2.34-0.79-2.3-1.14c0.05-0.35,1.15-0.4,2.47-0.12
			C41.4,159.04,42.43,159.55,42.38,159.9z"/>
	</g>
	<path class="st70" d="M59.92,172.01c0,0-6.73-3.15-8.03,6.15c-0.03,0.25-0.15,0.48-0.33,0.63c-1.1,0.92-5.11,3.99-5.59,0.05
		c0,0,1.26-10.8,10.16-9.54c0,0,3.06,0.61,3.78,1.5V172.01z"/>
	<path class="st68" d="M22.76,190.35c0,0,34.7,10.66,65.58,2.68"/>
</g>
</svg>
