<?xml version="1.0" encoding="utf-8"?>
<!-- Generator: Adobe Illustrator 26.2.1, SVG Export Plug-In . SVG Version: 6.00 Build 0)  -->
<svg version="1.1" id="robot" xmlns="http://www.w3.org/2000/svg" xmlns:xlink="http://www.w3.org/1999/xlink" x="0px" y="0px"
	 viewBox="0 0 361.26 480.2" style="enable-background:new 0 0 361.26 480.2;" xml:space="preserve">
<style type="text/css">
	.st0{fill-rule:evenodd;clip-rule:evenodd;fill:#1B211F;}
	.st1{fill-rule:evenodd;clip-rule:evenodd;fill:#2D3330;}
	.st2{fill-rule:evenodd;clip-rule:evenodd;fill:#444F49;}
	.st3{fill-rule:evenodd;clip-rule:evenodd;fill:#242B28;}
	.st4{fill-rule:evenodd;clip-rule:evenodd;fill:#2F3833;}
	.st5{fill-rule:evenodd;clip-rule:evenodd;fill:#131716;}
	.st6{fill-rule:evenodd;clip-rule:evenodd;fill:#3A9C9C;}
	.st7{fill-rule:evenodd;clip-rule:evenodd;fill:#2C7E82;}
	.st8{fill-rule:evenodd;clip-rule:evenodd;fill:#44BDBD;}
	.st9{fill-rule:evenodd;clip-rule:evenodd;fill:#232A27;}
	.st10{fill-rule:evenodd;clip-rule:evenodd;fill:#266363;}
	.st11{fill-rule:evenodd;clip-rule:evenodd;fill:#133B3B;}
	.st12{fill-rule:evenodd;clip-rule:evenodd;fill:#328282;}
	.st13{fill-rule:evenodd;clip-rule:evenodd;fill:#3D4034;}
	.st14{fill-rule:evenodd;clip-rule:evenodd;fill:#336666;}
	.st15{fill-rule:evenodd;clip-rule:evenodd;fill:url(#SVGID_1_);}
	.st16{fill-rule:evenodd;clip-rule:evenodd;fill:#00CCFF;}
	.st17{fill:#00CCFF;}
	.st18{fill-rule:evenodd;clip-rule:evenodd;fill:#277878;}
	.st19{fill-rule:evenodd;clip-rule:evenodd;fill:#1B494F;}
	.st20{fill-rule:evenodd;clip-rule:evenodd;fill:url(#SVGID_00000041287217428243882180000010172819227797022630_);}
	.st21{fill-rule:evenodd;clip-rule:evenodd;fill:#123236;}
	.st22{fill-rule:evenodd;clip-rule:evenodd;fill:#1C0B1B;}
	.st23{fill-rule:evenodd;clip-rule:evenodd;fill:#75652B;}
	.st24{fill-rule:evenodd;clip-rule:evenodd;fill:url(#SVGID_00000168831462530806059300000006756698541037503637_);}
	.st25{fill-rule:evenodd;clip-rule:evenodd;fill:#EBE2BB;}
	.st26{fill-rule:evenodd;clip-rule:evenodd;fill:#380D13;}
	.st27{fill-rule:evenodd;clip-rule:evenodd;fill:#611C1C;}
	.st28{fill-rule:evenodd;clip-rule:evenodd;fill:#370F31;}
	.st29{fill-rule:evenodd;clip-rule:evenodd;fill:#260D24;}
	.st30{fill-rule:evenodd;clip-rule:evenodd;fill:#F19B78;}
	.st31{fill-rule:evenodd;clip-rule:evenodd;fill:#E67056;}
	.st32{fill-rule:evenodd;clip-rule:evenodd;fill:#FFB294;}
	.st33{fill-rule:evenodd;clip-rule:evenodd;fill:url(#SVGID_00000063601897512708923380000016558084440177584283_);}
	.st34{fill-rule:evenodd;clip-rule:evenodd;fill:#BA3B1C;}
	.st35{fill-rule:evenodd;clip-rule:evenodd;fill:#F6CA96;}
	.st36{fill-rule:evenodd;clip-rule:evenodd;fill:#3B180F;}
	.st37{fill-rule:evenodd;clip-rule:evenodd;fill:#E66F55;}
	.st38{fill-rule:evenodd;clip-rule:evenodd;fill:#991E0E;}
	.st39{fill-rule:evenodd;clip-rule:evenodd;fill:#FFB496;}
	.st40{fill-rule:evenodd;clip-rule:evenodd;fill:#59211F;}
	.st41{fill-rule:evenodd;clip-rule:evenodd;fill:#F07464;}
	.st42{fill-rule:evenodd;clip-rule:evenodd;fill:#BD3E28;}
	.st43{fill-rule:evenodd;clip-rule:evenodd;fill:#A83200;}
	.st44{fill-rule:evenodd;clip-rule:evenodd;fill:#FF9587;}
	.st45{fill-rule:evenodd;clip-rule:evenodd;fill:#E65745;}
	.st46{fill-rule:evenodd;clip-rule:evenodd;fill:#D84B3C;}
	.st47{fill-rule:evenodd;clip-rule:evenodd;fill:#B83228;}
	.st48{fill-rule:evenodd;clip-rule:evenodd;fill:#FFFFF5;}
	.st49{fill-rule:evenodd;clip-rule:evenodd;fill:#FFFFCC;}
	.st50{fill-rule:evenodd;clip-rule:evenodd;fill:#D9D9C5;}
	.st51{fill-rule:evenodd;clip-rule:evenodd;fill:#0A0706;}
	.st52{fill-rule:evenodd;clip-rule:evenodd;fill:#8F7B35;}
	.st53{fill-rule:evenodd;clip-rule:evenodd;fill:#361433;}
	.st54{fill-rule:evenodd;clip-rule:evenodd;fill:#170916;}
	.st55{fill-rule:evenodd;clip-rule:evenodd;fill:#120711;}
	.st56{fill-rule:evenodd;clip-rule:evenodd;fill:#471817;}
	.st57{fill-rule:evenodd;clip-rule:evenodd;fill:#6E2F23;}
	.st58{fill-rule:evenodd;clip-rule:evenodd;fill:#E6654F;}
	.st59{fill-rule:evenodd;clip-rule:evenodd;fill:#FFC3A3;}
	.st60{fill-rule:evenodd;clip-rule:evenodd;fill:#E65D49;}
	.st61{fill-rule:evenodd;clip-rule:evenodd;fill:#FFDCC9;}
	.st62{fill-rule:evenodd;clip-rule:evenodd;fill:#5C4E1E;}
	.st63{fill-rule:evenodd;clip-rule:evenodd;fill:#4D1C49;}
	.st64{fill-rule:evenodd;clip-rule:evenodd;fill:url(#SVGID_00000019648204676672420880000005066081497811271068_);}
	.st65{fill-rule:evenodd;clip-rule:evenodd;fill:url(#SVGID_00000154401444786066474720000004897242253490131082_);}
	.st66{fill-rule:evenodd;clip-rule:evenodd;fill:url(#SVGID_00000040572092090534475780000017155840092747574936_);}
	.st67{fill-rule:evenodd;clip-rule:evenodd;fill:url(#SVGID_00000170267685771947936720000003001728607301591190_);}
	.st68{fill-rule:evenodd;clip-rule:evenodd;fill:none;stroke:#565656;stroke-width:7;stroke-linecap:round;stroke-miterlimit:10;}
	.st69{fill-rule:evenodd;clip-rule:evenodd;fill:url(#SVGID_00000069360210713548058880000005287139654706475419_);}
	.st70{fill-rule:evenodd;clip-rule:evenodd;fill:#D13C30;}
	.st71{fill-rule:evenodd;clip-rule:evenodd;fill:url(#SVGID_00000176752438641299829340000013950927150053575552_);}
	.st72{fill-rule:evenodd;clip-rule:evenodd;fill:url(#SVGID_00000159444336479045810510000014212436732374015657_);}
	.st73{fill-rule:evenodd;clip-rule:evenodd;fill:url(#SVGID_00000013169725301232578010000014507877285660041129_);}
	.st74{fill-rule:evenodd;clip-rule:evenodd;fill:url(#SVGID_00000111182214839594573750000008183329050906821796_);}
	.st75{fill-rule:evenodd;clip-rule:evenodd;fill:url(#SVGID_00000134928853902028462910000007931945843243150239_);}
	.st76{fill-rule:evenodd;clip-rule:evenodd;fill:url(#SVGID_00000165954511909976222720000006954188950634899888_);}
	.st77{fill-rule:evenodd;clip-rule:evenodd;fill:url(#SVGID_00000067925259132886122240000003903745761778183833_);}
	.st78{fill-rule:evenodd;clip-rule:evenodd;fill:#1B2723;}
	.st79{fill-rule:evenodd;clip-rule:evenodd;fill:#007979;}
	.st80{fill-rule:evenodd;clip-rule:evenodd;fill:#009C9C;}
	.st81{fill-rule:evenodd;clip-rule:evenodd;fill:#FFFFFF;}
	.st82{fill-rule:evenodd;clip-rule:evenodd;fill:#26302C;}
</style>
<g>
	<path class="st78" d="M46.89,84.16L20.25,97.77l3.75,14.05l-6.24,20.99L8.08,96.55C8.05,96.43,8.03,96.3,8,96.18
		c-0.97-2.93,0.17-6.16,2.78-7.49l32.49-18.07L46.89,84.16z"/>
	<path class="st78" d="M53.49,89.37l-0.66,30.04l-14.21,2.65l-16.1,14.72l36.68-6.85c0.12-0.02,0.24-0.06,0.37-0.09
		c3.04-0.38,5.45-2.82,5.51-5.75l2.12-37.28L53.49,89.37z"/>
	<polygon class="st78" points="130.01,41.14 272.22,93.54 266.63,108.92 124.42,56.52 	"/>
	<path class="st79" d="M210.49,222.75l37.73,23.58l66.46-107.74c6.47-10.49,3.27-24.27-7.15-30.78l0,0
		c-10.42-6.51-24.11-3.29-30.58,7.2L210.49,222.75z"/>
	<path class="st80" d="M216.3,202.07L216.3,202.07c13.61-7.91,31.01-3.21,38.86,10.48l50.63,88.27l-49.28,28.64l-50.63-88.27
		C198.02,227.49,202.69,209.98,216.3,202.07z"/>
	<path class="st79" d="M254.07,114.97l21.07,9.11l12.91-30.23l-21.07-9.11c-3.02-1.31-6.52,0.1-7.82,3.14l-8.21,19.22
		C249.65,110.14,251.05,113.66,254.07,114.97z"/>
	<path class="st79" d="M45.26,99.06L45.26,99.06c9.05,6.69,21.77,4.72,28.41-4.39l33.28-45.64c6.64-9.11,4.69-21.91-4.36-28.6l0,0
		c-9.05-6.69-21.77-4.72-28.41,4.39L40.9,70.46C34.26,79.57,36.21,92.37,45.26,99.06z"/>
	<path class="st80" d="M42.7,61.25L42.7,61.25c1.26-1.93,3.83-2.47,5.75-1.2l33.74,22.29c1.92,1.27,2.45,3.86,1.19,5.79l0,0
		c-1.26,1.93-3.83,2.47-5.75,1.2L43.89,67.04C41.98,65.77,41.44,63.18,42.7,61.25z"/>
	<path class="st80" d="M273.58,82.95l-19.7,39.09c-1.9,3.78-0.4,8.39,3.35,10.31L296,149.17c14.48,7.39,32.17,1.57,39.51-13v0
		c7.34-14.57,1.56-32.37-12.92-39.77l-38.77-16.82C280.07,77.67,275.48,79.18,273.58,82.95z"/>
	<path class="st79" d="M127.35,31.5l-21.83-7.07L95.52,55.76l21.83,7.07c3.13,1.01,6.48-0.72,7.49-3.87l6.37-19.92
		C132.2,35.89,130.48,32.52,127.35,31.5z"/>
	<path class="st80" d="M72.37,56.5l32.56,10.54c3.7,1.2,7.66-0.85,8.85-4.57l10.48-32.78c1.19-3.72-0.84-7.71-4.54-8.9L87.15,10.25
		c-3.7-1.2-7.66,0.85-8.85,4.57L67.83,47.6C66.64,51.32,68.68,55.3,72.37,56.5z"/>
	<ellipse class="st81" cx="228.99" cy="224.2" rx="14.68" ry="14.77"/>
	<ellipse class="st81" cx="300.62" cy="115.56" rx="14.68" ry="14.77"/>
	<ellipse class="st81" cx="96.04" cy="38.65" rx="11.97" ry="12.05"/>
	<path class="st82" d="M348.86,389.2h-2.35v-59.86h-13.37v-14.42c0-8.61-6.93-15.58-15.48-15.58h-90.59
		c-8.55,0-15.48,6.98-15.48,15.58v14.42h-13.37v59.86h-2.35c-6.6,0-12,5.4-12,12v79h177v-79C360.86,394.6,355.46,389.2,348.86,389.2
		z"/>
</g>
</svg>
