<?xml version="1.0" encoding="utf-8"?>
<!-- Generator: Adobe Illustrator 26.2.1, SVG Export Plug-In . SVG Version: 6.00 Build 0)  -->
<svg version="1.1" id="robot" xmlns="http://www.w3.org/2000/svg" xmlns:xlink="http://www.w3.org/1999/xlink" x="0px" y="0px"
	 viewBox="0 0 361.26 480.2" style="enable-background:new 0 0 361.26 480.2;" xml:space="preserve">
<style type="text/css">
	.st0{fill-rule:evenodd;clip-rule:evenodd;fill:#1B211F;}
	.st1{fill-rule:evenodd;clip-rule:evenodd;fill:#2D3330;}
	.st2{fill-rule:evenodd;clip-rule:evenodd;fill:#444F49;}
	.st3{fill-rule:evenodd;clip-rule:evenodd;fill:#242B28;}
	.st4{fill-rule:evenodd;clip-rule:evenodd;fill:#2F3833;}
	.st5{fill-rule:evenodd;clip-rule:evenodd;fill:#131716;}
	.st6{fill-rule:evenodd;clip-rule:evenodd;fill:#3A9C9C;}
	.st7{fill-rule:evenodd;clip-rule:evenodd;fill:#2C7E82;}
	.st8{fill-rule:evenodd;clip-rule:evenodd;fill:#44BDBD;}
	.st9{fill-rule:evenodd;clip-rule:evenodd;fill:#232A27;}
	.st10{fill-rule:evenodd;clip-rule:evenodd;fill:#266363;}
	.st11{fill-rule:evenodd;clip-rule:evenodd;fill:#133B3B;}
	.st12{fill-rule:evenodd;clip-rule:evenodd;fill:#328282;}
	.st13{fill-rule:evenodd;clip-rule:evenodd;fill:#3D4034;}
	.st14{fill-rule:evenodd;clip-rule:evenodd;fill:#336666;}
	.st15{fill-rule:evenodd;clip-rule:evenodd;fill:url(#SVGID_1_);}
	.st16{fill-rule:evenodd;clip-rule:evenodd;fill:#00CCFF;}
	.st17{fill:#00CCFF;}
	.st18{fill-rule:evenodd;clip-rule:evenodd;fill:#277878;}
	.st19{fill-rule:evenodd;clip-rule:evenodd;fill:#1B494F;}
	.st20{fill-rule:evenodd;clip-rule:evenodd;fill:url(#SVGID_00000078029814908896011320000002932019011881701516_);}
	.st21{fill-rule:evenodd;clip-rule:evenodd;fill:#123236;}
	.st22{fill-rule:evenodd;clip-rule:evenodd;fill:#1C0B1B;}
	.st23{fill-rule:evenodd;clip-rule:evenodd;fill:#75652B;}
	.st24{fill-rule:evenodd;clip-rule:evenodd;fill:url(#SVGID_00000015323224759808256740000010367028568747339141_);}
	.st25{fill-rule:evenodd;clip-rule:evenodd;fill:#EBE2BB;}
	.st26{fill-rule:evenodd;clip-rule:evenodd;fill:#380D13;}
	.st27{fill-rule:evenodd;clip-rule:evenodd;fill:#611C1C;}
	.st28{fill-rule:evenodd;clip-rule:evenodd;fill:#370F31;}
	.st29{fill-rule:evenodd;clip-rule:evenodd;fill:#260D24;}
	.st30{fill-rule:evenodd;clip-rule:evenodd;fill:#F19B78;}
	.st31{fill-rule:evenodd;clip-rule:evenodd;fill:#E67056;}
	.st32{fill-rule:evenodd;clip-rule:evenodd;fill:#FFB294;}
	.st33{fill-rule:evenodd;clip-rule:evenodd;fill:url(#SVGID_00000101074952446504957570000001212861588324613794_);}
	.st34{fill-rule:evenodd;clip-rule:evenodd;fill:#BA3B1C;}
	.st35{fill-rule:evenodd;clip-rule:evenodd;fill:#F6CA96;}
	.st36{fill-rule:evenodd;clip-rule:evenodd;fill:#3B180F;}
	.st37{fill-rule:evenodd;clip-rule:evenodd;fill:#E66F55;}
	.st38{fill-rule:evenodd;clip-rule:evenodd;fill:#991E0E;}
	.st39{fill-rule:evenodd;clip-rule:evenodd;fill:#FFB496;}
	.st40{fill-rule:evenodd;clip-rule:evenodd;fill:#59211F;}
	.st41{fill-rule:evenodd;clip-rule:evenodd;fill:#F07464;}
	.st42{fill-rule:evenodd;clip-rule:evenodd;fill:#BD3E28;}
	.st43{fill-rule:evenodd;clip-rule:evenodd;fill:#A83200;}
	.st44{fill-rule:evenodd;clip-rule:evenodd;fill:#FF9587;}
	.st45{fill-rule:evenodd;clip-rule:evenodd;fill:#E65745;}
	.st46{fill-rule:evenodd;clip-rule:evenodd;fill:#D84B3C;}
	.st47{fill-rule:evenodd;clip-rule:evenodd;fill:#B83228;}
	.st48{fill-rule:evenodd;clip-rule:evenodd;fill:#FFFFF5;}
	.st49{fill-rule:evenodd;clip-rule:evenodd;fill:#FFFFCC;}
	.st50{fill-rule:evenodd;clip-rule:evenodd;fill:#D9D9C5;}
	.st51{fill-rule:evenodd;clip-rule:evenodd;fill:#0A0706;}
	.st52{fill-rule:evenodd;clip-rule:evenodd;fill:#8F7B35;}
	.st53{fill-rule:evenodd;clip-rule:evenodd;fill:#361433;}
	.st54{fill-rule:evenodd;clip-rule:evenodd;fill:#170916;}
	.st55{fill-rule:evenodd;clip-rule:evenodd;fill:#120711;}
	.st56{fill-rule:evenodd;clip-rule:evenodd;fill:#471817;}
	.st57{fill-rule:evenodd;clip-rule:evenodd;fill:#6E2F23;}
	.st58{fill-rule:evenodd;clip-rule:evenodd;fill:#E6654F;}
	.st59{fill-rule:evenodd;clip-rule:evenodd;fill:#FFC3A3;}
	.st60{fill-rule:evenodd;clip-rule:evenodd;fill:#E65D49;}
	.st61{fill-rule:evenodd;clip-rule:evenodd;fill:#FFDCC9;}
	.st62{fill-rule:evenodd;clip-rule:evenodd;fill:#5C4E1E;}
	.st63{fill-rule:evenodd;clip-rule:evenodd;fill:#4D1C49;}
	.st64{fill-rule:evenodd;clip-rule:evenodd;fill:url(#SVGID_00000005225439082021282050000000234372450376195256_);}
	.st65{fill-rule:evenodd;clip-rule:evenodd;fill:url(#SVGID_00000163046963253364702800000011370834269746708411_);}
	.st66{fill-rule:evenodd;clip-rule:evenodd;fill:url(#SVGID_00000049926605047302111350000000450304407082240151_);}
	.st67{fill-rule:evenodd;clip-rule:evenodd;fill:url(#SVGID_00000180358452228365670470000016203035921611075486_);}
	.st68{fill-rule:evenodd;clip-rule:evenodd;fill:none;stroke:#565656;stroke-width:7;stroke-linecap:round;stroke-miterlimit:10;}
	.st69{fill-rule:evenodd;clip-rule:evenodd;fill:url(#SVGID_00000048475663289643494000000001838822445037670024_);}
	.st70{fill-rule:evenodd;clip-rule:evenodd;fill:#D13C30;}
	.st71{fill-rule:evenodd;clip-rule:evenodd;fill:url(#SVGID_00000029046659086481477770000005240621289575497892_);}
	.st72{fill-rule:evenodd;clip-rule:evenodd;fill:url(#SVGID_00000103951339810138682710000005967661795268246175_);}
	.st73{fill-rule:evenodd;clip-rule:evenodd;fill:url(#SVGID_00000011000815128255431610000008522224328306370239_);}
	.st74{fill-rule:evenodd;clip-rule:evenodd;fill:url(#SVGID_00000071545093800517967250000006163429529890736286_);}
	.st75{fill-rule:evenodd;clip-rule:evenodd;fill:url(#SVGID_00000116945249227984577980000005021802809279699094_);}
	.st76{fill-rule:evenodd;clip-rule:evenodd;fill:url(#SVGID_00000055709427063951565520000006662193002105482902_);}
	.st77{fill-rule:evenodd;clip-rule:evenodd;fill:url(#SVGID_00000160178663655286905760000004195243144436516024_);}
	.st78{fill-rule:evenodd;clip-rule:evenodd;fill:#1B2723;}
	.st79{fill-rule:evenodd;clip-rule:evenodd;fill:#007979;}
	.st80{fill-rule:evenodd;clip-rule:evenodd;fill:#009C9C;}
	.st81{fill-rule:evenodd;clip-rule:evenodd;fill:#FFFFFF;}
	.st82{fill-rule:evenodd;clip-rule:evenodd;fill:#26302C;}
</style>
<g>
	<path class="st78" d="M313.97,84.16l26.63,13.61l-3.75,14.05l6.24,20.99l9.69-36.26c0.03-0.12,0.05-0.25,0.08-0.37
		c0.97-2.93-0.17-6.16-2.78-7.49l-32.49-18.07L313.97,84.16z"/>
	<path class="st78" d="M307.36,89.37l0.66,30.04l14.21,2.65l16.1,14.72l-36.68-6.85c-0.12-0.02-0.24-0.06-0.37-0.09
		c-3.04-0.38-5.45-2.82-5.51-5.75l-2.12-37.28L307.36,89.37z"/>
	<polygon class="st78" points="230.84,41.14 88.63,93.54 94.22,108.92 236.43,56.52 	"/>
	<path class="st79" d="M150.37,222.75l-37.73,23.58L46.18,138.59c-6.47-10.49-3.27-24.27,7.15-30.78l0,0
		c10.42-6.51,24.11-3.29,30.58,7.2L150.37,222.75z"/>
	<path class="st80" d="M144.56,202.07L144.56,202.07c-13.61-7.91-31.01-3.21-38.86,10.48l-50.63,88.27l49.28,28.64l50.63-88.27
		C162.83,227.49,158.17,209.98,144.56,202.07z"/>
	<path class="st79" d="M106.79,114.97l-21.07,9.11L72.82,93.85l21.07-9.11c3.02-1.31,6.52,0.1,7.82,3.14l8.21,19.22
		C111.2,110.14,109.81,113.66,106.79,114.97z"/>
	<path class="st79" d="M315.59,99.06L315.59,99.06c-9.05,6.69-21.77,4.72-28.41-4.39L253.9,49.03c-6.64-9.11-4.69-21.91,4.36-28.6
		l0,0c9.05-6.69,21.77-4.72,28.41,4.39l33.28,45.64C326.6,79.57,324.64,92.37,315.59,99.06z"/>
	<path class="st80" d="M318.15,61.25L318.15,61.25c-1.26-1.93-3.83-2.47-5.75-1.2l-33.74,22.29c-1.92,1.27-2.45,3.86-1.19,5.79v0
		c1.26,1.93,3.83,2.47,5.75,1.2l33.74-22.29C318.88,65.77,319.41,63.18,318.15,61.25z"/>
	<path class="st80" d="M87.28,82.95l19.7,39.09c1.9,3.78,0.4,8.39-3.35,10.31l-38.77,16.82c-14.48,7.39-32.17,1.57-39.51-13l0,0
		C18,121.6,23.79,103.79,38.26,96.4l38.77-16.82C80.79,77.67,85.37,79.18,87.28,82.95z"/>
	<path class="st79" d="M233.5,31.5l21.83-7.07l10.01,31.32l-21.83,7.07c-3.13,1.01-6.48-0.72-7.49-3.87l-6.37-19.92
		C228.65,35.89,230.37,32.52,233.5,31.5z"/>
	<path class="st80" d="M288.48,56.5l-32.56,10.54c-3.7,1.2-7.66-0.85-8.85-4.57L236.6,29.7c-1.19-3.72,0.84-7.71,4.54-8.9
		l32.56-10.54c3.7-1.2,7.66,0.85,8.85,4.57l10.48,32.78C294.21,51.32,292.18,55.3,288.48,56.5z"/>
	<ellipse class="st81" cx="131.87" cy="224.2" rx="14.68" ry="14.77"/>
	<ellipse class="st81" cx="60.24" cy="115.56" rx="14.68" ry="14.77"/>
	<ellipse class="st81" cx="264.81" cy="38.65" rx="11.97" ry="12.05"/>
	<path class="st82" d="M12,389.2h2.35v-59.86h13.37v-14.42c0-8.61,6.93-15.58,15.48-15.58h90.59c8.55,0,15.48,6.98,15.48,15.58
		v14.42h13.37v59.86H165c6.6,0,12,5.4,12,12v79H0l0-79C0,394.6,5.4,389.2,12,389.2z"/>
</g>
</svg>
