<?xml version="1.0" encoding="utf-8"?>
<!-- Generator: Adobe Illustrator 26.2.1, SVG Export Plug-In . SVG Version: 6.00 Build 0)  -->
<svg version="1.1" id="Capa_1" xmlns="http://www.w3.org/2000/svg" xmlns:xlink="http://www.w3.org/1999/xlink" x="0px" y="0px"
	 viewBox="0 0 1920 1080" style="enable-background:new 0 0 1920 1080;" xml:space="preserve">
<style type="text/css">
	.st0{fill:#060634;}
	.st1{opacity:0.5;fill:#565E8F;enable-background:new    ;}
	.st2{fill:url(#SVGID_1_);}
</style>
<g>
	<g>
		<rect x="-3.8" y="-0.63" class="st0" width="1927.6" height="1081.26"/>
	</g>
</g>
<path class="st1" d="M63.7-0.55h-2.1v46.32H21.96v1.67H61.6v43.07H21.96v1.67H61.6v43.07H21.96v1.67H61.6v43.07H21.96v1.67H61.6
	v43.07H21.96v1.67H61.6v43.07H21.96v1.67H61.6v43.07H21.96v1.67H61.6v43.07H21.96v1.67H61.6v43.07H21.96v1.67H61.6v43.07H21.96v1.67
	H61.6v43.07H21.96v1.67H61.6v43.07H21.96v1.67H61.6v43.07H21.96v1.67H61.6v43.07H21.96v1.67H61.6v43.07H21.96v1.67H61.6v43.07H21.96
	v1.67H61.6v43.07H21.96v1.67H61.6v43.07H21.96v1.67H61.6v43.07H21.96v1.67H61.6v43.07H21.96v1.67H61.6v43.07H21.96v1.67H61.6v43.07
	H21.96v1.67H61.6v43.07H21.96v1.67H61.6v48.83h2.1v-48.81h51.33v48.81h2.1v-48.81h51.33v48.81h2.1v-48.81h51.33v48.81h2.1v-48.81
	h51.34v48.81h2.1v-48.81h51.33v48.81h2.1v-48.81h51.37v48.81h2.1v-48.81h51.33v48.81h2.1v-48.81h51.33v48.81h2.1v-48.81h51.34v48.81
	h2.1v-48.81h51.33v48.81h2.1v-48.81h51.33v48.81h2.1v-48.81h51.33v48.81h2.1v-48.81h51.34v48.81h2.1v-48.81h51.33v48.81h2.1v-48.81
	h51.33v48.81h2.1v-48.81h51.33v48.81h2.1v-48.81h51.33v48.81h2.1v-48.81h51.34v48.81h2.1v-48.81h51.33v48.81h2.1v-48.81h51.33v48.81
	h2.1v-48.81h51.33v48.81h2.1v-48.81h51.33v48.81h2.1v-48.81h51.34v48.81h2.1v-48.81h51.33v48.81h2.11v-48.81h51.33v48.81h2.1v-48.81
	h51.33v48.81h2.1v-48.81h51.34v48.81h2.1v-48.81h51.33v48.81h2.1v-48.81h51.33v48.81h2.1v-48.81h51.33v48.81h2.1v-48.81h51.33v48.81
	h2.1v-48.81h51.34v48.81h2.1v-48.81h51.33v48.81h2.1v-48.81h51.33v48.81h2.1v-48.81h17.6v-1.67h-17.6V987h17.6v-1.67h-17.6v-43.07
	h17.6v-1.67h-17.6v-43.07h17.6v-1.67h-17.6v-43.07h17.6v-1.67h-17.6v-43.07h17.6v-1.67h-17.6V763.3h17.6v-1.67h-17.6v-43.07h17.6
	v-1.67h-17.6v-43.07h17.6v-1.67h-17.6v-43.07h17.6v-1.67h-17.6v-43.07h17.6v-1.67h-17.6V539.6h17.6v-1.67h-17.6v-43.08h17.6v-1.67
	h-17.6v-43.07h17.6v-1.67h-17.6v-43.07h17.6v-1.67h-17.6v-43.07h17.6v-1.67h-17.6v-43.07h17.6v-1.67h-17.6v-43.07h17.6v-1.67h-17.6
	v-43.07h17.6v-1.67h-17.6v-43.07h17.6V180h-17.6v-43.07h17.6v-1.67h-17.6V92.18h17.6v-1.67h-17.6V47.44h17.6v-1.67h-17.6V-0.55h-2.1
	v46.32h-51.33V-0.55h-2.1v46.32h-51.33V-0.55h-2.1v46.32h-51.34V-0.55h-2.1v46.32h-51.33V-0.55h-2.1v46.32h-51.33V-0.55h-2.1v46.32
	h-51.33V-0.55h-2.1v46.32h-51.33V-0.55h-2.1v46.32h-51.34V-0.55h-2.1v46.32h-51.33V-0.55h-2.1v46.32h-51.33V-0.55h-2.11v46.32
	h-51.33V-0.55h-2.1v46.32h-51.34V-0.55h-2.1v46.32h-51.33V-0.55h-2.1v46.32h-51.33V-0.55h-2.1v46.32h-51.33V-0.55h-2.1v46.32h-51.33
	V-0.55h-2.1v46.32h-51.34V-0.55h-2.1v46.32h-51.33V-0.55h-2.1v46.32h-51.33V-0.55h-2.1v46.32h-51.33V-0.55h-2.1v46.32h-51.33V-0.55
	h-2.1v46.32h-51.34V-0.55h-2.1v46.32h-51.29V-0.55h-2.1v46.32H598.1V-0.55H596v46.32h-51.33V-0.55h-2.1v46.32h-51.34V-0.55h-2.1
	v46.32H437.8V-0.55h-2.1v46.32h-51.37V-0.55h-2.1v46.32H330.9V-0.55h-2.1v46.32h-51.33V-0.55h-2.1v46.32h-51.34V-0.55h-2.1v46.32
	H170.6V-0.55h-2.1v46.32h-51.33V-0.55h-2.1v46.32H63.7V-0.55z M63.7,92.18h51.33v43.07H63.7V92.18z M651.53,539.59h51.33v43.07
	h-51.33V539.59z M649.42,582.66h-51.33v-43.07h51.33V582.66z M704.97,539.59h51.34v43.07h-51.34V539.59z M758.41,539.59h51.33v43.07
	h-51.33V539.59z M811.85,539.59h51.33v43.07h-51.33V539.59z M865.29,539.59h51.33v43.07h-51.33V539.59z M918.72,539.59h51.33v43.07
	h-51.33V539.59z M972.16,539.59h51.34v43.07h-51.34V539.59z M1025.61,539.59h51.33v43.07h-51.33V539.59z M1079.04,539.59h51.33
	v43.07h-51.33V539.59z M1132.48,539.59h51.33v43.07h-51.33V539.59z M1185.92,539.59h51.33v43.07h-51.33V539.59z M1239.35,539.59
	h51.34v43.07h-51.34V539.59z M1292.8,539.59h51.33v43.07h-51.33V539.59z M1292.8,537.92v-43.07h51.33v43.07H1292.8z M1290.69,537.92
	h-51.34v-43.07h51.34V537.92z M1237.25,537.92h-51.33v-43.07h51.33V537.92z M1183.81,537.92h-51.33v-43.07h51.33V537.92z
	 M1130.38,537.92h-51.33v-43.07h51.33V537.92z M1076.94,537.92h-51.33v-43.07h51.33V537.92z M1023.5,537.92h-51.34v-43.07h51.34
	V537.92z M970.06,537.92h-51.33v-43.07h51.33V537.92z M916.62,537.92h-51.33v-43.07h51.33V537.92z M863.18,537.92h-51.33v-43.07
	h51.33V537.92z M809.74,537.92h-51.33v-43.07h51.33V537.92z M756.31,537.92h-51.34v-43.07h51.34V537.92z M702.86,537.92h-51.33
	v-43.07h51.33V537.92z M649.42,537.92h-51.33v-43.07h51.33V537.92z M595.99,537.92h-51.33v-43.07h51.33V537.92z M595.99,539.59
	v43.07h-51.33v-43.07H595.99z M595.99,584.33v43.07h-51.33v-43.07H595.99z M598.09,584.33h51.33v43.07h-51.33V584.33z
	 M651.53,584.33h51.33v43.07h-51.33V584.33z M704.97,584.33h51.34v43.07h-51.34V584.33z M758.41,584.33h51.33v43.07h-51.33V584.33z
	 M811.85,584.33h51.33v43.07h-51.33V584.33z M865.29,584.33h51.33v43.07h-51.33V584.33z M918.72,584.33h51.33v43.07h-51.33V584.33z
	 M972.16,584.33h51.34v43.07h-51.34V584.33z M1025.61,584.33h51.33v43.07h-51.33V584.33z M1079.04,584.33h51.33v43.07h-51.33V584.33
	z M1132.48,584.33h51.33v43.07h-51.33V584.33z M1185.92,584.33h51.33v43.07h-51.33V584.33z M1239.35,584.33h51.34v43.07h-51.34
	V584.33z M1292.8,584.33h51.33v43.07h-51.33V584.33z M1346.24,584.33h51.33v43.07h-51.33V584.33z M1346.24,582.66v-43.07h51.33
	v43.07H1346.24z M1346.24,537.92v-43.07h51.33v43.07H1346.24z M1346.24,493.18v-43.07h51.33v43.07H1346.24z M1344.13,493.18h-51.33
	v-43.07h51.33V493.18z M1290.69,493.18h-51.34v-43.07h51.34V493.18z M1237.25,493.18h-51.33v-43.07h51.33V493.18z M1183.81,493.18
	h-51.33v-43.07h51.33V493.18z M1130.38,493.18h-51.33v-43.07h51.33V493.18z M1076.94,493.18h-51.33v-43.07h51.33V493.18z
	 M1023.5,493.18h-51.34v-43.07h51.34V493.18z M970.06,493.18h-51.33v-43.07h51.33V493.18z M916.62,493.18h-51.33v-43.07h51.33
	V493.18z M863.18,493.18h-51.33v-43.07h51.33V493.18z M809.74,493.18h-51.33v-43.07h51.33V493.18z M756.31,493.18h-51.34v-43.07
	h51.34V493.18z M702.86,493.18h-51.33v-43.07h51.33V493.18z M649.42,493.18h-51.33v-43.07h51.33V493.18z M595.99,493.18h-51.33
	v-43.07h51.33V493.18z M542.55,493.18h-51.34v-43.07h51.34V493.18z M542.55,494.85v43.07h-51.34v-43.07H542.55z M542.55,539.59
	v43.07h-51.34v-43.07H542.55z M542.55,584.33v43.07h-51.34v-43.07H542.55z M542.55,629.07v43.07h-51.34v-43.07H542.55z
	 M544.65,629.07h51.33v43.07h-51.33V629.07z M598.09,629.07h51.33v43.07h-51.33V629.07z M651.53,629.07h51.33v43.07h-51.33V629.07z
	 M704.97,629.07h51.34v43.07h-51.34V629.07z M758.41,629.07h51.33v43.07h-51.33V629.07z M811.85,629.07h51.33v43.07h-51.33V629.07z
	 M865.29,629.07h51.33v43.07h-51.33V629.07z M918.72,629.07h51.33v43.07h-51.33V629.07z M972.16,629.07h51.34v43.07h-51.34V629.07z
	 M1025.61,629.07h51.33v43.07h-51.33V629.07z M1079.04,629.07h51.33v43.07h-51.33V629.07z M1132.48,629.07h51.33v43.07h-51.33
	V629.07z M1185.92,629.07h51.33v43.07h-51.33V629.07z M1239.35,629.07h51.34v43.07h-51.34V629.07z M1292.8,629.07h51.33v43.07
	h-51.33V629.07z M1346.24,629.07h51.33v43.07h-51.33V629.07z M1399.67,629.07H1451v43.07h-51.33V629.07z M1399.67,627.4v-43.07H1451
	v43.07H1399.67z M1399.67,582.66v-43.07H1451v43.07H1399.67z M1399.67,537.92v-43.07H1451v43.07H1399.67z M1399.67,493.18v-43.07
	H1451v43.07H1399.67z M1399.67,448.44v-43.07H1451v43.07H1399.67z M1397.57,448.44h-51.33v-43.07h51.33V448.44z M1344.13,448.44
	h-51.33v-43.07h51.33V448.44z M1290.69,448.44h-51.34v-43.07h51.34V448.44z M1237.25,448.44h-51.33v-43.07h51.33V448.44z
	 M1183.81,448.44h-51.33v-43.07h51.33V448.44z M1130.38,448.44h-51.33v-43.07h51.33V448.44z M1076.94,448.44h-51.33v-43.07h51.33
	V448.44z M1023.5,448.44h-51.34v-43.07h51.34V448.44z M970.06,448.44h-51.33v-43.07h51.33V448.44z M916.62,448.44h-51.33v-43.07
	h51.33V448.44z M863.18,448.44h-51.33v-43.07h51.33V448.44z M809.74,448.44h-51.33v-43.07h51.33V448.44z M756.31,448.44h-51.34
	v-43.07h51.34V448.44z M702.86,448.44h-51.33v-43.07h51.33V448.44z M649.42,448.44h-51.33v-43.07h51.33V448.44z M595.99,448.44
	h-51.33v-43.07h51.33V448.44z M542.55,448.44h-51.34v-43.07h51.34V448.44z M489.1,448.44h-51.33v-43.07h51.33V448.44z M489.1,450.11
	v43.07h-51.33v-43.07H489.1z M489.1,494.85v43.07h-51.33v-43.07H489.1z M489.1,539.59v43.07h-51.33v-43.07H489.1z M489.1,584.33
	v43.07h-51.33v-43.07H489.1z M489.1,629.07v43.07h-51.33v-43.07H489.1z M489.1,673.81v43.07h-51.33v-43.07H489.1z M491.21,673.81
	h51.34v43.07h-51.34V673.81z M544.65,673.81h51.33v43.07h-51.33V673.81z M598.09,673.81h51.33v43.07h-51.33V673.81z M651.53,673.81
	h51.33v43.07h-51.33V673.81z M704.97,673.81h51.34v43.07h-51.34V673.81z M758.41,673.81h51.33v43.07h-51.33V673.81z M811.85,673.81
	h51.33v43.07h-51.33V673.81z M865.29,673.81h51.33v43.07h-51.33V673.81z M918.72,673.81h51.33v43.07h-51.33V673.81z M972.16,673.81
	h51.34v43.07h-51.34V673.81z M1025.61,673.81h51.33v43.07h-51.33V673.81z M1079.04,673.81h51.33v43.07h-51.33V673.81z
	 M1132.48,673.81h51.33v43.07h-51.33V673.81z M1185.92,673.81h51.33v43.07h-51.33V673.81z M1239.35,673.81h51.34v43.07h-51.34
	V673.81z M1292.8,673.81h51.33v43.07h-51.33V673.81z M1346.24,673.81h51.33v43.07h-51.33V673.81z M1399.67,673.81H1451v43.07h-51.33
	V673.81z M1453.11,673.81h51.34v43.07h-51.34V673.81z M1453.11,672.14v-43.07h51.34v43.07H1453.11z M1453.11,627.4v-43.07h51.34
	v43.07H1453.11z M1453.11,582.66v-43.07h51.34v43.07H1453.11z M1453.11,537.92v-43.07h51.34v43.07H1453.11z M1453.11,493.18v-43.07
	h51.34v43.07H1453.11z M1453.11,448.44v-43.07h51.34v43.07H1453.11z M1453.11,403.7v-43.07h51.34v43.07H1453.11z M1451.01,403.7
	h-51.33v-43.07h51.33V403.7z M1397.57,403.7h-51.33v-43.07h51.33V403.7z M1344.13,403.7h-51.33v-43.07h51.33V403.7z M1290.69,403.7
	h-51.34v-43.07h51.34V403.7z M1237.25,403.7h-51.33v-43.07h51.33V403.7z M1183.81,403.7h-51.33v-43.07h51.33V403.7z M1130.38,403.7
	h-51.33v-43.07h51.33V403.7z M1076.94,403.7h-51.33v-43.07h51.33V403.7z M1023.5,403.7h-51.34v-43.07h51.34V403.7z M970.06,403.7
	h-51.33v-43.07h51.33V403.7z M916.62,403.7h-51.33v-43.07h51.33V403.7z M863.18,403.7h-51.33v-43.07h51.33V403.7z M809.74,403.7
	h-51.33v-43.07h51.33V403.7z M756.31,403.7h-51.34v-43.07h51.34V403.7z M702.86,403.7h-51.33v-43.07h51.33V403.7z M649.42,403.7
	h-51.33v-43.07h51.33V403.7z M595.99,403.7h-51.33v-43.07h51.33V403.7z M542.55,403.7h-51.34v-43.07h51.34V403.7z M489.1,403.7
	h-51.33v-43.07h51.33V403.7z M435.67,403.7h-51.34v-43.07h51.33v43.07H435.67z M435.67,405.37v43.07h-51.34v-43.07H435.67z
	 M435.67,450.11v43.07h-51.34v-43.07H435.67z M435.67,494.85v43.07h-51.34v-43.07H435.67z M435.67,539.59v43.07h-51.34v-43.07
	H435.67z M435.67,584.33v43.07h-51.34v-43.07H435.67z M435.67,629.07v43.07h-51.34v-43.07H435.67z M435.67,673.81v43.07h-51.34
	v-43.07H435.67z M435.67,718.56v43.07h-51.34v-43.07H435.67z M437.77,718.56h51.33v43.07h-51.33L437.77,718.56L437.77,718.56z
	 M491.21,718.56h51.34v43.07h-51.34V718.56z M544.65,718.56h51.33v43.07h-51.33V718.56z M598.09,718.56h51.33v43.07h-51.33V718.56z
	 M651.53,718.56h51.33v43.07h-51.33V718.56z M704.97,718.56h51.34v43.07h-51.34V718.56z M758.41,718.56h51.33v43.07h-51.33V718.56z
	 M811.85,718.56h51.33v43.07h-51.33V718.56z M865.29,718.56h51.33v43.07h-51.33V718.56z M918.72,718.56h51.33v43.07h-51.33V718.56z
	 M972.16,718.56h51.34v43.07h-51.34V718.56z M1025.61,718.56h51.33v43.07h-51.33V718.56z M1079.04,718.56h51.33v43.07h-51.33V718.56
	z M1132.48,718.56h51.33v43.07h-51.33V718.56z M1185.92,718.56h51.33v43.07h-51.33V718.56z M1239.35,718.56h51.34v43.07h-51.34
	V718.56z M1292.8,718.56h51.33v43.07h-51.33V718.56z M1346.24,718.56h51.33v43.07h-51.33V718.56z M1399.67,718.56H1451v43.07h-51.33
	V718.56z M1453.11,718.56h51.34v43.07h-51.34V718.56z M1506.56,718.56h51.33v43.07h-51.33V718.56z M1506.56,716.88v-43.07h51.33
	v43.07H1506.56z M1506.56,672.14v-43.07h51.33v43.07H1506.56z M1506.56,627.4v-43.07h51.33v43.07H1506.56z M1506.56,582.66v-43.07
	h51.33v43.07H1506.56z M1506.56,537.92v-43.07h51.33v43.07H1506.56z M1506.56,493.18v-43.07h51.33v43.07H1506.56z M1506.56,448.44
	v-43.07h51.33v43.07H1506.56z M1506.56,403.7v-43.07h51.33v43.07H1506.56z M1506.56,358.96v-43.07h51.33v43.07H1506.56z
	 M1504.45,358.96h-51.34v-43.07h51.34V358.96z M1451.01,358.96h-51.33v-43.07h51.33V358.96z M1397.57,358.96h-51.33v-43.07h51.33
	V358.96z M1344.13,358.96h-51.33v-43.07h51.33V358.96z M1290.69,358.96h-51.34v-43.07h51.34V358.96z M1237.25,358.96h-51.33v-43.07
	h51.33V358.96z M1183.81,358.96h-51.33v-43.07h51.33V358.96z M1130.38,358.96h-51.33v-43.07h51.33V358.96z M1076.94,358.96h-51.33
	v-43.07h51.33V358.96z M1023.5,358.96h-51.34v-43.07h51.34V358.96z M970.06,358.96h-51.33v-43.07h51.33V358.96z M916.62,358.96
	h-51.33v-43.07h51.33V358.96z M863.18,358.96h-51.33v-43.07h51.33V358.96z M809.74,358.96h-51.33v-43.07h51.33V358.96z
	 M756.31,358.96h-51.34v-43.07h51.34V358.96z M702.86,358.96h-51.33v-43.07h51.33V358.96z M649.42,358.96h-51.33v-43.07h51.33
	V358.96z M595.99,358.96h-51.33v-43.07h51.33V358.96z M542.55,358.96h-51.34v-43.07h51.34V358.96z M489.1,358.96h-51.33v-43.07
	h51.33V358.96z M435.67,358.96h-51.34v-43.07h51.33v43.07H435.67z M382.23,358.96H330.9v-43.07h51.33V358.96z M382.23,360.63v43.07
	H330.9v-43.07H382.23z M382.23,405.37v43.07H330.9v-43.07H382.23z M382.23,450.11v43.07H330.9v-43.07H382.23z M382.23,494.85v43.07
	H330.9v-43.07H382.23z M382.23,539.59v43.07H330.9v-43.07H382.23z M382.23,584.33v43.07H330.9v-43.07H382.23z M382.23,629.07v43.07
	H330.9v-43.07H382.23z M382.23,673.81v43.07H330.9v-43.07H382.23z M382.23,718.56v43.07H330.9v-43.07H382.23z M382.23,763.3v43.07
	H330.9V763.3H382.23z M384.33,763.3h51.33v43.07h-51.33V763.3z M437.77,763.3h51.33v43.07h-51.33L437.77,763.3L437.77,763.3z
	 M491.21,763.3h51.34v43.07h-51.34V763.3z M544.65,763.3h51.33v43.07h-51.33V763.3z M598.09,763.3h51.33v43.07h-51.33V763.3z
	 M651.53,763.3h51.33v43.07h-51.33V763.3z M704.97,763.3h51.34v43.07h-51.34V763.3z M758.41,763.3h51.33v43.07h-51.33V763.3z
	 M811.85,763.3h51.33v43.07h-51.33V763.3z M865.29,763.3h51.33v43.07h-51.33V763.3z M918.72,763.3h51.33v43.07h-51.33V763.3z
	 M972.16,763.3h51.34v43.07h-51.34V763.3z M1025.61,763.3h51.33v43.07h-51.33V763.3z M1079.04,763.3h51.33v43.07h-51.33V763.3z
	 M1132.48,763.3h51.33v43.07h-51.33V763.3z M1185.92,763.3h51.33v43.07h-51.33V763.3z M1239.35,763.3h51.34v43.07h-51.34V763.3z
	 M1292.8,763.3h51.33v43.07h-51.33V763.3z M1346.24,763.3h51.33v43.07h-51.33V763.3z M1399.67,763.3H1451v43.07h-51.33V763.3z
	 M1453.11,763.3h51.34v43.07h-51.34V763.3z M1506.56,763.3h51.33v43.07h-51.33V763.3z M1559.99,763.3h51.33v43.07h-51.33V763.3z
	 M1559.99,761.62v-43.07h51.33v43.07H1559.99z M1559.99,716.88v-43.07h51.33v43.07H1559.99z M1559.99,672.14v-43.07h51.33v43.07
	H1559.99z M1559.99,627.4v-43.07h51.33v43.07H1559.99z M1559.99,582.66v-43.07h51.33v43.07H1559.99z M1559.99,537.92v-43.07h51.33
	v43.07H1559.99z M1559.99,493.18v-43.07h51.33v43.07H1559.99z M1559.99,448.44v-43.07h51.33v43.07H1559.99z M1559.99,403.7v-43.07
	h51.33v43.07H1559.99z M1559.99,358.96v-43.07h51.33v43.07H1559.99z M1559.99,314.21v-43.06h51.33v43.07h-51.33V314.21z
	 M1557.89,314.21h-51.33v-43.06h51.33V314.21z M1504.45,314.21h-51.34v-43.06h51.34V314.21z M1451.01,314.21h-51.33v-43.06h51.33
	V314.21z M1397.57,314.21h-51.33v-43.06h51.33V314.21z M1344.13,314.21h-51.33v-43.06h51.33V314.21z M1290.69,314.21h-51.34v-43.06
	h51.34V314.21z M1237.25,314.21h-51.33v-43.06h51.33V314.21z M1183.81,314.21h-51.33v-43.06h51.33V314.21z M1130.38,314.21h-51.33
	v-43.06h51.33V314.21z M1076.94,314.21h-51.33v-43.06h51.33V314.21z M1023.5,314.21h-51.34v-43.06h51.34V314.21z M970.06,314.21
	h-51.33v-43.06h51.33V314.21z M916.62,314.21h-51.33v-43.06h51.33V314.21z M863.18,314.21h-51.33v-43.06h51.33V314.21z
	 M809.74,314.21h-51.33v-43.06h51.33V314.21z M756.31,314.21h-51.34v-43.06h51.34V314.21z M702.86,314.21h-51.33v-43.06h51.33
	V314.21z M649.42,314.21h-51.33v-43.06h51.33V314.21z M595.99,314.21h-51.33v-43.06h51.33V314.21z M542.55,314.21h-51.34v-43.06
	h51.34V314.21z M489.1,314.21h-51.33v-43.06h51.33V314.21z M435.67,314.21h-51.34v-43.06h51.33v43.06H435.67z M382.23,314.21H330.9
	v-43.06h51.33V314.21z M328.79,314.21h-51.33v-43.06h51.33V314.21z M328.79,315.89v43.07h-51.33v-43.07H328.79z M328.79,360.63
	v43.07h-51.33v-43.07H328.79z M328.79,405.37v43.07h-51.33v-43.07H328.79z M328.79,450.11v43.07h-51.33v-43.07H328.79z
	 M328.79,494.85v43.07h-51.33v-43.07H328.79z M328.79,539.59v43.07h-51.33v-43.07H328.79z M328.79,584.33v43.07h-51.33v-43.07
	H328.79z M328.79,629.07v43.07h-51.33v-43.07H328.79z M328.79,673.81v43.07h-51.33v-43.07H328.79z M328.79,718.56v43.07h-51.33
	v-43.07H328.79z M328.79,763.3v43.07h-51.33V763.3H328.79z M328.79,808.04v43.07h-51.33v-43.07H328.79z M330.9,808.04h51.33v43.07
	H330.9L330.9,808.04L330.9,808.04z M384.33,808.04h51.33v43.07h-51.33V808.04z M437.77,808.04h51.33v43.07h-51.33L437.77,808.04
	L437.77,808.04z M491.21,808.04h51.34v43.07h-51.34V808.04z M544.65,808.04h51.33v43.07h-51.33V808.04z M598.09,808.04h51.33v43.07
	h-51.33V808.04z M651.53,808.04h51.33v43.07h-51.33V808.04z M704.97,808.04h51.34v43.07h-51.34V808.04z M758.41,808.04h51.33v43.07
	h-51.33V808.04z M811.85,808.04h51.33v43.07h-51.33V808.04z M865.29,808.04h51.33v43.07h-51.33V808.04z M918.72,808.04h51.33v43.07
	h-51.33V808.04z M972.16,808.04h51.34v43.07h-51.34V808.04z M1025.61,808.04h51.33v43.07h-51.33V808.04z M1079.04,808.04h51.33
	v43.07h-51.33V808.04z M1132.48,808.04h51.33v43.07h-51.33V808.04z M1185.92,808.04h51.33v43.07h-51.33V808.04z M1239.35,808.04
	h51.34v43.07h-51.34V808.04z M1292.8,808.04h51.33v43.07h-51.33V808.04z M1346.24,808.04h51.33v43.07h-51.33V808.04z
	 M1399.67,808.04H1451v43.07h-51.33V808.04z M1453.11,808.04h51.34v43.07h-51.34V808.04z M1506.56,808.04h51.33v43.07h-51.33V808.04
	z M1559.99,808.04h51.33v43.07h-51.33V808.04z M1613.43,808.04h51.33v43.07h-51.33V808.04z M1613.43,806.36v-43.07h51.33v43.07
	H1613.43z M1613.43,761.62v-43.07h51.33v43.07H1613.43z M1613.43,716.88v-43.07h51.33v43.07H1613.43z M1613.43,672.14v-43.07h51.33
	v43.07H1613.43z M1613.43,627.4v-43.07h51.33v43.07H1613.43z M1613.43,582.66v-43.07h51.33v43.07H1613.43z M1613.43,537.92v-43.07
	h51.33v43.07H1613.43z M1613.43,493.18v-43.07h51.33v43.07H1613.43z M1613.43,448.44v-43.07h51.33v43.07H1613.43z M1613.43,403.7
	v-43.07h51.33v43.07H1613.43z M1613.43,358.96v-43.07h51.33v43.07H1613.43z M1613.43,314.21v-43.06h51.33v43.07h-51.33V314.21z
	 M1613.43,269.47V226.4h51.33v43.07H1613.43z M1611.33,269.47H1560V226.4h51.33V269.47z M1557.89,269.47h-51.33V226.4h51.33V269.47z
	 M1504.45,269.47h-51.34V226.4h51.34V269.47z M1451.01,269.47h-51.33V226.4h51.33V269.47z M1397.57,269.47h-51.33V226.4h51.33
	V269.47z M1344.13,269.47h-51.33V226.4h51.33V269.47z M1290.69,269.47h-51.34V226.4h51.34V269.47z M1237.25,269.47h-51.33V226.4
	h51.33V269.47z M1183.81,269.47h-51.33V226.4h51.33V269.47z M1130.38,269.47h-51.33V226.4h51.33V269.47z M1076.94,269.47h-51.33
	V226.4h51.33V269.47z M1023.5,269.47h-51.34V226.4h51.34V269.47z M970.06,269.47h-51.33V226.4h51.33V269.47z M916.62,269.47h-51.33
	V226.4h51.33V269.47z M863.18,269.47h-51.33V226.4h51.33V269.47z M809.74,269.47h-51.33V226.4h51.33V269.47z M756.31,269.47h-51.34
	V226.4h51.34V269.47z M702.86,269.47h-51.33V226.4h51.33V269.47z M649.42,269.47h-51.33V226.4h51.33V269.47z M595.99,269.47h-51.33
	V226.4h51.33V269.47z M542.55,269.47h-51.34V226.4h51.34V269.47z M489.1,269.47h-51.33V226.4h51.33V269.47z M435.67,269.47h-51.34
	V226.4h51.33v43.07H435.67z M382.23,269.47H330.9V226.4h51.33V269.47z M328.79,269.47h-51.33V226.4h51.33V269.47z M275.35,269.47
	h-51.34V226.4h51.34V269.47z M275.35,271.15v43.07h-51.34v-43.07H275.35z M275.35,315.89v43.07h-51.34v-43.07H275.35z
	 M275.35,360.63v43.07h-51.34v-43.07H275.35z M275.35,405.37v43.07h-51.34v-43.07H275.35z M275.35,450.11v43.07h-51.34v-43.07
	H275.35z M275.35,494.85v43.07h-51.34v-43.07H275.35z M275.35,539.59v43.07h-51.34v-43.07H275.35z M275.35,584.33v43.07h-51.34
	v-43.07H275.35z M275.35,629.07v43.07h-51.34v-43.07H275.35z M275.35,673.81v43.07h-51.34v-43.07H275.35z M275.35,718.56v43.07
	h-51.34v-43.07H275.35z M275.35,763.3v43.07h-51.34V763.3H275.35z M275.35,808.04v43.07h-51.34v-43.07H275.35z M275.35,852.78v43.07
	h-51.34v-43.07H275.35z M277.46,852.78h51.33v43.07h-51.33L277.46,852.78L277.46,852.78z M330.9,852.78h51.33v43.07H330.9
	L330.9,852.78L330.9,852.78z M384.33,852.78h51.33v43.07h-51.33V852.78z M437.77,852.78h51.33v43.07h-51.33L437.77,852.78
	L437.77,852.78z M491.21,852.78h51.34v43.07h-51.34V852.78z M544.65,852.78h51.33v43.07h-51.33V852.78z M598.09,852.78h51.33v43.07
	h-51.33V852.78z M651.53,852.78h51.33v43.07h-51.33V852.78z M704.97,852.78h51.34v43.07h-51.34V852.78z M758.41,852.78h51.33v43.07
	h-51.33V852.78z M811.85,852.78h51.33v43.07h-51.33V852.78z M865.29,852.78h51.33v43.07h-51.33V852.78z M918.72,852.78h51.33v43.07
	h-51.33V852.78z M972.16,852.78h51.34v43.07h-51.34V852.78z M1025.61,852.78h51.33v43.07h-51.33V852.78z M1079.04,852.78h51.33
	v43.07h-51.33V852.78z M1132.48,852.78h51.33v43.07h-51.33V852.78z M1185.92,852.78h51.33v43.07h-51.33V852.78z M1239.35,852.78
	h51.34v43.07h-51.34V852.78z M1292.8,852.78h51.33v43.07h-51.33V852.78z M1346.24,852.78h51.33v43.07h-51.33V852.78z
	 M1399.67,852.78H1451v43.07h-51.33V852.78z M1453.11,852.78h51.34v43.07h-51.34V852.78z M1506.56,852.78h51.33v43.07h-51.33V852.78
	z M1559.99,852.78h51.33v43.07h-51.33V852.78z M1613.43,852.78h51.33v43.07h-51.33V852.78z M1666.87,852.78h51.33v43.07h-51.33
	V852.78z M1666.87,851.11v-43.07h51.33v43.07H1666.87z M1666.87,806.36v-43.07h51.33v43.07H1666.87z M1666.87,761.62v-43.07h51.33
	v43.07H1666.87z M1666.87,716.88v-43.07h51.33v43.07H1666.87z M1666.87,672.14v-43.07h51.33v43.07H1666.87z M1666.87,627.4v-43.07
	h51.33v43.07H1666.87z M1666.87,582.66v-43.07h51.33v43.07H1666.87z M1666.87,537.92v-43.07h51.33v43.07H1666.87z M1666.87,493.18
	v-43.07h51.33v43.07H1666.87z M1666.87,448.44v-43.07h51.33v43.07H1666.87z M1666.87,403.7v-43.07h51.33v43.07H1666.87z
	 M1666.87,358.96v-43.07h51.33v43.07H1666.87z M1666.87,314.21v-43.06h51.33v43.07h-51.33V314.21z M1666.87,269.47V226.4h51.33
	v43.07H1666.87z M1666.87,224.73v-43.07h51.33v43.07H1666.87z M1664.76,224.73h-51.33v-43.07h51.33V224.73z M1611.33,224.73H1560
	v-43.07h51.33V224.73z M1557.89,224.73h-51.33v-43.07h51.33V224.73z M1504.45,224.73h-51.34v-43.07h51.34V224.73z M1451.01,224.73
	h-51.33v-43.07h51.33V224.73z M1397.57,224.73h-51.33v-43.07h51.33V224.73z M1344.13,224.73h-51.33v-43.07h51.33V224.73z
	 M1290.69,224.73h-51.34v-43.07h51.34V224.73z M1237.25,224.73h-51.33v-43.07h51.33V224.73z M1183.81,224.73h-51.33v-43.07h51.33
	V224.73z M1130.38,224.73h-51.33v-43.07h51.33V224.73z M1076.94,224.73h-51.33v-43.07h51.33V224.73z M1023.5,224.73h-51.34v-43.07
	h51.34V224.73z M970.06,224.73h-51.33v-43.07h51.33V224.73z M916.62,224.73h-51.33v-43.07h51.33V224.73z M863.18,224.73h-51.33
	v-43.07h51.33V224.73z M809.74,224.73h-51.33v-43.07h51.33V224.73z M756.31,224.73h-51.34v-43.07h51.34V224.73z M702.86,224.73
	h-51.33v-43.07h51.33V224.73z M649.42,224.73h-51.33v-43.07h51.33V224.73z M595.99,224.73h-51.33v-43.07h51.33V224.73z
	 M542.55,224.73h-51.34v-43.07h51.34V224.73z M489.1,224.73h-51.33v-43.07h51.33V224.73z M435.67,224.73h-51.34v-43.07h51.33v43.07
	H435.67z M382.23,224.73H330.9v-43.07h51.33V224.73z M328.79,224.73h-51.33v-43.07h51.33V224.73z M275.35,224.73h-51.34v-43.07
	h51.34V224.73z M221.91,224.73h-51.33v-43.07h51.33V224.73z M221.91,226.41v43.07h-51.33v-43.07L221.91,226.41L221.91,226.41z
	 M221.91,271.15v43.07h-51.33v-43.07H221.91z M221.91,315.89v43.07h-51.33v-43.07H221.91z M221.91,360.63v43.07h-51.33v-43.07
	H221.91z M221.91,405.37v43.07h-51.33v-43.07H221.91z M221.91,450.11v43.07h-51.33v-43.07H221.91z M221.91,494.85v43.07h-51.33
	v-43.07H221.91z M221.91,539.59v43.07h-51.33v-43.07H221.91z M221.91,584.33v43.07h-51.33v-43.07H221.91z M221.91,629.07v43.07
	h-51.33v-43.07H221.91z M221.91,673.81v43.07h-51.33v-43.07H221.91z M221.91,718.56v43.07h-51.33v-43.07H221.91z M221.91,763.3
	v43.07h-51.33V763.3H221.91z M221.91,808.04v43.07h-51.33v-43.07H221.91z M221.91,852.78v43.07h-51.33v-43.07H221.91z
	 M221.91,897.52v43.07h-51.33v-43.07H221.91z M224.02,897.52h51.34v43.07h-51.34L224.02,897.52L224.02,897.52z M277.46,897.52h51.33
	v43.07h-51.33L277.46,897.52L277.46,897.52z M330.9,897.52h51.33v43.07H330.9L330.9,897.52L330.9,897.52z M384.33,897.52h51.33
	v43.07h-51.33V897.52z M437.77,897.52h51.33v43.07h-51.33L437.77,897.52L437.77,897.52z M491.21,897.52h51.34v43.07h-51.34V897.52z
	 M544.65,897.52h51.33v43.07h-51.33V897.52z M598.09,897.52h51.33v43.07h-51.33V897.52z M651.53,897.52h51.33v43.07h-51.33V897.52z
	 M704.97,897.52h51.34v43.07h-51.34V897.52z M758.41,897.52h51.33v43.07h-51.33V897.52z M811.85,897.52h51.33v43.07h-51.33V897.52z
	 M865.29,897.52h51.33v43.07h-51.33V897.52z M918.72,897.52h51.33v43.07h-51.33V897.52z M972.16,897.52h51.34v43.07h-51.34V897.52z
	 M1025.61,897.52h51.33v43.07h-51.33V897.52z M1079.04,897.52h51.33v43.07h-51.33V897.52z M1132.48,897.52h51.33v43.07h-51.33
	V897.52z M1185.92,897.52h51.33v43.07h-51.33V897.52z M1239.35,897.52h51.34v43.07h-51.34V897.52z M1292.8,897.52h51.33v43.07
	h-51.33V897.52z M1346.24,897.52h51.33v43.07h-51.33V897.52z M1399.67,897.52H1451v43.07h-51.33V897.52z M1453.11,897.52h51.34
	v43.07h-51.34V897.52z M1506.56,897.52h51.33v43.07h-51.33V897.52z M1559.99,897.52h51.33v43.07h-51.33V897.52z M1613.43,897.52
	h51.33v43.07h-51.33V897.52z M1666.87,897.52h51.33v43.07h-51.33V897.52z M1720.31,897.52h51.34v43.07h-51.34V897.52z
	 M1720.31,895.85v-43.07h51.34v43.07H1720.31z M1720.31,851.11v-43.07h51.34v43.07H1720.31z M1720.31,806.36v-43.07h51.34v43.07
	H1720.31z M1720.31,761.62v-43.07h51.34v43.07H1720.31z M1720.31,716.88v-43.07h51.34v43.07H1720.31z M1720.31,672.14v-43.07h51.34
	v43.07H1720.31z M1720.31,627.4v-43.07h51.34v43.07H1720.31z M1720.31,582.66v-43.07h51.34v43.07H1720.31z M1720.31,537.92v-43.07
	h51.34v43.07H1720.31z M1720.31,493.18v-43.07h51.34v43.07H1720.31z M1720.31,448.44v-43.07h51.34v43.07H1720.31z M1720.31,403.7
	v-43.07h51.34v43.07H1720.31z M1720.31,358.96v-43.07h51.34v43.07H1720.31z M1720.31,314.21v-43.06h51.34v43.07h-51.34V314.21z
	 M1720.31,269.47V226.4h51.34v43.07H1720.31z M1720.31,224.73v-43.07h51.34v43.07H1720.31z M1720.31,179.99v-43.07h51.34v43.07
	H1720.31z M1718.2,179.99h-51.33v-43.07h51.33V179.99z M1664.76,179.99h-51.33v-43.07h51.33V179.99z M1611.33,179.99H1560v-43.07
	h51.33V179.99z M1557.89,179.99h-51.33v-43.07h51.33V179.99z M1504.45,179.99h-51.34v-43.07h51.34V179.99z M1451.01,179.99h-51.33
	v-43.07h51.33V179.99z M1397.57,179.99h-51.33v-43.07h51.33V179.99z M1344.13,179.99h-51.33v-43.07h51.33V179.99z M1290.69,179.99
	h-51.34v-43.07h51.34V179.99z M1237.25,179.99h-51.33v-43.07h51.33V179.99z M1183.81,179.99h-51.33v-43.07h51.33V179.99z
	 M1130.38,179.99h-51.33v-43.07h51.33V179.99z M1076.94,179.99h-51.33v-43.07h51.33V179.99z M1023.5,179.99h-51.34v-43.07h51.34
	V179.99z M970.06,179.99h-51.33v-43.07h51.33V179.99z M916.62,179.99h-51.33v-43.07h51.33V179.99z M863.18,179.99h-51.33v-43.07
	h51.33V179.99z M809.74,179.99h-51.33v-43.07h51.33V179.99z M756.31,179.99h-51.34v-43.07h51.34V179.99z M702.86,179.99h-51.33
	v-43.07h51.33V179.99z M649.42,179.99h-51.33v-43.07h51.33V179.99z M595.99,179.99h-51.33v-43.07h51.33V179.99z M542.55,179.99
	h-51.34v-43.07h51.34V179.99z M489.1,179.99h-51.33v-43.07h51.33V179.99z M435.67,179.99h-51.34v-43.07h51.33v43.07H435.67z
	 M382.23,179.99H330.9v-43.07h51.33V179.99z M328.79,179.99h-51.33v-43.07h51.33V179.99z M275.35,179.99h-51.34v-43.07h51.34V179.99
	z M221.91,179.99h-51.33v-43.07h51.33V179.99z M168.47,179.99h-51.33v-43.07h51.33V179.99z M168.47,181.66v43.07h-51.33v-43.07
	L168.47,181.66L168.47,181.66z M168.47,226.41v43.07h-51.33v-43.07L168.47,226.41L168.47,226.41z M168.47,271.15v43.07h-51.33
	v-43.07H168.47z M168.47,315.89v43.07h-51.33v-43.07H168.47z M168.47,360.63v43.07h-51.33v-43.07H168.47z M168.47,405.37v43.07
	h-51.33v-43.07H168.47z M168.47,450.11v43.07h-51.33v-43.07H168.47z M168.47,494.85v43.07h-51.33v-43.07H168.47z M168.47,539.59
	v43.07h-51.33v-43.07H168.47z M168.47,584.33v43.07h-51.33v-43.07H168.47z M168.47,629.07v43.07h-51.33v-43.07H168.47z
	 M168.47,673.81v43.07h-51.33v-43.07H168.47z M168.47,718.56v43.07h-51.33v-43.07H168.47z M168.47,763.3v43.07h-51.33V763.3H168.47z
	 M168.47,808.04v43.07h-51.33v-43.07H168.47z M168.47,852.78v43.07h-51.33v-43.07H168.47z M168.47,897.52v43.07h-51.33v-43.07
	H168.47z M168.47,942.26v43.07h-51.33v-43.07H168.47z M170.58,942.26h51.33v43.07h-51.33V942.26z M224.02,942.26h51.34v43.07h-51.34
	L224.02,942.26L224.02,942.26z M277.46,942.26h51.33v43.07h-51.33L277.46,942.26L277.46,942.26z M330.9,942.26h51.33v43.07H330.9
	L330.9,942.26L330.9,942.26z M384.33,942.26h51.33v43.07h-51.33V942.26z M437.77,942.26h51.33v43.07h-51.33L437.77,942.26
	L437.77,942.26z M491.21,942.26h51.34v43.07h-51.34V942.26z M544.65,942.26h51.33v43.07h-51.33V942.26z M598.09,942.26h51.33v43.07
	h-51.33V942.26z M651.53,942.26h51.33v43.07h-51.33V942.26z M704.97,942.26h51.34v43.07h-51.34V942.26z M758.41,942.26h51.33v43.07
	h-51.33V942.26z M811.85,942.26h51.33v43.07h-51.33V942.26z M865.29,942.26h51.33v43.07h-51.33V942.26z M918.72,942.26h51.33v43.07
	h-51.33V942.26z M972.16,942.26h51.34v43.07h-51.34V942.26z M1025.61,942.26h51.33v43.07h-51.33V942.26z M1079.04,942.26h51.33
	v43.07h-51.33V942.26z M1132.48,942.26h51.33v43.07h-51.33V942.26z M1185.92,942.26h51.33v43.07h-51.33V942.26z M1239.35,942.26
	h51.34v43.07h-51.34V942.26z M1292.8,942.26h51.33v43.07h-51.33V942.26z M1346.24,942.26h51.33v43.07h-51.33V942.26z
	 M1399.67,942.26H1451v43.07h-51.33V942.26z M1453.11,942.26h51.34v43.07h-51.34V942.26z M1506.56,942.26h51.33v43.07h-51.33V942.26
	z M1559.99,942.26h51.33v43.07h-51.33V942.26z M1613.43,942.26h51.33v43.07h-51.33V942.26z M1666.87,942.26h51.33v43.07h-51.33
	V942.26z M1720.31,942.26h51.34v43.07h-51.34V942.26z M1773.75,942.26h51.33v43.07h-51.33V942.26z M1773.75,940.59v-43.07h51.33
	v43.07H1773.75z M1773.75,895.85v-43.07h51.33v43.07H1773.75z M1773.75,851.11v-43.07h51.33v43.07H1773.75z M1773.75,806.36v-43.07
	h51.33v43.07H1773.75z M1773.75,761.62v-43.07h51.33v43.07H1773.75z M1773.75,716.88v-43.07h51.33v43.07H1773.75z M1773.75,672.14
	v-43.07h51.33v43.07H1773.75z M1773.75,627.4v-43.07h51.33v43.07H1773.75z M1773.75,582.66v-43.07h51.33v43.07H1773.75z
	 M1773.75,537.92v-43.07h51.33v43.07H1773.75z M1773.75,493.18v-43.07h51.33v43.07H1773.75z M1773.75,448.44v-43.07h51.33v43.07
	H1773.75z M1773.75,403.7v-43.07h51.33v43.07H1773.75z M1773.75,358.96v-43.07h51.33v43.07H1773.75z M1773.75,314.21v-43.06h51.33
	v43.07h-51.33V314.21z M1773.75,269.47V226.4h51.33v43.07H1773.75z M1773.75,224.73v-43.07h51.33v43.07H1773.75z M1773.75,179.99
	v-43.07h51.33v43.07H1773.75z M1773.75,135.25V92.18h51.33v43.07H1773.75z M1771.65,135.25h-51.34V92.18h51.34V135.25z
	 M1718.2,135.25h-51.33V92.18h51.33V135.25z M1664.76,135.25h-51.33V92.18h51.33V135.25z M1611.33,135.25H1560V92.18h51.33V135.25z
	 M1557.89,135.25h-51.33V92.18h51.33V135.25z M1504.45,135.25h-51.34V92.18h51.34V135.25z M1451.01,135.25h-51.33V92.18h51.33
	V135.25z M1397.57,135.25h-51.33V92.18h51.33V135.25z M1344.13,135.25h-51.33V92.18h51.33V135.25z M1290.69,135.25h-51.34V92.18
	h51.34V135.25z M1237.25,135.25h-51.33V92.18h51.33V135.25z M1183.81,135.25h-51.33V92.18h51.33V135.25z M1130.38,135.25h-51.33
	V92.18h51.33V135.25z M1076.94,135.25h-51.33V92.18h51.33V135.25z M1023.5,135.25h-51.34V92.18h51.34V135.25z M970.06,135.25h-51.33
	V92.18h51.33V135.25z M916.62,135.25h-51.33V92.18h51.33V135.25z M863.18,135.25h-51.33V92.18h51.33V135.25z M809.74,135.25h-51.33
	V92.18h51.33V135.25z M756.31,135.25h-51.34V92.18h51.34V135.25z M702.86,135.25h-51.33V92.18h51.33V135.25z M649.42,135.25h-51.33
	V92.18h51.33V135.25z M595.99,135.25h-51.33V92.18h51.33V135.25z M542.55,135.25h-51.34V92.18h51.34V135.25z M489.1,135.25h-51.33
	V92.18h51.33V135.25z M435.67,135.25h-51.34V92.18h51.33v43.07H435.67z M382.23,135.25H330.9V92.18h51.33V135.25z M328.79,135.25
	h-51.33V92.18h51.33V135.25z M275.35,135.25h-51.34V92.18h51.34V135.25z M221.91,135.25h-51.33V92.18h51.33V135.25z M168.47,135.25
	h-51.33V92.18h51.33V135.25z M63.7,136.92h51.33v43.07H63.7V136.92z M63.7,181.66h51.33v43.07H63.7V181.66z M63.7,226.41h51.33
	v43.07H63.7V226.41z M63.7,271.15h51.33v43.07H63.7V271.15z M63.7,315.89h51.33v43.07H63.7V315.89z M63.7,360.63h51.33v43.07H63.7
	V360.63z M63.7,405.37h51.33v43.07H63.7V405.37z M63.7,450.11h51.33v43.07H63.7V450.11z M63.7,494.85h51.33v43.07H63.7V494.85z
	 M63.7,539.59h51.33v43.07H63.7V539.59z M63.7,584.33h51.33v43.07H63.7V584.33z M63.7,629.07h51.33v43.07H63.7V629.07z M63.7,673.81
	h51.33v43.07H63.7V673.81z M63.7,718.56h51.33v43.07H63.7V718.56z M63.7,763.3h51.33v43.07H63.7V763.3z M63.7,808.04h51.33v43.07
	H63.7V808.04z M63.7,852.78h51.33v43.07H63.7V852.78z M63.7,897.52h51.33v43.07H63.7V897.52z M63.7,942.26h51.33v43.07H63.7V942.26z
	 M63.7,1030.07V987h51.33v43.07H63.7z M117.14,1030.07V987h51.33v43.07H117.14z M170.58,1030.07V987h51.33v43.07H170.58z
	 M224.02,1030.07V987h51.34v43.07H224.02z M277.46,1030.07V987h51.33v43.07H277.46z M330.9,1030.07V987h51.33v43.07H330.9z
	 M384.33,1030.07V987h51.33v43.07H384.33z M437.77,1030.07V987h51.33v43.07H437.77z M491.21,1030.07V987h51.34v43.07H491.21z
	 M544.65,1030.07V987h51.33v43.07H544.65z M598.09,1030.07V987h51.33v43.07H598.09z M651.53,1030.07V987h51.33v43.07H651.53z
	 M704.97,1030.07V987h51.34v43.07H704.97z M758.41,1030.07V987h51.33v43.07H758.41z M811.85,1030.07V987h51.33v43.07H811.85z
	 M865.29,1030.07V987h51.33v43.07H865.29z M918.72,1030.07V987h51.33v43.07H918.72z M972.16,1030.07V987h51.34v43.07H972.16z
	 M1025.61,1030.07V987h51.33v43.07H1025.61z M1079.04,1030.07V987h51.33v43.07H1079.04z M1132.48,1030.07V987h51.33v43.07H1132.48z
	 M1185.92,1030.07V987h51.33v43.07H1185.92z M1239.35,1030.07V987h51.34v43.07H1239.35z M1292.8,1030.07V987h51.33v43.07H1292.8z
	 M1346.24,1030.07V987h51.33v43.07H1346.24z M1399.67,1030.07V987H1451v43.07H1399.67z M1453.11,1030.07V987h51.34v43.07H1453.11z
	 M1506.56,1030.07V987h51.33v43.07H1506.56z M1559.99,1030.07V987h51.33v43.07H1559.99z M1613.43,1030.07V987h51.33v43.07H1613.43z
	 M1666.87,1030.07V987h51.33v43.07H1666.87z M1720.31,1030.07V987h51.34v43.07H1720.31z M1773.75,1030.07V987h51.33v43.07H1773.75z
	 M1878.52,1030.07h-51.33V987h51.33V1030.07z M1878.52,985.33h-51.33v-43.07h51.33V985.33z M1878.52,940.59h-51.33v-43.07h51.33
	V940.59z M1878.52,895.85h-51.33v-43.07h51.33V895.85z M1878.52,851.11h-51.33v-43.07h51.33V851.11z M1878.52,806.36h-51.33v-43.07
	h51.33V806.36z M1878.52,761.62h-51.33v-43.07h51.33V761.62z M1878.52,716.88h-51.33v-43.07h51.33V716.88z M1878.52,672.14h-51.33
	v-43.07h51.33V672.14z M1878.52,627.4h-51.33v-43.07h51.33V627.4z M1878.52,582.66h-51.33v-43.07h51.33V582.66z M1878.52,537.92
	h-51.33v-43.07h51.33V537.92z M1878.52,493.18h-51.33v-43.07h51.33V493.18z M1878.52,448.44h-51.33v-43.07h51.33V448.44z
	 M1878.52,403.7h-51.33v-43.07h51.33V403.7z M1878.52,358.96h-51.33v-43.07h51.33V358.96z M1878.52,314.21h-51.33v-43.06h51.33
	V314.21z M1878.52,269.47h-51.33V226.4h51.33V269.47z M1878.52,224.73h-51.33v-43.07h51.33V224.73z M1878.52,179.99h-51.33v-43.07
	h51.33V179.99z M1878.52,135.25h-51.33V92.18h51.33V135.25z M1878.52,47.44v43.07h-51.33V47.44H1878.52z M1825.08,47.44v43.07
	h-51.33V47.44H1825.08z M1771.65,47.44v43.07h-51.34V47.44H1771.65z M1718.2,47.44v43.07h-51.33V47.44H1718.2z M1664.76,47.44v43.07
	h-51.33V47.44H1664.76z M1611.33,47.44v43.07H1560V47.44H1611.33z M1557.89,47.44v43.07h-51.33V47.44H1557.89z M1504.45,47.44v43.07
	h-51.34V47.44H1504.45z M1451.01,47.44v43.07h-51.33V47.44H1451.01z M1397.57,47.44v43.07h-51.33V47.44H1397.57z M1344.13,47.44
	v43.07h-51.33V47.44H1344.13z M1290.69,47.44v43.07h-51.34V47.44H1290.69z M1237.25,47.44v43.07h-51.33V47.44H1237.25z
	 M1183.81,47.44v43.07h-51.33V47.44H1183.81z M1130.38,47.44v43.07h-51.33V47.44H1130.38z M1076.94,47.44v43.07h-51.33V47.44
	H1076.94z M1023.5,47.44v43.07h-51.34V47.44H1023.5z M970.06,47.44v43.07h-51.33V47.44H970.06z M916.62,47.44v43.07h-51.33V47.44
	H916.62z M863.18,47.44v43.07h-51.33V47.44H863.18z M809.74,47.44v43.07h-51.33V47.44H809.74z M756.31,47.44v43.07h-51.34V47.44
	H756.31z M702.86,47.44v43.07h-51.33V47.44H702.86z M649.42,47.44v43.07h-51.33V47.44H649.42z M595.99,47.44v43.07h-51.33V47.44
	H595.99z M542.55,47.44v43.07h-51.34V47.44H542.55z M489.1,47.44v43.07h-51.33V47.44H489.1z M435.67,47.44v43.07h-51.34V47.44
	H435.67z M382.23,47.44v43.07H330.9V47.44H382.23z M328.79,47.44v43.07h-51.33V47.44H328.79z M275.35,47.44v43.07h-51.34V47.44
	H275.35z M221.91,47.44v43.07h-51.33V47.44H221.91z M168.47,47.44v43.07h-51.33V47.44H168.47z M115.04,47.44v43.07H63.7V47.44
	H115.04z"/>
<g>
	<g>
		
			<linearGradient id="SVGID_1_" gradientUnits="userSpaceOnUse" x1="-3431.186" y1="-4395.0195" x2="-3431.186" y2="-5770.3823" gradientTransform="matrix(6.123234e-17 -1 -1 -6.123234e-17 -4054.1965 -2891.186)">
			<stop  offset="0" style="stop-color:#00FFDE"/>
			<stop  offset="1" style="stop-color:#6850E6"/>
		</linearGradient>
		<path class="st2" d="M-3.8,1080.56h1927.6V-0.56H-3.8V1080.56z M1889.36,63.64v952.72c0,20.36-20.81,36.87-46.49,36.87H77.13
			c-25.67,0-46.49-16.51-46.49-36.87V63.64c0-20.36,20.81-36.87,46.49-36.87h1765.74C1868.54,26.76,1889.36,43.28,1889.36,63.64z"/>
	</g>
</g>
</svg>
