<?xml version="1.0" encoding="utf-8"?>
<!-- Generator: Adobe Illustrator 26.2.1, SVG Export Plug-In . SVG Version: 6.00 Build 0)  -->
<svg version="1.1" id="Capa_1" xmlns="http://www.w3.org/2000/svg" xmlns:xlink="http://www.w3.org/1999/xlink" x="0px" y="0px"
	 viewBox="0 0 481 330.91" style="enable-background:new 0 0 481 330.91;" xml:space="preserve">
<style type="text/css">
	.st0{enable-background:new    ;}
	.st1{fill:#FFFFFF;}
	.st2{fill:#E5432E;}
</style>
<g class="st0">
	<path class="st1" d="M170.09,203.88h-13.88V190v-13.88v-13.88h-13.88h-13.88h-13.88h-13.88H86.81H72.92v13.88V190v13.88H59.04
		H45.16V190v-13.88v-13.88h13.88v-13.88v-13.88V120.6h13.88v-13.88V92.83V78.95H86.8V65.07V51.19h13.88V37.31h13.88h13.88v13.88
		h13.88v13.88v13.88h13.88v13.88v13.88v13.88h13.88v13.88v13.88v13.88h13.88v13.88V190v13.88H170.09z M128.45,134.48h13.88V120.6
		h-13.88v-13.88V92.83V78.95h-13.88h-13.88v13.88v13.88v13.88H86.81v13.88h13.88h13.88h13.88V134.48z"/>
	<path class="st1" d="M225.61,203.88h-13.88V190v-13.88h13.88h13.88V190v13.88H225.61z"/>
	<path class="st1" d="M336.66,203.88h-13.88H308.9h-13.88h-13.88h-13.88V190v-13.88h13.88h13.88v-13.88v-13.88v-13.88V120.6v-13.88
		V92.83V78.95V65.07h-13.88h-13.88V51.19V37.31h13.88h13.88h13.88h13.88h13.88h13.88v13.88v13.88h-13.88h-13.88v13.88v13.88v13.88
		v13.88v13.88v13.88v13.88v13.88h13.88h13.88V190v13.88H336.66z"/>
</g>
<g class="st0">
	<path class="st2" d="M380.98,202.93h-3.57v-3.57h-3.57v-3.57h-3.57v-3.57v-3.57v-3.57h-3.57v-3.57v-3.57v-3.57h-3.57v-3.57v-3.57
		v-3.57v-3.57h3.57h3.57v3.57v3.57v3.57h3.57v3.57v3.57v3.57h3.57v3.57v3.57v3.57h3.57h3.57v-3.57v-3.57v-3.57h3.57v-3.57v-3.57
		v-3.57h3.57v-3.57v-3.57v-3.57h3.57h3.57v3.57v3.57v3.57v3.57h-3.57v3.57v3.57v3.57h-3.57v3.57v3.57v3.57h-3.57v3.57h-3.57v3.57
		H380.98z"/>
	<path class="st2" d="M430.91,202.93h-3.57h-3.57h-3.57h-3.57h-3.57v-3.57h-3.57v-3.57h-3.57v-3.57v-3.57h3.57h3.57v3.57h3.57v3.57
		h3.57h3.57h3.57h3.57v-3.57h3.57v-3.57h-3.57v-3.57h-3.57h-3.57h-3.57h-3.57h-3.57v-3.57h-3.57v-3.57h-3.57v-3.57v-3.57v-3.57h3.57
		v-3.57h3.57v-3.57h3.57h3.57h3.57h3.57h3.57h3.57v3.57h3.57v3.57h3.57v3.57v3.57h-3.57h-3.57v-3.57h-3.57v-3.57h-3.57h-3.57h-3.57
		h-3.57v3.57h-3.57v3.57h3.57v3.57h3.57h3.57h3.57h3.57h3.57v3.57h3.57v3.57h3.57v3.57v3.57v3.57h-3.57v3.57h-3.57v3.57H430.91z"/>
</g>
<g class="st0">
	<path class="st1" d="M98.19,292.95h-5.63v-5.63v-5.63v-5.63v-5.63v-5.63h-5.63H81.3h-5.63h-5.63h-5.63h-5.63v5.63v5.63v5.63v5.63
		v5.63h-5.63h-5.63v-5.63v-5.63v-5.63v-5.63v-5.63v-5.63v-5.63v-5.63v-5.63v-5.63v-5.63v-5.63h5.63h5.63v5.63v5.63v5.63v5.63v5.63
		h5.63h5.63h5.63h5.63h5.63h5.63v-5.63v-5.63v-5.63v-5.63v-5.63h5.63h5.63v5.63v5.63v5.63v5.63v5.63v5.63v5.63v5.63v5.63v5.63v5.63
		v5.63H98.19z"/>
	<path class="st1" d="M154.53,292.95h-5.63h-5.63h-5.63H132h-5.63v-5.63h-5.63v-5.63h-5.63v-5.63v-5.63v-5.63v-5.63v-5.63v-5.63
		v-5.63v-5.63v-5.63v-5.63h5.63h5.63v5.63v5.63v5.63v5.63v5.63v5.63v5.63v5.63v5.63H132v5.63h5.63h5.63h5.63h5.63v-5.63h5.63v-5.63
		v-5.63v-5.63v-5.63v-5.63v-5.63v-5.63v-5.63v-5.63h5.63h5.63v5.63v5.63v5.63v5.63v5.63v5.63v5.63v5.63v5.63v5.63h-5.63v5.63h-5.63
		v5.63H154.53z"/>
	<path class="st1" d="M233.41,292.95h-5.63v-5.63v-5.63v-5.63v-5.63v-5.63v-5.63v-5.63v-5.63h-5.63v5.63h-5.63v5.63v5.63h-5.63
		h-5.63v-5.63v-5.63h-5.63v-5.63H194v5.63v5.63v5.63v5.63v5.63v5.63v5.63v5.63h-5.63h-5.63v-5.63v-5.63v-5.63v-5.63v-5.63v-5.63
		v-5.63v-5.63v-5.63v-5.63v-5.63v-5.63h5.63H194v5.63h5.63v5.63h5.63v5.63h5.63h5.63v-5.63h5.63v-5.63h5.63v-5.63h5.63h5.63v5.63
		v5.63v5.63v5.63v5.63v5.63v5.63v5.63v5.63v5.63v5.63v5.63H233.41z"/>
	<path class="st1" d="M301.02,292.95h-5.63v-5.63v-5.63v-5.63h-5.63h-5.63h-5.63h-5.63h-5.63h-5.63v5.63v5.63v5.63h-5.63h-5.63
		v-5.63v-5.63v-5.63h5.63v-5.63v-5.63v-5.63h5.63v-5.63v-5.63v-5.63h5.63v-5.63v-5.63h5.63v-5.63h5.63h5.63v5.63h5.63v5.63v5.63
		h5.63v5.63v5.63v5.63h5.63v5.63v5.63v5.63h5.63v5.63v5.63v5.63H301.02z M284.12,264.78h5.63v-5.63h-5.63v-5.63v-5.63v-5.63h-5.63
		h-5.63v5.63v5.63v5.63h-5.63v5.63h5.63h5.63H284.12z"/>
	<path class="st1" d="M368.63,292.95H363v-5.63h-5.63v-5.63h-5.63v-5.63h-5.63v-5.63v-5.63h-5.63v-5.63h-5.63v-5.63v-5.63h-5.63
		v5.63v5.63v5.63v5.63v5.63v5.63v5.63v5.63h-5.63h-5.63v-5.63v-5.63v-5.63v-5.63v-5.63v-5.63v-5.63v-5.63v-5.63v-5.63v-5.63v-5.63
		h5.63h5.63v5.63h5.63v5.63h5.63v5.63h5.63v5.63v5.63h5.63v5.63h5.63v5.63v5.63H363v-5.63v-5.63v-5.63v-5.63v-5.63v-5.63v-5.63
		v-5.63h5.63h5.63v5.63v5.63v5.63v5.63v5.63v5.63v5.63v5.63v5.63v5.63v5.63v5.63H368.63z"/>
	<path class="st1" d="M424.98,292.95h-5.63h-5.63h-5.63h-5.63h-5.63v-5.63h-5.63v-5.63h-5.63v-5.63v-5.63h5.63h5.63v5.63h5.63v5.63
		h5.63h5.63h5.63h5.63v-5.63h5.63v-5.63h-5.63v-5.63h-5.63h-5.63h-5.63h-5.63h-5.63v-5.63h-5.63v-5.63h-5.63v-5.63v-5.63v-5.63h5.63
		v-5.63h5.63v-5.63h5.63h5.63h5.63h5.63h5.63h5.63v5.63h5.63v5.63h5.63v5.63v5.63h-5.63h-5.63v-5.63h-5.63v-5.63h-5.63h-5.63h-5.63
		h-5.63v5.63h-5.63v5.63h5.63v5.63h5.63h5.63h5.63h5.63h5.63v5.63h5.63v5.63h5.63v5.63v5.63v5.63h-5.63v5.63h-5.63v5.63H424.98z"/>
</g>
</svg>
