<?xml version="1.0" encoding="utf-8"?>
<!-- Generator: Adobe Illustrator 26.2.1, SVG Export Plug-In . SVG Version: 6.00 Build 0)  -->
<svg version="1.1" id="Capa_1" xmlns="http://www.w3.org/2000/svg" xmlns:xlink="http://www.w3.org/1999/xlink" x="0px" y="0px"
	 viewBox="0 0 444 473" style="enable-background:new 0 0 444 473;" xml:space="preserve">
<style type="text/css">
	.st0{fill-rule:evenodd;clip-rule:evenodd;fill:#E65D49;}
	.st1{fill-rule:evenodd;clip-rule:evenodd;fill:#EBE2BB;}
	.st2{fill-rule:evenodd;clip-rule:evenodd;fill:#380D13;}
	.st3{fill-rule:evenodd;clip-rule:evenodd;fill:#611C1C;}
	.st4{fill-rule:evenodd;clip-rule:evenodd;fill:#370F31;}
	.st5{fill-rule:evenodd;clip-rule:evenodd;fill:#260D24;}
	.st6{fill-rule:evenodd;clip-rule:evenodd;fill:#361433;}
	.st7{fill-rule:evenodd;clip-rule:evenodd;fill:#4D1C49;}
	.st8{fill-rule:evenodd;clip-rule:evenodd;fill:#F19B78;}
	.st9{fill-rule:evenodd;clip-rule:evenodd;fill:#FFB294;}
	.st10{fill-rule:evenodd;clip-rule:evenodd;fill:#FFDCC9;}
	.st11{fill-rule:evenodd;clip-rule:evenodd;fill:#FFFFCC;}
	.st12{fill-rule:evenodd;clip-rule:evenodd;fill:#1C0B1B;}
	.st13{fill-rule:evenodd;clip-rule:evenodd;fill:#D9D9C5;}
	.st14{fill-rule:evenodd;clip-rule:evenodd;fill:#0A0706;}
	.st15{fill-rule:evenodd;clip-rule:evenodd;fill:#170916;}
	.st16{fill-rule:evenodd;clip-rule:evenodd;fill:#120711;}
	.st17{fill-rule:evenodd;clip-rule:evenodd;fill:#E67056;}
	.st18{fill-rule:evenodd;clip-rule:evenodd;fill:url(#SVGID_1_);}
	.st19{fill-rule:evenodd;clip-rule:evenodd;fill:#BA3B1C;}
	.st20{fill-rule:evenodd;clip-rule:evenodd;fill:#F6CA96;}
	.st21{fill-rule:evenodd;clip-rule:evenodd;fill:#3B180F;}
	.st22{fill-rule:evenodd;clip-rule:evenodd;fill:#E66F55;}
	.st23{fill-rule:evenodd;clip-rule:evenodd;fill:#991E0E;}
	.st24{fill-rule:evenodd;clip-rule:evenodd;fill:#FFB496;}
	.st25{fill-rule:evenodd;clip-rule:evenodd;fill:#59211F;}
	.st26{fill-rule:evenodd;clip-rule:evenodd;fill:#F07464;}
	.st27{fill-rule:evenodd;clip-rule:evenodd;fill:#BD3E28;}
	.st28{fill-rule:evenodd;clip-rule:evenodd;fill:#A83200;}
	.st29{fill-rule:evenodd;clip-rule:evenodd;fill:#FF9587;}
	.st30{fill-rule:evenodd;clip-rule:evenodd;fill:#E65745;}
	.st31{fill-rule:evenodd;clip-rule:evenodd;fill:#D84B3C;}
	.st32{fill-rule:evenodd;clip-rule:evenodd;fill:#B83228;}
	.st33{fill-rule:evenodd;clip-rule:evenodd;fill:#FFFFF5;}
	.st34{fill-rule:evenodd;clip-rule:evenodd;fill:#6E2F23;}
	.st35{fill-rule:evenodd;clip-rule:evenodd;fill:none;stroke:#565656;stroke-width:7;stroke-linecap:round;stroke-miterlimit:10;}
	.st36{fill-rule:evenodd;clip-rule:evenodd;fill:url(#SVGID_00000160168831073897351320000005605367357544146321_);}
	.st37{fill-rule:evenodd;clip-rule:evenodd;fill:#471817;}
	.st38{fill-rule:evenodd;clip-rule:evenodd;fill:#D13C30;}
	.st39{fill-rule:evenodd;clip-rule:evenodd;fill:#1B2723;}
	.st40{fill-rule:evenodd;clip-rule:evenodd;fill:#007979;}
	.st41{fill-rule:evenodd;clip-rule:evenodd;fill:#009C9C;}
	.st42{fill-rule:evenodd;clip-rule:evenodd;fill:#FFFFFF;}
	.st43{fill-rule:evenodd;clip-rule:evenodd;fill:#26302C;}
	.st44{fill-rule:evenodd;clip-rule:evenodd;fill:url(#SVGID_00000122678292140411309480000001201871588294655676_);}
	.st45{fill-rule:evenodd;clip-rule:evenodd;fill:url(#SVGID_00000150796945856224066080000008481217121450760631_);}
	.st46{fill-rule:evenodd;clip-rule:evenodd;fill:url(#SVGID_00000147942195046293203320000003871558610612819625_);}
	.st47{fill-rule:evenodd;clip-rule:evenodd;fill:url(#SVGID_00000016039433188588809760000005551723399299024319_);}
	.st48{fill-rule:evenodd;clip-rule:evenodd;fill:url(#SVGID_00000101065380558013831260000004212678888035363224_);}
	.st49{fill-rule:evenodd;clip-rule:evenodd;fill:url(#SVGID_00000102510964017783938510000014446820761114198666_);}
</style>
<g>
	<path class="st39" d="M313.7,77.01l26.63,13.61l-3.75,14.05l6.24,20.99l9.69-36.26c0.03-0.12,0.05-0.25,0.08-0.37
		c0.97-2.93-0.17-6.16-2.78-7.49l-32.49-18.07L313.7,77.01z"/>
	<path class="st39" d="M307.09,82.22l0.66,30.04l14.21,2.65l16.1,14.72l-36.68-6.85c-0.12-0.02-0.24-0.06-0.37-0.09
		c-3.04-0.38-5.45-2.82-5.51-5.75l-2.12-37.28L307.09,82.22z"/>
	<polygon class="st39" points="230.57,33.99 88.36,86.39 93.96,101.77 236.17,49.36 	"/>
	<path class="st40" d="M150.1,215.59l-37.73,23.58L45.91,131.43c-6.47-10.49-3.27-24.27,7.15-30.78l0,0
		c10.42-6.51,24.11-3.29,30.58,7.2L150.1,215.59z"/>
	<path class="st41" d="M144.29,194.92L144.29,194.92c-13.61-7.91-31.01-3.21-38.86,10.48l-50.63,88.27l49.28,28.64l50.63-88.27
		C162.56,220.34,157.9,202.82,144.29,194.92z"/>
	<path class="st40" d="M106.52,107.81l-21.07,9.11L72.55,86.69l21.07-9.11c3.02-1.31,6.52,0.1,7.82,3.14l8.21,19.22
		C110.94,102.99,109.54,106.51,106.52,107.81z"/>
	<path class="st40" d="M315.32,91.9L315.32,91.9c-9.05,6.69-21.77,4.72-28.41-4.39l-33.28-45.64c-6.64-9.11-4.69-21.91,4.36-28.6
		l0,0c9.05-6.69,21.77-4.72,28.41,4.39l33.28,45.64C326.33,72.41,324.38,85.22,315.32,91.9z"/>
	<path class="st41" d="M317.89,54.1L317.89,54.1c-1.26-1.93-3.83-2.47-5.75-1.2L278.4,75.19c-1.92,1.27-2.45,3.86-1.19,5.79l0,0
		c1.26,1.93,3.83,2.47,5.75,1.2l33.74-22.29C318.61,58.62,319.15,56.03,317.89,54.1z"/>
	<path class="st41" d="M87.01,75.8l19.7,39.09c1.9,3.78,0.4,8.39-3.35,10.31l-38.77,16.82c-14.48,7.39-32.17,1.57-39.51-13l0,0
		c-7.34-14.57-1.56-32.37,12.92-39.77l38.77-16.82C80.52,70.51,85.11,72.02,87.01,75.8z"/>
	<path class="st40" d="M233.23,24.35l21.83-7.07l10.01,31.32l-21.83,7.07c-3.13,1.01-6.48-0.72-7.49-3.87l-6.37-19.92
		C228.38,28.74,230.1,25.36,233.23,24.35z"/>
	<path class="st41" d="M288.22,49.35l-32.56,10.54c-3.7,1.2-7.66-0.85-8.85-4.57l-10.48-32.78c-1.19-3.72,0.84-7.71,4.54-8.9
		L273.44,3.1c3.7-1.2,7.66,0.85,8.85,4.57l10.48,32.78C293.94,44.16,291.91,48.15,288.22,49.35z"/>
	<ellipse class="st42" cx="131.6" cy="217.04" rx="14.68" ry="14.77"/>
	<ellipse class="st42" cx="59.97" cy="108.41" rx="14.68" ry="14.77"/>
	<ellipse class="st42" cx="264.54" cy="31.49" rx="11.97" ry="12.05"/>
	<path class="st43" d="M11.73,382.04h2.35v-59.86h13.37v-14.42c0-8.61,6.93-15.58,15.48-15.58h90.59c8.55,0,15.48,6.98,15.48,15.58
		v14.42h13.37v59.86h2.35c6.6,0,12,5.4,12,12v79h-177v-79C-0.27,387.44,5.13,382.04,11.73,382.04z"/>
</g>
</svg>
